<?xml version="1.0" standalone="no"?>
<!DOCTYPE svg PUBLIC "-//W3C//DTD SVG 1.1//EN" "http://www.w3.org/Graphics/SVG/1.1/DTD/svg11.dtd" >
<svg>
<metadata>
Created by FontForge 20110222 at Mon Mar  7 03:49:01 2011
 By www-data
</metadata>
<defs>
<font id="Cursivestandard" horiz-adv-x="609" >
  <font-face 
    font-family="Cursive standard"
    font-weight="400"
    font-stretch="normal"
    units-per-em="1000"
    panose-1="0 0 0 0 0 0 0 0 0 0"
    ascent="800"
    descent="-200"
    x-height="320"
    cap-height="901"
    bbox="-149 -605 1054 938"
    underline-thickness="50"
    underline-position="-50"
    unicode-range="U+0020-20AC"
  />
    <missing-glyph />
    <glyph glyph-name="space" unicode=" " horiz-adv-x="400" 
 />
    <glyph glyph-name="space" unicode="&#xa0;" horiz-adv-x="400" 
 />
    <glyph glyph-name="dollar" unicode="$" horiz-adv-x="227" 
d="M249 130q0 -32 -12 -58.5t-33 -45t-48.5 -29t-58.5 -10.5q-42 0 -70.5 26t-28.5 71q0 23 15.5 39.5t38.5 16.5q9 0 16 -4.5t7 -14.5t-5.5 -13.5t-12 -5.5t-12 -5t-5.5 -13q0 -27 16.5 -42t40.5 -15q46 0 78.5 27.5t32.5 75.5q0 24 -16 43t-39 33.5t-48 25.5t-43 20
l-18 -46t-19 -46q-4 -8 -9 -16t-16 -8q-8 0 -14 5.5t-6 13.5q0 2 6.5 18.5t15 37t16 38.5t9.5 24q-14 11 -24 26t-10 33q0 23 11 43t37 20q19 0 33.5 -13.5t14.5 -32.5q0 -15 -4 -30t-9 -29q25 -13 55 -27t56.5 -32t44 -42.5t17.5 -58.5zM48 349q0 6 -7 6q-5 0 -6.5 -5
t-1.5 -9q0 -8 1.5 -13.5t6.5 -12.5q3 8 5 16.5t2 17.5z" />
    <glyph glyph-name="percent" unicode="%" horiz-adv-x="557" 
d="M253 676q0 -24 -8.5 -46.5t-23.5 -39.5t-36 -27.5t-46 -10.5t-46 10.5t-36 27.5t-23.5 39.5t-8.5 46.5q0 23 9.5 43t25 36t36.5 25t43 9q23 0 44 -9t36.5 -24.5t24.5 -36t9 -43.5zM468 766q-54 -141 -110 -279.5t-113 -278.5l-56 -140q-3 -6 -7.5 -20.5t-11 -28.5
t-14 -25t-15.5 -11q-9 0 -15 6.5t-6 14.5q46 119 93 237t95 236q23 57 46 112.5t45 112.5q3 6 7.5 20.5t11 28.5t14 25t15.5 11q9 0 15 -6.5t6 -14.5zM563 110q0 -24 -8.5 -46.5t-23.5 -39.5t-36 -27.5t-46 -10.5t-46 10.5t-36 27.5t-23.5 39.5t-8.5 46.5q0 23 9.5 43.5
t25 36t36.5 25t43 9.5q23 0 44 -9t36.5 -24.5t24.5 -36.5t9 -44zM212 676q0 29 -22 51t-51 22t-51 -22t-22 -51q0 -15 5 -30t15 -27t23.5 -19t29.5 -7q17 0 30 7t23 19t15 27t5 30zM522 110q0 29 -22 51t-51 22t-51 -22t-22 -51q0 -15 5 -30t15 -27t23.5 -19.5t29.5 -7.5
q17 0 30 7.5t23 19.5t15 27t5 30z" />
    <glyph glyph-name="ampersand" unicode="&#x26;" horiz-adv-x="555" 
d="M576 366q0 -7 -7 -14q-17 -17 -43.5 -26.5t-50.5 -7.5q3 -30 3 -59q0 -48 -9 -88.5t-37 -80.5q17 -20 35 -38t44 -25q8 -2 14 -5.5t6 -14.5q0 -9 -6.5 -14.5t-14.5 -5.5q-14 0 -29 7.5t-28.5 18.5t-25 23.5t-20.5 22.5q-33 -35 -77 -53.5t-92 -18.5q-51 0 -95.5 19.5
t-77 53.5t-51.5 78.5t-19 95.5q0 42 15 76t39 62t54.5 52t61.5 45q-6 15 -14.5 35.5t-16 42.5t-12.5 43t-5 36q0 24 7.5 48.5t22 44t35.5 31.5t48 12t48.5 -11.5t37 -30.5t24 -43t8.5 -49q0 -30 -12.5 -55.5t-31.5 -46.5t-42.5 -39t-46.5 -33q40 -87 87 -170t104 -160
q20 32 25.5 63t5.5 68q0 20 -1 39.5t-6 38.5q-11 6 -23.5 13.5t-25.5 7.5q-4 0 -11 -4t-15 -9.5t-15.5 -9.5t-13.5 -4q-8 0 -13.5 6.5t-5.5 14.5q0 7 3 10.5t8 7.5q13 8 30 18t33 10t29 -5.5t25 -12t23 -12t23 -5.5q16 0 27.5 4t20.5 9.5t15.5 9.5t10.5 4q8 0 14.5 -6
t6.5 -14zM307 628q0 16 -5.5 33t-15 30.5t-24 22t-32.5 8.5t-31.5 -9t-22.5 -23.5t-13.5 -31.5t-4.5 -32q0 -13 4.5 -31t10.5 -37t13 -36.5t12 -30.5q17 12 36 26t35.5 31t27 37t10.5 43zM380 91q-60 78 -108.5 164t-89.5 176q-26 -18 -52 -38t-47 -44t-34 -52t-13 -63
q0 -42 15.5 -79.5t42.5 -66t64 -45t80 -16.5q41 0 77.5 17t64.5 47z" />
    <glyph glyph-name="quotesingle" unicode="'" horiz-adv-x="173" 
d="M86 552q0 -8 -6.5 -13.5t-14.5 -5.5t-14 5.5t-6 13.5v125q0 8 6 13.5t14 5.5t14.5 -5.5t6.5 -13.5v-125z" />
    <glyph glyph-name="parenleft" unicode="(" horiz-adv-x="237" 
d="M192 -160q0 -8 -6.5 -14t-14.5 -6q-10 0 -16 8q-36 40 -65.5 100t-51 126t-33.5 132.5t-12 119.5q0 56 12 121t33.5 130t51 124t65.5 102q7 9 16 9q8 0 14.5 -6.5t6.5 -14.5q0 -4 -7 -17t-16.5 -27.5t-18 -28t-11.5 -19.5q-48 -85 -76.5 -180.5t-28.5 -192.5
q0 -98 28.5 -193.5t76.5 -180.5q3 -6 11.5 -19.5t18 -28t16.5 -27.5t7 -17z" />
    <glyph glyph-name="parenright" unicode=")" horiz-adv-x="237" 
d="M245 306q0 -53 -12 -119.5t-34 -132.5t-51.5 -126t-65.5 -100q-6 -8 -16 -8q-8 0 -14.5 6t-6.5 14q0 4 4 12q34 53 62 106.5t48.5 109t32 115t11.5 123.5q0 65 -11.5 123.5t-32 114t-48.5 109t-62 106.5q-4 8 -4 12q0 8 6.5 14.5t14.5 6.5q9 0 16 -9q36 -43 65.5 -102
t51.5 -124t34 -130t12 -121z" />
    <glyph glyph-name="asterisk" unicode="*" horiz-adv-x="474" 
d="M387 510q0 -8 -6.5 -14t-14.5 -6q-4 0 -19.5 7.5t-33.5 17t-34.5 18.5t-22.5 12v-110q0 -8 -6.5 -14t-14.5 -6t-14 6t-6 14v106q-6 -3 -22 -12t-33.5 -18.5t-32.5 -17t-20 -7.5q-8 0 -14 6t-6 14q0 12 9 16l99 55l-99 52q-10 5 -10 17q0 8 6.5 14t14.5 6q5 0 20 -7.5
t32.5 -17t33.5 -18.5t22 -12v106q0 8 6 14t14 6t14.5 -6t6.5 -14v-106q6 3 22 12t33.5 18.5t33 17t19.5 7.5q8 0 14.5 -5.5t6.5 -13.5q0 -11 -11 -17l-96 -53l98 -51q11 -5 11 -16z" />
    <glyph glyph-name="plus" unicode="+" horiz-adv-x="869" 
d="M653 349q0 -8 -6.5 -14t-14.5 -6h-177v-169q0 -8 -6.5 -14t-14.5 -6t-14 6t-6 14v169h-177q-8 0 -13.5 6t-5.5 14t5.5 14t13.5 6h177v171q0 8 6 14t14 6t14.5 -6t6.5 -14v-171h177q8 0 14.5 -6t6.5 -14z" />
    <glyph glyph-name="comma" unicode="," horiz-adv-x="129" 
d="M83 57q0 -34 -9.5 -71t-29 -68t-49 -51t-68.5 -20q-8 0 -14 5.5t-6 13.5t6 13.5t14 5.5q20 0 36.5 9.5t30 24t23 32.5t14.5 35q11 36 11 71q0 8 6 13.5t14 5.5t14.5 -5.5t6.5 -13.5z" />
    <glyph glyph-name="hyphen" unicode="-" horiz-adv-x="474" 
d="M391 172q0 -8 -7.5 -10.5t-13.5 -2.5h-267q-6 0 -13 2.5t-7 10.5t7 10.5t13 2.5h267q6 0 13.5 -2.5t7.5 -10.5z" />
    <glyph glyph-name="period" unicode="." horiz-adv-x="138" 
d="M115 32q0 -17 -14.5 -27.5t-30.5 -10.5t-31 10t-15 28t15 28t31 10t30.5 -10.5t14.5 -27.5z" />
    <glyph glyph-name="slash" unicode="/" horiz-adv-x="474" 
d="M347 753q0 -1 -0.5 -2t-0.5 -2l-179 -747q-3 -15 -19 -15q-8 0 -14.5 6t-6.5 14v4l179 748q2 7 7.5 11t12.5 4q9 0 15 -6.5t6 -14.5z" />
    <glyph glyph-name="zero" unicode="0" 
d="M599 382q0 -77 -23 -154q-14 -46 -38.5 -90t-59 -78.5t-78.5 -55.5t-96 -21q-74 0 -129 38.5t-92 97.5t-55 129.5t-18 133.5q0 83 26 164q15 45 39.5 87t59 74.5t77 52t93.5 19.5t93.5 -19.5t76.5 -52t58.5 -74.5t39.5 -87q26 -81 26 -164zM558 382q0 79 -24 152
q-12 38 -33 74.5t-50 65.5t-65.5 47t-80.5 18q-43 0 -80 -18t-66 -47t-50 -65.5t-34 -74.5q-24 -73 -24 -152q0 -54 15.5 -117t46.5 -116.5t79 -89.5t112 -36q45 0 82.5 19.5t67 50t50.5 69.5t33 78q21 69 21 142z" />
    <glyph glyph-name="one" unicode="1" 
d="M426 7q0 -9 -6.5 -14.5t-14.5 -5.5t-14 5.5t-6 14.5l-2 675q-6 -7 -19.5 -24.5t-31 -39.5t-37 -45t-37.5 -42t-32.5 -31.5t-21.5 -12.5q-8 0 -14 6.5t-6 14.5t6 14q9 10 18.5 19.5t18.5 19.5q40 42 76 85q22 27 41.5 55.5t42.5 54.5q8 10 18 10q9 0 14 -7t5 -15z" />
    <glyph glyph-name="two" unicode="2" 
d="M561 7q0 -9 -6.5 -14.5t-14.5 -5.5h-453q-8 0 -14.5 6t-6.5 14q0 62 31.5 115.5t79.5 101.5t103 92.5t103 88.5t79.5 89.5t31.5 96.5q0 36 -16.5 64t-42.5 48t-59 30.5t-65 10.5q-48 0 -88.5 -19.5t-70.5 -52.5t-46.5 -75.5t-16.5 -89.5q0 -9 -6.5 -14.5t-14.5 -5.5
t-14 5.5t-6 14.5q0 55 20 105t55.5 88.5t83.5 61t104 22.5q41 0 81 -13.5t72 -38.5t51.5 -61t19.5 -80q0 -56 -30 -104.5t-75 -93t-98.5 -87t-101 -86.5t-81.5 -91.5t-41 -101.5h432q8 0 14.5 -5.5t6.5 -14.5z" />
    <glyph glyph-name="three" unicode="3" 
d="M571 248q0 -54 -23 -102.5t-61 -84.5t-87.5 -57t-103.5 -21q-48 0 -94.5 16t-82.5 45.5t-58 71t-22 93.5q0 9 6 14.5t14 5.5t14.5 -5.5t6.5 -14.5q0 -43 19 -77.5t49.5 -58.5t69 -36.5t78.5 -12.5q45 0 87 17.5t75 48t52.5 71.5t19.5 87q0 42 -17.5 78.5t-50.5 62.5
q-25 -18 -54.5 -27t-60.5 -9q-12 0 -27 4t-29 12t-23.5 19t-9.5 25q0 16 8.5 26.5t21 17t27 9.5t27.5 3q30 0 60 -7t57 -22q26 26 39.5 60.5t13.5 71.5q0 38 -19.5 68.5t-49.5 52.5t-66.5 34t-70.5 12q-29 0 -58.5 -7.5t-55.5 -22t-48 -35t-37 -46.5q-5 -9 -11 -21t-19 -12
q-8 0 -14 6t-6 14q0 6 1 9q17 36 43 64.5t58.5 48.5t70 31t76.5 11q42 0 86 -15t80 -42t58.5 -65t22.5 -85q0 -43 -15.5 -83t-44.5 -72q38 -32 58 -76t20 -93zM422 413q-19 8 -39.5 12t-40.5 4q-4 0 -11 -0.5t-14 -2t-12.5 -4.5t-5.5 -9q0 -4 6 -7.5t14.5 -6t16.5 -4
t11 -1.5q39 0 75 19z" />
    <glyph glyph-name="four" unicode="4" 
d="M567 260q0 -10 -7.5 -15t-18 -6.5t-21 -1t-17.5 0.5q-31 0 -61 0.5t-61 1.5v-233q0 -9 -6.5 -14.5t-14.5 -5.5t-14 5.5t-6 14.5v233q-40 2 -80 3t-80 1q-29 0 -58 -2t-58 -2q-9 0 -15.5 4.5t-6.5 14.5q0 6 3 12l289 492q7 10 17 10q8 0 15 -5.5t7 -14.5q0 -5 -4 -11
l-270 -459q19 1 37 1h37q85 0 167 -3v107q0 9 6 14.5t14 5.5t14.5 -5.5t6.5 -14.5v-108q23 -1 45 -1.5t45 -0.5q19 0 37 1t37 1q9 0 15.5 -5t6.5 -15z" />
    <glyph glyph-name="five" unicode="5" 
d="M585 261q0 -56 -22 -105.5t-59.5 -87t-87.5 -59.5t-106 -22q-53 0 -99.5 20t-81.5 54t-55.5 79.5t-20.5 96.5q0 9 6 14.5t14 5.5t15 -5.5t7 -14.5q0 -44 17 -81.5t46.5 -66t68.5 -44.5t83 -16q48 0 90.5 18t74 49.5t50 74t18.5 90.5q0 46 -21 83t-54.5 63.5t-75.5 40.5
t-85 14q-33 0 -57.5 -2t-45.5 -8.5t-41.5 -19.5t-45.5 -35q-5 -3 -8.5 -5t-7.5 -2q-10 0 -15.5 7t-4.5 15l1 4q3 45 8 86.5t5 86.5q0 39 -8.5 78.5t-8.5 78.5q0 14 4 29t20 15q33 0 67.5 -1t68.5 -1q67 0 133.5 1t135.5 1q8 0 14 -5t6 -14t-6 -15t-14 -6q-70 0 -139 -1.5
t-138 -1.5h-54h-26t-27 1q4 -39 8.5 -78t4.5 -81q0 -62 -6 -126q42 26 85.5 33.5t91.5 7.5q51 0 101 -17.5t89.5 -49.5t63.5 -76.5t24 -99.5z" />
    <glyph glyph-name="six" unicode="6" 
d="M557 210q0 -50 -21 -92t-56 -72t-79.5 -47t-92.5 -17q-44 0 -84 13.5t-72 39t-54.5 61t-31.5 79.5q-7 31 -10 63t-3 64q0 42 10.5 93.5t30 104.5t47.5 103t64 89.5t79.5 63t93.5 23.5q9 0 15 -5.5t6 -14.5q0 -10 -6 -14t-14 -6l-39 -6.5t-38 -14.5q-41 -21 -76.5 -64.5
t-62.5 -96t-44.5 -107t-23.5 -98.5q-2 -11 -2.5 -23t-1.5 -23q2 6 4 13t5 12q14 27 37.5 48t51.5 35.5t58.5 22t60.5 7.5q49 0 94 -17.5t79.5 -49t55 -74.5t20.5 -93zM516 210q0 42 -17.5 77.5t-46 61.5t-66 40.5t-78.5 14.5q-39 0 -76 -14.5t-65.5 -40t-45.5 -60.5t-17 -76
q0 -42 16.5 -77t45 -60.5t65.5 -39.5t77 -14q39 0 76.5 14t66.5 39t47 59.5t18 75.5z" />
    <glyph glyph-name="seven" unicode="7" 
d="M605 757q0 -6 -5 -13l-222 -332q8 0 14.5 -0.5t14.5 -0.5q35 0 71 3q9 1 17.5 2t17.5 1t16 -5t7 -15q0 -8 -5 -13t-13 -7q-16 -4 -37.5 -5.5t-45.5 -1.5q-23 0 -45 1t-39 1l-253 -376q-6 -9 -17 -9q-8 0 -14 6t-6 14q0 7 3 11l239 356q-31 2 -61.5 3t-61.5 1
q-14 0 -27 -0.5t-27 -0.5q-9 0 -15 5t-6 15q0 15 13 18t24 3q48 0 94 -1.5t93 -3.5l214 319q-49 -3 -98 -3q-81 0 -162.5 4t-162.5 4q-23 0 -47 -1t-47 -1q-9 0 -15 5.5t-6 14.5q0 10 8 15t18.5 6.5t21.5 1t18 -0.5q94 0 186 -4t186 -4q35 0 70.5 3t70.5 3q8 0 14.5 -5
t6.5 -13z" />
    <glyph glyph-name="eight" unicode="8" 
d="M567 207q0 -51 -23 -91.5t-59.5 -69t-83 -44t-93.5 -15.5q-44 0 -91 13.5t-86 39.5t-64 64.5t-25 89.5q0 36 11.5 70t32 62.5t49 49.5t63.5 32q-51 24 -82.5 70.5t-31.5 103.5q0 44 18.5 79.5t48.5 61.5t69 40t80 14q42 0 81.5 -14.5t70 -40.5t49 -63t18.5 -81
q0 -59 -34.5 -101.5t-85.5 -67.5q34 -12 64.5 -30.5t53.5 -44t36.5 -57.5t13.5 -70zM478 578q0 36 -15.5 65t-40.5 50t-57 32.5t-65 11.5t-64 -11t-56 -31.5t-40 -49t-15 -63.5q0 -34 13.5 -62t36.5 -48.5t53 -32t62 -11.5q9 0 18 -1t18 -1q2 0 7.5 1.5t11.5 3.5t11.5 4
t7.5 3q23 9 43.5 22.5t36 31t25 39t9.5 47.5zM526 207q0 33 -12.5 60t-33.5 48t-48 35.5t-56 23.5q-7 2 -24.5 6t-24.5 4q-5 0 -8 -1t-8 -2q-12 -2 -24.5 -2.5t-24.5 -0.5q-38 0 -70.5 -14.5t-56.5 -40t-38 -58.5t-14 -71q0 -42 22 -73t55 -52t72.5 -31.5t75.5 -10.5
q38 0 77 12t70.5 35.5t51 57t19.5 75.5z" />
    <glyph glyph-name="nine" unicode="9" 
d="M558 432q0 -44 -11 -94.5t-31.5 -100t-50.5 -95t-67.5 -80t-82 -55t-95.5 -20.5q-9 0 -15 5.5t-6 14.5q0 17 19 20q23 4 40.5 6t40.5 12q53 23 93.5 69.5t68.5 104t43 119.5t16 116q-2 -5 -3 -9.5t-3 -8.5q-15 -30 -39 -53t-52.5 -38.5t-60.5 -24t-65 -8.5
q-49 0 -93.5 17.5t-78.5 48.5t-54 74t-20 93t20.5 92t55 73t78.5 48.5t92 17.5q50 0 94.5 -16.5t79.5 -51.5q27 -27 43.5 -60t26.5 -69t13.5 -73.5t3.5 -73.5zM505 542q0 42 -17.5 77.5t-46.5 61.5t-66.5 40.5t-77.5 14.5q-39 0 -76 -14.5t-65.5 -40t-46 -60.5t-17.5 -76
q0 -42 17 -77t45.5 -61t65.5 -40.5t77 -14.5q39 0 76.5 14t67 39.5t47 60.5t17.5 76z" />
    <glyph glyph-name="colon" unicode=":" horiz-adv-x="296" 
d="M174 236q0 -18 -14 -30.5t-32 -12.5t-31.5 12.5t-13.5 30.5t13.5 31t31.5 13t32 -13t14 -31zM174 37q0 -18 -14 -30.5t-32 -12.5t-31.5 12.5t-13.5 30.5t13.5 30.5t31.5 12.5t32 -12.5t14 -30.5z" />
    <glyph glyph-name="semicolon" unicode=";" horiz-adv-x="123" 
d="M102 235q0 -18 -13.5 -31t-31.5 -13t-32 12.5t-14 31.5t14 32t32 13t31.5 -13.5t13.5 -31.5zM83 63q0 -34 -9.5 -72t-29 -70t-48.5 -53t-69 -21q-8 0 -14 6t-6 14t6 14t14 6q20 0 37 9.5t30 24.5t22.5 33.5t14.5 35.5q11 38 11 73q0 8 6 14t14 6t14.5 -6t6.5 -14z" />
    <glyph glyph-name="less" unicode="&#x3c;" horiz-adv-x="473" 
d="M285 161q0 -8 -7 -14t-15 -6q-9 0 -16 9l-145 189q-2 2 -2.5 5.5t-0.5 6.5t0.5 6.5t2.5 5.5l145 189q6 8 16 8q8 0 15 -6t7 -14q0 -3 -1.5 -6t-3.5 -5l-137 -178l137 -177q5 -7 5 -13z" />
    <glyph glyph-name="equal" unicode="=" horiz-adv-x="869" 
d="M653 400q0 -8 -6.5 -13t-14.5 -5h-395q-19 0 -19 18q0 19 19 19h395q8 0 14.5 -5.5t6.5 -13.5zM653 294q0 -8 -6.5 -13.5t-14.5 -5.5h-394q-8 0 -14 5.5t-6 13.5t6 13t14 5h394q8 0 14.5 -5t6.5 -13z" />
    <glyph glyph-name="greater" unicode="&#x3e;" horiz-adv-x="473" 
d="M376 354q0 -5 -4 -11l-146 -190q-6 -8 -16 -8q-8 0 -14.5 6t-6.5 14t4 12l137 177l-137 178q-4 4 -4 12t6.5 14t14.5 6q10 0 16 -8l146 -190q4 -4 4 -12z" />
    <glyph glyph-name="question" unicode="?" horiz-adv-x="533" 
d="M470 580q0 -41 -14 -70.5t-36 -51.5t-48.5 -39.5t-51.5 -33.5t-45.5 -34t-29.5 -42q-12 -33 -12 -69q0 -19 6.5 -36.5t6.5 -36.5q0 -10 -7.5 -16.5t-16.5 -6.5q-10 0 -15 7t-5 16q0 19 -5 36.5t-5 36.5q0 45 10.5 73.5t29.5 50t46 39.5t59 41q18 13 34.5 26.5t29.5 30
t20.5 36t7.5 43.5q0 39 -18 68t-46.5 47.5t-64 28t-69.5 9.5t-69 -9.5t-63 -28t-46 -47.5t-18 -68q0 -8 -6.5 -14t-14.5 -6t-14 6t-6 14q0 48 21 84t55 60.5t76 36.5t85 12t85.5 -12t76.5 -36.5t55.5 -60.5t21.5 -84zM281 39q0 -18 -13.5 -31.5t-31.5 -13.5t-32 13t-14 32
t14 31.5t32 12.5t31.5 -13t13.5 -31z" />
    <glyph glyph-name="at" unicode="@" horiz-adv-x="766" 
d="M718 400q0 -29 -9 -59t-26.5 -54t-43 -39.5t-58.5 -15.5q-29 0 -52.5 14.5t-31.5 43.5q-22 -27 -53 -42.5t-66 -15.5q-33 0 -62 13.5t-50 36t-33 52t-12 62.5t12 62.5t33 52t50 36t62 13.5q34 0 64.5 -14t52.5 -40q0 6 -0.5 15t1 17t5.5 13.5t14 5.5q8 0 14.5 -6t6.5 -14
v-223q0 -21 12.5 -31.5t32.5 -10.5q24 0 41.5 12.5t29.5 31.5t18 41.5t6 42.5q0 60 -23.5 112t-63.5 91t-93.5 61t-112.5 22t-112 -22t-93 -61t-63.5 -91t-23.5 -112t23.5 -112.5t63 -91t92.5 -61t113 -22.5q8 0 14.5 -6t6.5 -14t-6.5 -14t-14.5 -6q-68 0 -128.5 25.5
t-106 69.5t-72 103.5t-26.5 128.5t26.5 128.5t72 103.5t106 69t128.5 25t129 -25t106.5 -69t72.5 -103.5t27 -128.5zM495 396q0 24 -9 46.5t-24.5 40t-37 27.5t-46.5 10t-46.5 -10t-37 -27.5t-24 -40t-8.5 -46.5t8.5 -46.5t24 -40t37 -27.5t46.5 -10t46.5 10t37 27.5
t24.5 40t9 46.5z" />
    <glyph glyph-name="A" unicode="A" horiz-adv-x="733" 
d="M701 188q0 -42 -13 -78.5t-36 -64t-54.5 -44t-67.5 -16.5q-55 0 -86.5 34t-47 83.5t-19 107t-3.5 103.5q0 34 1.5 67.5t3.5 66.5q-25 7 -49 15.5t-50 14.5q0 -45 0.5 -98.5t-3 -108.5t-14.5 -106t-33.5 -91t-59.5 -64t-94 -24q-15 0 -31.5 4.5t-31 14t-24 23.5t-9.5 35
q0 27 18 46.5t42 19.5q9 0 15 -6t6 -17q0 -12 -6 -16.5t-13.5 -7t-14 -6t-6.5 -13.5q0 -9 6.5 -15.5t15 -10t18 -4.5t15.5 -1q58 0 91 33t49 82.5t19.5 107t3.5 106.5v123q-2 0 -5 0.5t-6 0.5q-12 0 -23 -4.5t-19.5 -10t-15 -10t-10.5 -4.5q-8 0 -14 7t-6 16q0 10 7 18
q19 20 43 28t49 6q0 43 2 85t2 85q0 28 4.5 62.5t16.5 65t32 51.5t51 21t48.5 -22t26 -54t10.5 -67.5t2 -60.5q0 -54 -4 -106t-8 -105q7 -1 14 -1.5t14 -0.5q13 0 23.5 6.5t18.5 14t15 14.5t14 7q8 0 14.5 -7.5t6.5 -16.5q0 -8 -7 -16q-17 -19 -39 -33.5t-46 -14.5
q-8 0 -15.5 0.5t-15.5 1.5q-2 -33 -3.5 -66.5t-1.5 -67.5t2 -81.5t13 -90.5t34.5 -72.5t66.5 -29.5q28 0 51.5 13t41 34.5t27.5 50t10 59.5q0 21 -13 40t-33 19q-14 0 -19 -8t-7 -17t-5.5 -17t-15.5 -8q-8 0 -14 6t-6 17q0 32 20 52.5t47 20.5q19 0 35 -8.5t27.5 -23.5
t18 -34t6.5 -39zM393 701q0 14 -0.5 39t-5 50.5t-14 44t-26.5 18.5q-20 0 -32.5 -17.5t-19 -42t-9 -50.5t-2.5 -43q0 -43 -2 -88t-2 -88q26 -6 51 -14.5t51 -15.5q4 52 7.5 103.5t3.5 103.5z" />
    <glyph glyph-name="B" unicode="B" horiz-adv-x="750" 
d="M702 249q0 -56 -17 -104t-47.5 -83.5t-72.5 -56t-91 -20.5q-33 0 -60 14.5t-46.5 39.5t-30.5 57.5t-11 68.5q0 26 8.5 49.5t23.5 40.5t35.5 27.5t43.5 10.5q9 0 15 -6.5t6 -16.5t-6 -16.5t-15 -6.5q-30 0 -50 -24t-20 -58q0 -27 7.5 -51.5t22 -42.5t34 -29t43.5 -11
q41 0 75.5 17t59 46.5t38.5 69.5t14 85q0 35 -10 65.5t-27.5 57t-40.5 47.5t-49 35q-20 -23 -54.5 -36.5t-62.5 -13.5q-10 0 -23 4.5t-24 13t-19 20t-8 25.5q0 13 8 24.5t19 19.5t24 13t23 5q26 0 53 -5.5t53 -14.5q48 65 48 148q0 23 -6 44.5t-17 40.5q-18 34 -45.5 55.5
t-60 34.5t-66.5 19t-66 6q-62 0 -118 -22q-32 -11 -62.5 -32.5t-54.5 -49.5t-39 -64t-15 -77q0 -17 8.5 -34t21.5 -30t28.5 -21t30.5 -8q18 0 32 11t23 27t14 36t5 37q0 11 6 17t14 6q9 0 15 -6t6 -17q0 -27 -8 -55t-22.5 -50.5t-36 -36.5t-48.5 -14q-23 0 -46.5 11t-42 30
t-30 44.5t-11.5 52.5q0 72 31 126.5t79.5 91t107 55t112.5 18.5q49 0 102 -13.5t97.5 -43t73.5 -76t29 -113.5q0 -46 -12 -88.5t-37 -78.5q61 -37 100 -98t39 -143zM374 817q0 -10 -6.5 -16.5t-14.5 -6.5q-9 0 -15.5 -19t-10.5 -48t-6.5 -64.5t-3.5 -68t-1 -59.5v-36
q0 -44 1 -87.5t1 -86.5q0 -60 -7.5 -120.5t-29 -109t-61 -79.5t-104.5 -31q-15 0 -31.5 4.5t-31 14t-24 23.5t-9.5 35q0 27 18 49.5t42 22.5q9 0 15 -7t6 -17q0 -12 -6 -16.5t-13.5 -6.5t-14 -6.5t-6.5 -18.5q0 -9 6.5 -15.5t15 -10t18 -4.5t15.5 -1q54 0 86 28t48.5 71
t21 95t4.5 100q0 51 -1.5 102.5t-1.5 103.5q0 16 0.5 45t2.5 63.5t7 70t14 64.5t22.5 47.5t33.5 18.5q8 0 14.5 -6.5t6.5 -16.5zM488 474q-17 2 -35 5.5t-36 3.5q-5 0 -17 -4t-12 -12t12 -12.5t17 -4.5q20 0 37 5.5t34 18.5z" />
    <glyph glyph-name="C" unicode="C" horiz-adv-x="540" 
d="M508 180q0 -45 -17.5 -81t-45 -61t-63 -39t-71.5 -14q-60 0 -107.5 30.5t-80.5 79.5t-50.5 111t-17.5 125q0 43 3 85.5t11 84.5q-45 30 -67 82t-22 109q0 48 18.5 87t48.5 67t68 43t77 15q8 0 14.5 -6.5t6.5 -16.5t-6.5 -16.5t-14.5 -6.5q-31 0 -61.5 -11.5t-55 -33
t-39.5 -52.5t-15 -69q0 -40 14 -78.5t43 -63.5q14 61 40 123.5t63.5 114t87 84t111.5 32.5q22 0 39.5 -10.5t30 -27.5t19 -39.5t6.5 -45.5q0 -71 -28.5 -128t-74 -96.5t-102 -60.5t-113.5 -21q-28 0 -50 8q-6 -38 -8.5 -76.5t-2.5 -75.5q0 -53 14.5 -106t42 -96t67.5 -70.5
t91 -27.5q28 0 55.5 10t50 29t36.5 47t14 63q0 25 -14.5 46t-37.5 21q-18 0 -24.5 -7t-9.5 -15.5t-6.5 -15.5t-14.5 -7q-8 0 -14 7t-6 18q0 16 7 28.5t18 21t24 12.5t26 4q20 0 37 -10t29.5 -25t19.5 -36t7 -42zM434 781q0 13 -3.5 26.5t-10.5 25t-17 18.5t-23 7
q-54 0 -98 -32t-77 -80.5t-55 -107t-34 -111.5q20 -6 41 -6q48 0 97.5 17.5t89 51t65 82.5t25.5 109z" />
    <glyph glyph-name="D" unicode="D" horiz-adv-x="696" 
d="M660 477q0 -81 -15 -168t-50 -159t-93 -118.5t-144 -46.5q-42 0 -79.5 11t-75.5 30q-28 -21 -60.5 -31t-66.5 -10q-13 0 -30 3.5t-31.5 12t-24.5 21.5t-10 33q0 19 10 32.5t24.5 22t31.5 12.5t30 4q33 0 63 -15t59 -31q22 23 36.5 51.5t23.5 61t12.5 66.5t3.5 66
q0 55 -2 110t-2 110q0 14 0.5 42t2.5 61.5t7 67t14 61t22.5 45.5t32.5 18q8 0 14.5 -6.5t6.5 -16.5t-6.5 -16.5t-14.5 -6.5q-9 0 -15 -17t-10 -43.5t-6 -58t-3.5 -61t-1.5 -53.5v-34q0 -51 1.5 -101t1.5 -101q0 -71 -17.5 -142t-61.5 -124q59 -28 121 -28q51 0 89.5 20
t67.5 53.5t49 79t32 94.5t17.5 100.5t5.5 98.5q0 78 -27 147t-73.5 122t-107 83t-128.5 30q-45 0 -91.5 -17.5t-84.5 -50.5t-62 -79t-24 -102q0 -24 6 -50.5t18 -49.5t30.5 -37.5t42.5 -14.5q27 0 45 19t28.5 46.5t14.5 59t4 55.5q0 11 6 17t14 6t14.5 -6t6.5 -17
q0 -35 -6.5 -74.5t-22 -73.5t-41 -56t-63.5 -22q-33 0 -59 18t-43.5 47t-26.5 63.5t-9 69.5q0 66 27.5 120.5t71 93.5t97.5 60t107 21q76 0 144.5 -34t120 -92t82 -136t30.5 -166zM159 50q-20 11 -40.5 19.5t-42.5 8.5q-5 0 -14 -0.5t-18 -3t-15.5 -7t-6.5 -12.5t6.5 -12.5
t15.5 -7t18 -3.5t14 -1q21 0 42 4.5t41 14.5z" />
    <glyph glyph-name="E" unicode="E" horiz-adv-x="521" 
d="M494 188q0 -43 -17 -80t-45 -64.5t-62.5 -43t-70.5 -15.5q-59 0 -107 29t-81.5 77.5t-52 109t-18.5 123.5q0 79 34.5 144.5t97.5 101.5q-7 11 -13 22.5t-10 24.5q-24 2 -53.5 10.5t-55 24.5t-43 40.5t-17.5 59.5q0 34 21 62t51 47.5t63.5 30.5t58.5 11q8 0 14.5 -6.5
t6.5 -16.5q0 -11 -6.5 -17t-14.5 -6q-16 0 -42 -8t-50.5 -22.5t-42.5 -33.5t-18 -41q0 -23 13 -38.5t32 -26t39.5 -15.5t35.5 -7q-1 5 -0.5 11.5t0.5 12.5q0 43 20.5 82t52 68t70 46.5t73.5 17.5q43 0 70 -26.5t27 -77.5q0 -50 -28 -83.5t-68.5 -55t-85.5 -31.5t-78 -12
q3 -8 6 -15t8 -13q21 8 43 12.5t44 4.5q10 0 23 -2.5t25 -9t20 -17t8 -23.5q0 -16 -7.5 -28t-18.5 -20t-24.5 -12t-25.5 -4q-26 0 -50.5 12t-44.5 31q-55 -28 -87 -84.5t-32 -124.5q0 -53 15 -105.5t43.5 -94.5t69 -67.5t90.5 -25.5q27 0 54.5 12t49.5 33.5t36 50.5t14 61
q0 21 -13 40t-33 19q-22 0 -30 -7t-11 -15t-5 -14.5t-13 -6.5t-17.5 10t-6.5 22q0 13 9.5 24t22.5 18.5t27 11t24 3.5q18 0 34 -8.5t28 -23.5t18.5 -34t6.5 -39zM413 799q0 30 -15 44t-41 14q-24 0 -47.5 -8.5t-44.5 -24t-38.5 -35.5t-29.5 -44q-6 -13 -10.5 -26.5
t-4.5 -29.5v-14q0 -6 1 -13q24 2 63 9t76 23t64 41.5t27 63.5zM325 551q0 3 -4 4.5t-9 2.5t-10 1h-6q-12 0 -24 -2l-24 -4q8 -10 22.5 -13t25.5 -3q5 0 17 2.5t12 11.5z" />
    <glyph glyph-name="F" unicode="F" horiz-adv-x="367" 
d="M563 850q0 -10 -6.5 -16.5t-14.5 -6.5q-30 0 -59.5 5t-58.5 11t-58.5 11t-59.5 5q-38 0 -87.5 -15.5t-93.5 -44.5t-74 -70t-30 -94q0 -22 6 -43t17.5 -37.5t28 -26.5t37.5 -10q25 0 40.5 18t24 43.5t11.5 53.5t3 50q0 10 6 16.5t14 6.5t14.5 -6.5t6.5 -16.5q0 -32 -5 -69
t-18.5 -68.5t-37 -52.5t-59.5 -21q-30 0 -54 13.5t-41 35.5t-26 52t-9 62q0 64 33 114t82.5 84.5t106.5 53t104 18.5q30 0 59.5 -4.5t58.5 -11t58.5 -11t59.5 -4.5q8 0 14.5 -7t6.5 -17zM492 508q0 -12 -8.5 -18.5t-20.5 -11t-24 -6.5t-19 -2q-14 0 -23 5q-17 -19 -38 -31.5
t-44 -20.5q1 -25 1.5 -49t0.5 -49q0 -56 -7.5 -116.5t-29 -111t-60 -82.5t-100.5 -32q-15 0 -32 4t-31 13.5t-23.5 24t-9.5 34.5q0 28 18.5 47t41.5 19q8 0 14.5 -6.5t6.5 -16.5q0 -12 -6 -16.5t-13.5 -7t-14 -5.5t-6.5 -14q0 -9 6.5 -15t15 -9.5t18 -4.5t15.5 -1
q52 0 82.5 29t47 73t21.5 96t5 98q0 23 -0.5 44t-0.5 44q-10 -2 -20 -2.5t-21 -0.5q-5 0 -15 2t-19.5 6t-16.5 10t-7 14q0 9 6 16.5t14 7.5q10 0 19 -5.5t19 -5.5q22 0 39 5v54q0 35 1.5 77t5.5 86t12 79.5t22 58t34 22.5q8 0 14.5 -6t6.5 -16q0 -11 -6.5 -17t-14.5 -6
q-9 0 -15 -17t-9.5 -42.5t-5.5 -56.5t-3 -59t-1 -51v-29l1 -65q29 12 49 31q-9 13 -13.5 30t-4.5 33q0 14 2.5 31.5t9 34t17 27.5t25.5 11q23 0 36.5 -21t13.5 -45q0 -46 -22 -87q11 2 22 8.5t21 6.5q9 0 15 -7t6 -17zM409 599q0 4 -0.5 14t-5.5 10q-6 0 -9 -7t-4.5 -16.5
t-2 -19t-0.5 -13.5q0 -6 1 -13.5t4 -13.5q8 13 12.5 28t4.5 31z" />
    <glyph glyph-name="G" unicode="G" horiz-adv-x="618" 
d="M629 176q0 -4 -4 -11q-31 -58 -72.5 -105.5t-96.5 -92.5l4 -112t2 -113q0 -53 -3 -113.5t-17.5 -112.5t-44 -85.5t-82.5 -33.5q-34 0 -62 20t-48 52.5t-31.5 73.5t-11.5 83q0 79 23.5 133t59.5 94.5t87.5 76.5t77.5 66l9 54q-19 -32 -49 -51t-64 -19q-59 0 -105.5 31
t-79 80.5t-50 111t-17.5 124.5q0 43 3 85.5t11 85.5q-43 29 -65.5 81.5t-22.5 109.5q0 48 18.5 87.5t48 67.5t67 42.5t75.5 14.5q8 0 14.5 -6t6.5 -17q0 -10 -6.5 -16t-14.5 -6q-31 0 -61 -11.5t-54 -33.5t-38.5 -52.5t-14.5 -69.5q0 -40 13.5 -78.5t42.5 -63.5
q14 60 39 122.5t62 114t86 84.5t110 33q22 0 39 -10.5t29.5 -28t18.5 -39.5t6 -45q0 -71 -28 -128t-72 -96.5t-100 -61t-113 -21.5q-12 0 -24.5 1.5t-24.5 5.5q-6 -37 -8.5 -75t-2.5 -76q0 -53 14.5 -106t41.5 -96t66.5 -70.5t89.5 -27.5q26 0 45.5 13.5t33.5 34.5t21 48
t7 53q0 22 -0.5 43.5t-0.5 43.5q0 10 6 17t14 7t14.5 -7t6.5 -17q0 -60 2.5 -118.5t5.5 -117.5q29 26 56 56t50 65q7 10 12 21.5t12 20.5q7 10 17 10q8 0 14.5 -7.5t6.5 -16.5zM427 778q0 13 -3.5 26.5t-10.5 25t-16.5 19t-22.5 7.5q-54 0 -97 -32.5t-75.5 -81.5t-54 -107.5
t-33.5 -110.5q20 -7 40 -7q48 0 96.5 17.5t88 51.5t64 82t24.5 110zM418 -290q0 56 -1.5 110.5t-3.5 109.5l-68 -57q-28 -22 -53.5 -45.5t-44.5 -51.5t-30.5 -64.5t-11.5 -85.5q0 -31 8.5 -61t22.5 -55t34.5 -40t44.5 -15q38 0 58.5 26.5t30.5 64.5t12 83t2 81z" />
    <glyph glyph-name="H" unicode="H" horiz-adv-x="811" 
d="M705 759q0 10 -2 26t-6.5 30.5t-13 25t-20.5 10.5q-31 0 -56 -16.5t-44.5 -44t-34 -62.5t-25 -71.5t-17.5 -71.5t-11 -62q34 14 74 34.5t74.5 49t58 66.5t23.5 86zM431 840q0 5 -4.5 8t-11 4.5t-12.5 2t-9 0.5q-12 0 -22 -7t-18 -17q22 -6 40 -6h9t12.5 1.5t11 4.5t4.5 9
zM30 143q0 -11 2 -27t7 -30.5t13.5 -25.5t21.5 -11q32 0 57.5 17t45.5 45t35 64t26 73.5t18 73t12 63.5q-36 -15 -77 -35.5t-76.5 -50t-60 -68.5t-24.5 -88zM316 407q-5 -39 -13.5 -83.5t-21.5 -89.5t-32 -86.5t-44 -73.5t-57.5 -52t-73.5 -21q-24 0 -40 14.5t-26.5 36
t-15 46t-4.5 45.5q0 63 28 110t70 81.5t92 59.5t95 42l1 195q0 45 4 88.5t17 85.5q-11 5 -27 13.5t-33 17t-33 14.5t-27 6q-24 0 -51 -8t-50 -23.5t-38 -39.5t-15 -56q0 -16 5 -32t14 -29t21.5 -21t27.5 -8q23 0 43 16t20 45q0 10 6 16t14 6t14.5 -6t6.5 -16q0 -24 -9 -44
t-23.5 -33.5t-33.5 -21t-38 -7.5q-24 0 -44 11t-34.5 30t-22.5 43.5t-8 50.5q0 43 18.5 75t47 53.5t63 32.5t66.5 11q15 0 33 -6t36.5 -14.5t36 -17.5t32.5 -16q14 25 34.5 39t46.5 14q12 0 25.5 -3t25.5 -10t20 -18.5t8 -28.5q0 -16 -8 -27.5t-19.5 -19t-25.5 -11t-26 -3.5
q-28 0 -59 11q-11 -37 -15.5 -78.5t-4.5 -80.5v-175q9 4 18 7.5t18 8.5q-1 7 -1 14v14v30q0 12 4 26t18 14q9 0 15 -7t6 -17q0 -15 -0.5 -29.5t-0.5 -28.5l39 17q4 35 11.5 78t20 86.5t30.5 85t42.5 73t56 51t71.5 19.5q22 0 38 -14t26 -35t14.5 -45t4.5 -45q0 -61 -27 -107
t-68 -80t-89.5 -58t-91.5 -41q-1 -13 -1.5 -25.5t-0.5 -24.5q0 -24 3 -62t10 -81.5t18.5 -87.5t27.5 -79.5t37.5 -58t48.5 -22.5q28 0 51 13t39.5 34.5t25.5 49.5t9 59q0 21 -12.5 40t-32.5 19q-15 0 -20 -8t-7 -17t-5.5 -17t-15.5 -8q-8 0 -14 6t-6 17q0 32 21 52.5
t47 20.5q19 0 34.5 -9t27 -23.5t18 -33.5t6.5 -39q0 -40 -12 -76.5t-34 -64.5t-52.5 -44.5t-67.5 -16.5q-36 0 -64 24t-48.5 62t-34.5 86t-22.5 96.5t-12.5 93t-4 75.5v17v8t1 8q-8 -4 -17 -8t-17 -7v-88q0 -10 -6 -17.5t-15 -7.5q-14 0 -17.5 13t-3.5 27v17q0 9 0.5 19.5
t0.5 19.5q-9 -5 -18.5 -8.5t-18.5 -8.5z" />
    <glyph glyph-name="I" unicode="I" horiz-adv-x="380" 
d="M473 839q0 -16 -8 -27.5t-19.5 -19t-25.5 -10.5t-26 -3q-30 0 -59 10q-11 -37 -15.5 -78.5t-4.5 -80.5q0 -86 1 -172t1 -173q0 -55 -9 -108.5t-30.5 -96t-58.5 -69t-94 -26.5q-15 0 -31.5 4.5t-31 14t-24 23.5t-9.5 35q0 27 18 46.5t42 19.5q9 0 15 -6.5t6 -16.5
q0 -13 -6 -17.5t-13.5 -6.5t-13.5 -5.5t-6 -13.5t6 -16t15 -9.5t18 -4.5t15 -1q47 0 76.5 23.5t46 60.5t22.5 82t6 88q0 87 -1 173t-1 172q0 44 4 88.5t17 85.5q-11 5 -27 14t-33 17.5t-33 14t-27 5.5q-24 0 -51 -8t-50 -23.5t-38 -39.5t-15 -56q0 -15 5 -31t14 -29.5
t21.5 -21.5t27.5 -8q23 0 43 16t20 45q0 10 6 16.5t14 6.5t14.5 -6.5t6.5 -16.5q0 -24 -9 -43.5t-23.5 -33.5t-33 -21.5t-38.5 -7.5q-24 0 -44 11.5t-34.5 30t-22.5 43t-8 50.5q0 43 18.5 75.5t47 54t63 32.5t66.5 11q15 0 33 -6t36.5 -14.5t36 -18t32.5 -16.5
q14 25 34.5 39t46.5 14q12 0 25.5 -3t25.5 -10.5t20 -19t8 -27.5zM431 839q0 6 -4.5 8.5t-11 4t-12.5 2t-9 0.5q-12 0 -22 -7t-18 -17q22 -6 40 -6q3 0 9 0.5t12.5 2t11 4.5t4.5 8z" />
    <glyph glyph-name="J" unicode="J" horiz-adv-x="474" 
d="M496 176q0 -2 -2 -6q-11 -31 -29 -57.5t-40.5 -50t-47.5 -43.5l-50 -40q1 -24 2 -47.5t1 -47.5v-204q0 -41 -8 -90.5t-25 -92t-42.5 -71t-61.5 -28.5q-34 0 -60.5 26t-43.5 66.5t-26 88.5t-9 90q0 71 22 123.5t55.5 92.5t74 70t78.5 58q-10 308 -10 615q0 43 4 88.5
t17 86.5q-11 5 -27 13.5t-33 17t-33 15t-27 6.5q-24 0 -51 -8t-50 -24t-38 -40t-15 -56q0 -16 4.5 -32t13.5 -29t21.5 -21t28.5 -8q23 0 43 16t20 45q0 10 6 16t14 6t14.5 -6t6.5 -16q0 -24 -9 -44t-23.5 -34t-33 -21.5t-38.5 -7.5q-24 0 -44.5 11t-34.5 30.5t-22 44
t-8 50.5q0 43 18 75t46.5 54t63 33.5t67.5 11.5q16 0 34 -6.5t36 -15t35.5 -18t32.5 -16.5q14 25 34.5 39.5t46.5 14.5q12 0 26 -3t25.5 -10t19.5 -18.5t8 -28.5q0 -16 -8 -28t-19.5 -19.5t-25.5 -11t-26 -3.5q-15 0 -30 3t-29 9q-11 -37 -15.5 -79.5t-4.5 -81.5
q0 -149 2.5 -295.5t8.5 -296.5q32 23 63 53t51 66q5 8 8.5 16t8.5 16q7 13 17 13q8 0 15 -7.5t7 -16.5zM431 839q0 6 -4.5 8.5t-11 4t-12.5 2t-9 0.5q-12 0 -22 -7t-18 -17q22 -6 40 -6q3 0 9 0.5t12.5 2t11 4.5t4.5 8zM288 -116q0 15 -1.5 31t-1.5 33q-30 -22 -63.5 -47.5
t-61.5 -57.5t-46 -75.5t-18 -98.5q0 -24 1.5 -45.5t6.5 -42.5q4 -20 12 -42t20 -41t26.5 -31t30.5 -12q25 0 43.5 24.5t29.5 59t16.5 73.5t5.5 68v204z" />
    <glyph glyph-name="K" unicode="K" horiz-adv-x="741" 
d="M792 187q0 -41 -13 -77.5t-35.5 -64t-53.5 -44t-67 -16.5q-32 0 -57 16t-42.5 41.5t-27 58t-9.5 65.5q0 49 0.5 98t0.5 98q0 21 -4 40t-15 35q-17 -17 -37 -25t-43 -8q-10 0 -22.5 4.5t-24 12.5t-19 19t-7.5 25q0 13 8 23.5t19 17.5t23.5 10t22.5 3q19 0 38 -4t36 -14
q17 34 23.5 78.5t6.5 84.5q0 45 12 87t34.5 75t55 53.5t74.5 20.5q24 0 42.5 -10.5t30.5 -28.5t18 -41.5t6 -48.5q0 -10 -6 -17t-15 -7t-14.5 7t-5.5 17q0 15 -3 30t-9.5 27t-17 19.5t-26.5 7.5q-33 0 -58.5 -17.5t-42 -44.5t-25 -61t-8.5 -68q0 -48 -8.5 -99t-30.5 -91
q13 -16 19.5 -32.5t9.5 -34.5t3 -37v-39v-165q0 -23 6.5 -47t18.5 -44t29.5 -32.5t40.5 -12.5q28 0 51.5 13.5t40.5 34.5t26.5 49.5t9.5 59.5q0 21 -12.5 39.5t-32.5 18.5q-15 0 -19.5 -8t-6.5 -17.5t-5.5 -17t-15.5 -7.5q-9 0 -15 6t-6 16q0 32 20.5 52.5t47.5 20.5
q19 0 34.5 -8.5t27 -22.5t18 -33t6.5 -39zM472 839q0 -16 -7.5 -27.5t-19.5 -19t-25.5 -11t-25.5 -3.5q-31 0 -61 10q-11 -36 -14.5 -78t-3.5 -80q0 -87 0.5 -173t0.5 -172q0 -54 -8.5 -107.5t-30 -96.5t-58.5 -69.5t-94 -26.5q-15 0 -31.5 4.5t-31 13.5t-24 23.5t-9.5 34.5
q0 28 17.5 50t42.5 22q9 0 15 -7t6 -17q0 -13 -6 -16.5t-13.5 -6t-14 -7t-6.5 -18.5q0 -8 7 -14t16 -9.5t18 -5.5t14 -2q47 0 76 23.5t45.5 60.5t22.5 82t6 89q0 86 -0.5 172t-0.5 173q0 42 5 87.5t18 85.5q-11 6 -27.5 14t-34 16.5t-33.5 14t-27 5.5q-23 0 -50 -7
t-50 -22.5t-38.5 -39.5t-15.5 -56q0 -16 4.5 -32t13.5 -29t21.5 -21t28.5 -8q23 0 42.5 16t19.5 44q0 11 6 17t15 6q20 0 20 -23q0 -24 -8.5 -43t-23 -33.5t-33 -22t-38.5 -7.5q-24 0 -44 11.5t-35 30.5t-23 43.5t-8 50.5q0 42 18.5 74.5t47 54.5t63.5 32.5t67 10.5
q16 0 34 -6t36.5 -14.5t36 -18.5t32.5 -17q14 25 34 40.5t46 15.5q12 0 25.5 -3.5t25.5 -10.5t19.5 -19t7.5 -28zM431 839q0 4 -5 7t-11.5 4.5t-12.5 2t-8 0.5q-24 0 -42 -23q23 -6 42 -6q2 0 8 0.5t12.5 2t11.5 4.5t5 8zM434 465q-22 9 -45 9q-4 0 -16 -1t-12 -7
q0 -7 11.5 -11.5t16.5 -4.5q26 0 45 15z" />
    <glyph glyph-name="L" unicode="L" horiz-adv-x="542" 
d="M563 141q0 -6 -5 -14q-17 -26 -37 -51t-44 -45t-51 -32.5t-57 -12.5q-45 0 -86.5 9t-82.5 32q-25 -23 -55 -32t-61 -9q-12 0 -30 4t-34.5 12.5t-28 21.5t-11.5 31q0 21 10.5 34t25.5 20.5t32.5 11t30.5 3.5q33 0 58.5 -12t54.5 -29q17 22 26.5 50.5t15 59.5t7 62.5
t1.5 58.5q0 41 -3 81.5t-6 81.5q-24 -3 -47 -3q-40 0 -72.5 17t-56 46.5t-36 69t-12.5 83.5q0 48 18.5 87t48.5 66.5t68 42.5t77 15q8 0 14.5 -6.5t6.5 -16.5t-6.5 -16.5t-14.5 -6.5q-31 0 -61.5 -11t-55 -33t-39.5 -52.5t-15 -68.5q0 -34 9.5 -65t27 -55t43 -37.5
t56.5 -13.5q11 0 22.5 1t22.5 4q-2 43 -4 84.5t-2 85.5q0 46 13 84.5t36.5 65t57 41.5t74.5 15q23 0 41 -9.5t30.5 -26.5t19.5 -39t7 -46q0 -57 -19 -105t-50.5 -85t-73.5 -62.5t-87 -39.5q3 -43 6 -86.5t3 -86.5q0 -32 -2 -65.5t-7.5 -66.5t-16 -64t-27.5 -57
q33 -16 68 -23t71 -7t64.5 20.5t49.5 45.5t35.5 45.5t23.5 20.5q8 0 14.5 -6.5t6.5 -15.5zM463 779q0 30 -14.5 52.5t-42.5 22.5q-66 0 -103 -42.5t-37 -117.5q0 -40 1.5 -80.5t3.5 -80.5q38 12 72.5 34t61 53t42.5 71t16 88zM158 51q-20 11 -38.5 18.5t-40.5 7.5h-15
q-9 0 -18 -2t-16.5 -6t-8.5 -12q8 -13 29 -19.5t34 -6.5q19 0 38 4.5t36 15.5z" />
    <glyph glyph-name="M" unicode="M" horiz-adv-x="931" 
d="M899 187q0 -41 -13 -77.5t-36 -63.5t-54.5 -43.5t-67.5 -16.5q-55 0 -86.5 33.5t-47 83t-19 106.5t-3.5 104q0 97 9.5 190.5t9.5 190.5q0 26 2.5 50.5t2.5 50.5q0 8 -0.5 18.5t-3 19.5t-8 15t-14.5 6q-5 0 -8.5 -8t-6 -18t-3.5 -20.5t-1 -14.5q-14 -163 -23.5 -326
t-18.5 -326q-1 -19 -1.5 -45.5t-6 -51.5t-17 -43t-35.5 -18q-22 0 -33.5 15.5t-16 37t-4.5 45.5v43q0 4 -0.5 8t-0.5 9q-8 114 -13 227.5t-11 227.5q-2 49 -6 97t-6 97v14t-1 21.5t-3 20t-6 8.5q-9 0 -14 -12t-8 -28t-4 -31t-1 -22q-8 -136 -19 -270t-28 -268
q-6 -49 -20.5 -92.5t-39 -75.5t-59.5 -50.5t-83 -18.5q-15 0 -31.5 4t-30 13t-22 23.5t-8.5 35.5q0 30 18.5 48t43.5 18q9 0 15 -6t6 -17q0 -13 -6.5 -17t-14.5 -6.5t-14.5 -6t-6.5 -14.5q0 -10 5.5 -16t13.5 -9t17 -4t15 -1q40 0 68 16t47.5 43.5t30.5 63.5t16 76
q17 134 27.5 267t19.5 267q1 20 3.5 43t9 43.5t19.5 35t35 14.5q19 0 29 -11t14.5 -26.5t5 -33.5t1.5 -34q9 -163 17 -325.5t19 -325.5q1 -10 1 -19v-20v-17q0 -12 1.5 -25.5t4 -23.5t8.5 -10q8 0 11.5 15.5t5.5 35.5t2.5 38.5t0.5 25.5q8 164 17.5 327t24.5 326
q2 15 4.5 33.5t9 33.5t17.5 25.5t28 10.5q21 0 34 -10.5t20.5 -27t10 -36.5t2.5 -39q0 -24 -2.5 -47t-2.5 -46q0 -98 -10 -194.5t-10 -194.5q0 -34 2 -81.5t13 -90.5t34.5 -72.5t66.5 -29.5q28 0 51.5 13t41 34.5t27.5 50t10 58.5q0 22 -13 41t-33 19q-14 0 -18.5 -8
t-7 -17.5t-6 -17t-15.5 -7.5q-8 0 -14 6t-6 16q0 32 20 52.5t47 20.5q19 0 35 -8.5t27.5 -23t18 -33.5t6.5 -40z" />
    <glyph glyph-name="N" unicode="N" horiz-adv-x="627" 
d="M775 724q0 -24 -9.5 -43t-25 -31.5t-34 -19t-37.5 -6.5q-11 0 -22.5 3t-21 10t-15.5 17.5t-6 24.5q0 11 6 17t13 6q11 0 13.5 -5t5 -10.5t7.5 -11t20 -5.5q10 0 21 3.5t21 10t16.5 16.5t6.5 24q0 26 -8.5 49.5t-22.5 41t-34 28.5t-43 11q-30 0 -47.5 -15.5t-26.5 -39
t-11.5 -52.5t-2.5 -56q0 -139 1 -276.5t1 -276.5q0 -21 -2.5 -47.5t-9.5 -50.5t-21.5 -40.5t-39.5 -16.5q-21 0 -35 17t-22 42t-11.5 52t-6.5 45q-22 163 -43 325t-41 326q0 3 -1 14t-3.5 22t-5.5 19.5t-8 8.5q-7 0 -11 -12t-5.5 -27.5t-1 -30t0.5 -21.5q0 -135 -2 -270
t-11 -270q-3 -49 -15 -92t-33.5 -75.5t-55 -51.5t-81.5 -19q-15 0 -31 4.5t-30.5 14t-24 23.5t-9.5 35q0 27 18 46.5t42 19.5q8 0 14 -6.5t6 -16.5q0 -13 -6 -17.5t-13 -6.5t-13.5 -5.5t-6.5 -13.5t6.5 -16t14.5 -9.5t17.5 -4.5t15.5 -1q39 0 65.5 16t43.5 42.5t25 62.5
t11 75q9 138 10.5 274t1.5 274q0 17 1.5 39t7.5 40.5t17.5 31.5t31.5 13q18 0 28.5 -10t16.5 -25t8.5 -32.5t4.5 -33.5q22 -164 42.5 -326t41.5 -326q1 -8 3.5 -27.5t6.5 -39.5t10 -35t15 -15q12 0 18.5 10.5t10 25.5t4 31t0.5 25q0 142 -1 281.5t-1 281.5q0 40 4 78
t17.5 69t39 49.5t67.5 18.5q32 0 58.5 -14t47 -38t32 -56t11.5 -67z" />
    <glyph glyph-name="O" unicode="O" horiz-adv-x="659" 
d="M625 452q0 -82 -20.5 -165t-61 -150.5t-101 -110t-139.5 -42.5q-83 0 -143.5 39.5t-100.5 104.5t-59.5 147t-19.5 168q0 65 9.5 126.5t31 116.5t56.5 101.5t85 79.5q4 4 11 4q8 0 14 -8.5t6 -17.5q0 -11 -11 -18q-14 -12 -28 -23t-27 -24q-30 -31 -50 -71t-32.5 -84
t-18 -91t-5.5 -91q0 -76 16.5 -149.5t51 -131.5t87.5 -94.5t127 -36.5q70 0 123 39.5t87.5 100.5t52 135.5t17.5 145.5q0 38 -6.5 83.5t-20 90t-34 86.5t-47 74t-60 51.5t-73.5 19.5q-38 0 -66.5 -16.5t-48.5 -43.5t-30 -63.5t-10 -77.5q0 -20 11 -37t29 -17q12 0 19.5 9
t12.5 22.5t7 28t2 24.5q0 11 6 17t14 6t14.5 -6t6.5 -17q0 -21 -5 -43.5t-15 -42t-25.5 -32.5t-36.5 -13q-18 0 -32.5 9t-25.5 22.5t-17 31.5t-6 38q0 50 13.5 95t39 79.5t61.5 54t82 19.5q69 0 122 -44.5t89 -112.5t54 -147.5t18 -147.5z" />
    <glyph glyph-name="P" unicode="P" horiz-adv-x="391" 
d="M592 659q0 -40 -10 -78.5t-30 -69.5t-49 -50t-68 -19q-14 0 -28 5t-25.5 15t-19 24.5t-7.5 31.5q0 10 6 16.5t14 6.5t11.5 -3t5 -7t2 -9.5t3.5 -11.5q5 -11 16 -16.5t22 -5.5q30 0 51.5 15.5t36 40.5t21.5 55.5t7 59.5q0 58 -26 96t-65 59t-85 29.5t-87 8.5
q-26 0 -52.5 -4.5t-52.5 -13.5q-27 -9 -55.5 -25.5t-52.5 -40t-39 -54t-15 -66.5q0 -37 17 -64.5t52 -27.5q17 0 31 13.5t24.5 33.5t16.5 41.5t6 37.5q0 10 6 16.5t14 6.5t14.5 -6.5t6.5 -16.5q0 -26 -8.5 -57t-24.5 -56.5t-38 -42.5t-48 -17t-46.5 11.5t-34.5 30
t-21.5 43.5t-7.5 54q0 42 14 76.5t38 62t55.5 49t65.5 35t69 20.5t66 7q50 0 103.5 -11t98 -38.5t73.5 -73.5t29 -116zM355 814q0 -10 -6.5 -16t-14.5 -6q-9 0 -15.5 -19t-10.5 -48t-6.5 -64t-3.5 -67.5t-1 -58.5v-38q0 -43 1 -86t1 -87q0 -59 -7.5 -119.5t-29 -109t-61 -79
t-104.5 -30.5q-15 0 -31.5 4.5t-31 13.5t-23.5 23t-9 35q0 27 17.5 46.5t41.5 19.5q9 0 15 -6t6 -17q0 -12 -6 -16.5t-13.5 -7t-13.5 -6t-6 -13.5q0 -9 6 -15.5t15 -10t18 -4.5t15 -1q54 0 86 28t48.5 71t21.5 94.5t5 99.5q0 55 -1.5 107.5t-1.5 107.5q0 15 0.5 43t2.5 61
t7 67.5t14 63t22.5 46t32.5 17.5q8 0 14.5 -6t6.5 -17z" />
    <glyph glyph-name="R" unicode="R" horiz-adv-x="882" 
d="M850 187q0 -41 -13 -77.5t-35.5 -63.5t-54 -43.5t-67.5 -16.5q-31 0 -56.5 16t-42.5 41.5t-26.5 58t-9.5 65.5v165q0 28 -8 54t-25 45q-20 -12 -45 -20.5t-48 -8.5q-10 0 -23.5 5t-25.5 14t-20.5 20.5t-8.5 25.5q0 13 8 24.5t20 19.5t25.5 12.5t23.5 4.5q26 0 50.5 -9.5
t45.5 -25.5q15 12 26 31t17.5 41.5t10 45.5t3.5 44q0 35 -12 64.5t-32.5 53t-46.5 40t-54 26.5q-26 10 -54 14.5t-56 4.5q-46 0 -98 -15.5t-96 -46.5t-72.5 -77t-28.5 -109q0 -18 8.5 -34.5t21 -29t28.5 -20.5t31 -8q18 0 32 11t23 27t14 35t5 38q0 10 6 16t14 6t14.5 -6
t6.5 -16q0 -28 -8 -56t-22.5 -50t-36 -36.5t-48.5 -14.5q-23 0 -46.5 11.5t-42 30.5t-30 44t-11.5 52q0 73 31.5 128t81 92t109 55t114.5 18q49 0 101 -14t95.5 -44.5t71.5 -77.5t28 -112q0 -54 -17 -106t-53 -87q23 -26 33.5 -60t10.5 -70v-165q0 -23 6 -47t18 -44
t29.5 -32.5t40.5 -12.5q28 0 51.5 13t41 34.5t27 50t9.5 58.5q0 22 -13 40.5t-33 18.5q-14 0 -18.5 -8t-7 -17.5t-6 -17.5t-15.5 -8q-8 0 -14 6.5t-6 16.5q0 32 20 52.5t47 20.5q18 0 34 -8.5t28 -22.5t18.5 -33t6.5 -40zM374 814q0 -10 -6.5 -16t-14.5 -6q-9 0 -16 -20
t-11 -51.5t-6.5 -69t-3.5 -73t-1 -63.5v-40q0 -37 1 -74.5t1 -74.5q0 -59 -7.5 -120t-29.5 -110t-61.5 -79.5t-104.5 -30.5q-15 0 -31.5 4.5t-31 13.5t-24 23t-9.5 35q0 27 18 46.5t42 19.5q9 0 15 -6t6 -17q0 -12 -6 -16.5t-13.5 -7t-14 -6t-6.5 -13.5q0 -9 6.5 -15.5
t15 -10t18 -4.5t15.5 -1q54 0 86 28t48.5 72t21.5 96t5 99q0 48 -1.5 96.5t-1.5 96.5q0 16 0.5 45.5t3 65t7 72t13.5 66.5t23 49.5t34 19.5q8 0 14.5 -6t6.5 -17zM482 464q-31 20 -62 20q-3 0 -8.5 -1t-11 -4t-10 -6.5t-4.5 -6.5q0 -4 5 -7.5t12 -5.5t13 -3.5t9 -1.5
q13 0 29.5 5t27.5 11z" />
    <glyph glyph-name="S" unicode="S" horiz-adv-x="389" 
d="M535 779q0 -61 -21.5 -110.5t-57.5 -87.5t-81.5 -63.5t-93.5 -36.5q1 -39 3 -77.5t2 -77.5q0 -60 -8.5 -121t-32 -109.5t-64 -79.5t-105.5 -31q-15 0 -31.5 4.5t-31 14t-24 23.5t-9.5 35q0 27 18 46.5t42 19.5q9 0 15 -6.5t6 -16.5q0 -13 -6 -17.5t-13.5 -6.5t-14 -5.5
t-6.5 -13.5t6.5 -16t15 -9.5t18 -4.5t15.5 -1q54 0 87.5 28t51.5 70.5t24 95t6 101.5q0 38 -2 75t-4 73q-8 -1 -15 -1h-14q-40 0 -72.5 17t-56 47t-36 69t-12.5 84q0 48 18.5 86.5t48.5 66.5t68 43t77 15q8 0 14.5 -6.5t6.5 -16.5t-6.5 -16.5t-14.5 -6.5q-31 0 -61.5 -11.5
t-55 -33t-39.5 -52.5t-15 -68q0 -34 9.5 -65t27 -55t43 -37.5t56.5 -13.5h14t14 1q0 37 2 80t9 85.5t20 81.5t34.5 69t53 48t75.5 18q21 0 40 -10.5t33 -27.5t22 -39t8 -46zM493 779q0 13 -4.5 27t-13 25t-19.5 18t-24 7q-36 0 -61.5 -16t-42 -42.5t-26.5 -61t-14.5 -71
t-6 -72.5t-1.5 -65q40 10 78 31.5t68 53.5t48.5 73.5t18.5 92.5z" />
    <glyph glyph-name="T" unicode="T" horiz-adv-x="539" 
d="M507 187q0 -41 -14 -77.5t-38 -64.5t-56 -44t-68 -16q-68 0 -119 27.5t-85.5 75t-52 111.5t-17.5 137q0 61 8.5 127.5t27 130t46.5 120.5t67 101q-6 5 -15 13t-19.5 15t-23 12t-26.5 5q-26 0 -55 -11.5t-53 -30.5t-40 -42t-16 -46q0 -13 6 -25.5t21 -14.5q17 0 24.5 9.5
t12.5 21.5t10.5 21.5t19.5 9.5q10 0 14 -5.5t4 -12.5q-3 -15 -11 -29.5t-20 -25.5t-27 -18t-33 -7q-33 2 -48 23.5t-15 48.5q0 32 19 62.5t48.5 54.5t66.5 38.5t73 14.5q21 0 37 -3.5t29 -10t24.5 -15.5t24.5 -20q29 25 63.5 38.5t71.5 13.5q16 0 33 -6t31 -17t23 -27t9 -36
t-7.5 -35t-20 -25.5t-28 -16t-30.5 -5.5q-42 0 -76 15.5t-67 41.5q-38 -40 -65 -94t-44 -114.5t-25 -123.5t-8 -120q0 -62 14 -117.5t43 -97t73 -66t103 -24.5q28 0 52.5 12.5t43 34t29 49.5t10.5 60q0 22 -12.5 40.5t-32.5 18.5q-21 0 -28 -7t-9.5 -15.5t-5 -15.5t-15.5 -7
q-8 0 -14 6.5t-6 17.5q0 17 7.5 29.5t19 21t25 12.5t26.5 4q19 0 34.5 -9t27 -23.5t18 -33.5t6.5 -39zM428 813q0 10 -6 17.5t-14.5 12.5t-18 8t-16.5 3q-53 0 -100 -35q26 -20 52.5 -31.5t57.5 -11.5q14 0 29.5 9.5t15.5 27.5z" />
    <glyph glyph-name="U" unicode="U" horiz-adv-x="929" 
d="M897 187q0 -41 -13 -77.5t-35.5 -63.5t-54 -43.5t-67.5 -16.5q-52 0 -93.5 33.5t-61.5 88.5q-25 -57 -68 -89.5t-100 -32.5q-45 0 -81 22.5t-61 59t-38.5 83t-13.5 92.5v471q0 19 -4 42.5t-13 45.5t-23.5 36t-35.5 14q-28 0 -49 -19t-35 -46.5t-21.5 -59.5t-7.5 -59
q0 -18 3 -43.5t11 -49.5t21.5 -40.5t34.5 -16.5q17 0 29.5 11.5t20.5 28t12 35t4 34.5q0 11 6 17t14 6t14.5 -6t6.5 -17q0 -26 -7 -53.5t-20.5 -50t-33.5 -37t-46 -14.5q-31 0 -52.5 20t-34.5 49t-18.5 64t-5.5 63q0 38 10 78.5t29.5 74t48.5 55.5t66 22q31 0 53 -18
t36.5 -44.5t21 -59t6.5 -62.5v-471q0 -37 10.5 -75t30 -68t48 -49.5t64.5 -19.5t64.5 17t49 45t31 64t10.5 74v140v506q0 10 6 16.5t14 6.5t14.5 -6.5t6.5 -16.5v-506v-184q0 -29 9.5 -57.5t26.5 -50.5t40.5 -35t50.5 -13q28 0 51.5 13t41 34.5t27 50t9.5 58.5q0 22 -13 41
t-33 19q-14 0 -19 -8t-7 -17.5t-5.5 -17t-15.5 -7.5q-8 0 -14 6t-6 16q0 32 20 52.5t47 20.5q19 0 35 -8.5t27.5 -23t18 -33.5t6.5 -40z" />
    <glyph glyph-name="V" unicode="V" horiz-adv-x="660" 
d="M709 812q0 -13 -14.5 -26t-33 -25t-37.5 -20.5t-28 -12.5q15 -70 19.5 -142.5t4.5 -144.5q0 -40 -2.5 -89.5t-11 -100t-23 -98.5t-38.5 -85t-58.5 -60t-82.5 -23q-45 0 -81 23t-61 59.5t-38.5 82.5t-13.5 93v471q0 19 -4 42.5t-13 45t-23.5 36t-35.5 14.5q-28 0 -49 -19
t-35 -47t-21.5 -60t-7.5 -58q0 -18 3.5 -43.5t11.5 -49.5t22 -40.5t35 -16.5q17 0 29 11t20 27.5t12 35.5t4 35q0 10 6.5 16.5t14.5 6.5t14 -6.5t6 -16.5q0 -26 -6.5 -53.5t-20 -50.5t-33.5 -37t-46 -14q-31 0 -53 20t-35 49t-19 64t-6 63q0 38 10 78.5t29.5 74t48.5 55
t66 21.5q31 0 53 -17.5t36.5 -44.5t21 -59.5t6.5 -61.5v-471q0 -38 10.5 -75.5t30 -67.5t48 -49.5t64.5 -19.5q40 0 68.5 21.5t47.5 56.5t31 78.5t18 89.5t8 89t2 75q0 71 -4.5 140.5t-18.5 137.5q-9 -1 -17.5 -1.5t-17.5 -0.5q-20 0 -43.5 6.5t-43.5 19t-33 32.5t-13 48
q0 19 8.5 33.5t22 23.5t29 13t30.5 4q23 0 40 -11.5t30 -29.5t22 -40.5t15 -42.5q28 9 47 22.5t42 33.5q8 7 14 7q8 0 14.5 -7.5t6.5 -16.5zM545 764q-4 12 -9.5 27.5t-13.5 28.5t-19 22.5t-25 9.5q-6 0 -14 -1.5t-16 -4t-13.5 -8.5t-5.5 -15q0 -16 10.5 -27.5t25 -18.5
t30 -10.5t26.5 -3.5h12t12 1z" />
    <glyph glyph-name="W" unicode="W" horiz-adv-x="1017" 
d="M1054 812q0 -13 -14.5 -26t-33 -25t-37.5 -20.5t-28 -12.5q15 -70 19.5 -142.5t4.5 -144.5q0 -40 -3 -89.5t-11 -100t-23 -98.5t-39 -85t-58.5 -60t-82.5 -23q-60 0 -104 36t-67 99q-24 -62 -68.5 -98.5t-104.5 -36.5q-45 0 -81 23t-61 59.5t-38.5 82.5t-13.5 93v471
q0 19 -4 42.5t-13 45t-23.5 36t-35.5 14.5q-28 0 -49 -19t-35 -47t-21.5 -60t-7.5 -58q0 -17 3 -42.5t10.5 -49.5t21 -41t34.5 -17q17 0 29 11t20 27.5t12 35.5t4 35q0 10 6.5 16.5t14.5 6.5t14 -6.5t6 -16.5q0 -26 -6.5 -53.5t-20 -50.5t-33.5 -37t-46 -14q-31 0 -52.5 20
t-34 49.5t-18 64t-5.5 62.5q0 38 10 78.5t29.5 74t48.5 55t66 21.5q31 0 53 -17.5t36.5 -44.5t21 -59.5t6.5 -61.5v-471q0 -38 10.5 -75.5t30 -67.5t48 -49.5t64.5 -19.5t63.5 15.5t47 41t30.5 60t13 72.5q2 34 1.5 67.5t-0.5 68.5v521q0 10 6 16t14 6t14.5 -6t6.5 -16v-506
v-159q0 -36 11 -69.5t30.5 -58t46.5 -39t60 -14.5q40 0 68.5 21.5t48 56.5t31 78.5t18 89.5t8.5 89t2 75q0 71 -5 140.5t-19 137.5q-8 -1 -17 -1.5t-17 -0.5q-20 0 -43.5 6.5t-43.5 19t-33 32.5t-13 48q0 19 8.5 33.5t21.5 23.5t28.5 13t30.5 4q23 0 40 -11.5t30.5 -29
t22.5 -39.5t15 -44q28 9 47 22.5t42 33.5q8 7 14 7q8 0 14.5 -7.5t6.5 -16.5zM889 764q-4 12 -9.5 27.5t-13.5 28.5t-19 22.5t-25 9.5q-6 0 -14 -1.5t-15.5 -4t-13 -8.5t-5.5 -15q0 -16 10.5 -27.5t25 -18.5t30 -10.5t26.5 -3.5h11q6 0 12 1z" />
    <glyph glyph-name="X" unicode="X" horiz-adv-x="799" 
d="M397 583q10 43 24 86.5t35 85t49 73t64 51t82 19.5q25 0 43.5 -14t30 -35t16.5 -45t5 -45q0 -61 -31 -107t-78 -80t-102.5 -58t-104.5 -41q-2 -13 -2.5 -25.5t-0.5 -24.5q0 -24 3.5 -62t11.5 -81.5t21.5 -87.5t31.5 -79.5t43 -58t56 -22.5q32 0 58.5 13t45.5 34.5
t29 49.5t10 59q0 21 -14 40t-37 19q-18 0 -23.5 -8t-8 -17t-6.5 -17t-18 -8q-9 0 -15.5 6t-6.5 17q0 32 24 52.5t54 20.5q21 0 39 -9t31 -23.5t20.5 -33.5t7.5 -39q0 -40 -13.5 -76.5t-39 -64.5t-60.5 -44.5t-77 -16.5t-74 24t-55.5 62t-39.5 86t-26 96.5t-12.5 89
t-2.5 76.5v29q-5 -37 -14 -81q-8 -50 -23.5 -101.5t-38 -100t-52.5 -85.5t-69 -60t-88 -23q-26 0 -46.5 16.5t-32.5 41t-17.5 53t-5.5 52.5q0 72 33 126t83.5 94t110.5 68.5t113 39.5q1 11 1.5 21.5t0.5 20.5q0 21 -3.5 53t-11.5 69t-21 74.5t-32 68t-44 49.5t-56 19
q-32 0 -59 -11t-46 -29.5t-29 -42t-10 -50.5q0 -18 14 -34t37 -16q18 0 23.5 7t8 14.5t7 14.5t18.5 7q9 0 16 -5.5t7 -14.5q0 -27 -25 -44.5t-55 -17.5q-22 0 -39.5 7.5t-30.5 20t-20.5 28.5t-7.5 33q0 34 13.5 65.5t39 55t61 37.5t77.5 14t74.5 -20t56 -52.5t39.5 -73.5
t26 -82.5t14.5 -79t4.5 -64.5v-20q5 26 11 72v0zM47 161q0 -11 3 -30t8 -36t15.5 -29.5t25.5 -12.5q38 0 69 19.5t55 52t42 73.5t30.5 84t21 84t14.5 73q-43 -17 -91.5 -41t-91 -57.5t-72 -78t-29.5 -101.5v0zM699 759q0 10 -2 26t-7.5 30.5t-15 25t-23.5 10.5
q-35 0 -64 -16.5t-51.5 -44t-39 -62.5t-28.5 -71.5t-20 -71.5t-13 -62q39 14 85 34.5t85.5 49t66.5 66.5t27 86v0z" />
    <glyph glyph-name="Y" unicode="Y" horiz-adv-x="738" 
d="M760 177q0 -3 -2 -7q-49 -139 -158 -220v-134q0 -67 -11.5 -140t-37.5 -134t-67.5 -101t-101.5 -40q-31 0 -56.5 19t-42.5 48.5t-26.5 68t-9.5 77.5q0 54 15 97t40 77t57 61t67 49t69.5 42t63.5 41v95q-26 -46 -66 -71.5t-89 -25.5q-45 0 -81 23t-61 60t-38.5 84
t-13.5 93v472q0 20 -4 44t-13 45.5t-23.5 36.5t-35.5 15q-28 0 -49 -19t-35 -47t-21.5 -60.5t-7.5 -58.5q0 -18 3 -44t11 -50t21.5 -41t34.5 -17q17 0 29 11.5t20 28t12 35.5t4 35q0 10 6.5 17t14.5 7t14 -7t6 -17q0 -26 -6.5 -53.5t-20 -50.5t-33.5 -37t-46 -14
q-31 0 -52.5 20t-34.5 50t-18.5 64t-5.5 63q0 38 10 78t29.5 74t48.5 56t66 22q31 0 53 -18t36.5 -45.5t21 -60t6.5 -62.5v-472q0 -37 10.5 -75.5t30 -69t48 -50t64.5 -19.5t64.5 17t49 45.5t31 65t10.5 74.5v140v510q0 9 6 15.5t14 6.5q9 0 15 -6.5t6 -16.5v-863
q34 26 58 58.5t43 73.5q3 5 6.5 14.5t8 18.5t10 15.5t12.5 6.5q8 0 15 -7t7 -16zM559 -80q-35 -24 -82 -51t-89 -61.5t-71 -81.5t-29 -112q0 -27 6.5 -55t18.5 -51t29.5 -37.5t39.5 -14.5q50 0 84 36.5t54.5 90t29.5 116t9 117.5v104z" />
    <glyph glyph-name="bracketleft" unicode="[" horiz-adv-x="312" 
d="M326 -72q0 -8 -6.5 -14t-14.5 -6h-141q-8 0 -14 6t-6 14v804q0 8 6 14t14 6h141q8 0 14.5 -6t6.5 -14t-6.5 -14t-14.5 -6h-120v-764h120q8 0 14.5 -6t6.5 -14z" />
    <glyph glyph-name="backslash" unicode="\" horiz-adv-x="474" 
d="M350 8q0 -8 -6.5 -14.5t-14.5 -6.5q-16 0 -19 15l-179 747q0 1 -0.5 2t-0.5 2q0 9 6 15t15 6q16 0 19 -15l179 -747q0 -1 0.5 -2t0.5 -2z" />
    <glyph glyph-name="bracketright" unicode="]" horiz-adv-x="312" 
d="M169 -72q0 -8 -6.5 -14t-14.5 -6h-141q-8 0 -14 6t-6 14t6 14t14 6h121v764h-121q-8 0 -14 6t-6 14t6 14t14 6h141q8 0 14.5 -6t6.5 -14v-804z" />
    <glyph glyph-name="asciicircum" unicode="^" horiz-adv-x="389" 
d="M370 469q0 -8 -6.5 -13t-14.5 -5q-7 0 -21 13t-28.5 28.5t-25.5 29t-14 14.5q-4 -6 -16.5 -20t-27.5 -28.5t-28.5 -25.5t-18.5 -11q-8 0 -14 5t-6 13q0 9 12 20t18 16q12 11 22.5 22t20.5 23q6 8 16.5 19.5t21.5 11.5q6 0 13 -5q13 -11 22.5 -24t20.5 -25t24 -23t24 -24
q6 -6 6 -11z" />
    <glyph glyph-name="underscore" unicode="_" horiz-adv-x="592" 
d="M567 -37q0 -8 -6.5 -14t-14.5 -6h-515q-8 0 -14 6t-6 14t5.5 15t14.5 7h515q9 0 15 -7t6 -15z" />
    <glyph glyph-name="grave" unicode="`" horiz-adv-x="389" 
d="M308 467q0 -8 -6.5 -13.5t-14.5 -5.5t-30 14.5t-45 33.5t-41 37.5t-18 26.5t6 13t14 5q7 0 16 -7q20 -19 37.5 -36t40.5 -32q8 -5 16.5 -10t16.5 -11t8 -15z" />
    <glyph glyph-name="a" unicode="a" horiz-adv-x="476" 
d="M497 155q0 -2 -1.5 -5.5t-2.5 -5.5q-7 -13 -13.5 -26.5t-17.5 -30.5q-12 -18 -26 -36t-29.5 -32.5t-31.5 -23t-32 -8.5q-30 0 -47.5 16.5t-23.5 45.5q-23 -29 -56.5 -45.5t-71.5 -16.5q-34 0 -64 13.5t-52.5 36t-35 53t-12.5 64.5t12.5 64.5t35 53.5t52.5 36.5t64 13.5
q36 0 69 -15.5t56 -42.5q0 7 -1 16.5t0.5 18t6 14.5t14.5 6q8 0 14.5 -5.5t6.5 -13.5v-203v-22q0 -12 3 -23t10 -18.5t20 -7.5q15 0 31.5 14.5t31 34t26 40.5t17.5 33q4 8 9.5 17t16.5 9q8 0 15 -5.5t7 -13.5zM269 154q0 26 -9.5 49t-26.5 41t-40 28.5t-49 10.5t-48.5 -10.5
t-39 -28.5t-26 -41t-9.5 -49q0 -25 9.5 -48.5t26 -41t39 -28t48.5 -10.5t49 10.5t40 28t26.5 40.5t9.5 49z" />
    <glyph glyph-name="b" unicode="b" horiz-adv-x="346" 
d="M366 160q0 -3 -1 -6t-2 -5q-13 -33 -44.5 -48t-66.5 -11q-18 -43 -50.5 -73t-82.5 -30q-32 0 -56 13t-40 34.5t-24.5 50t-11.5 62.5q-7 97 -12.5 194.5t-5.5 196.5q0 20 2.5 55.5t8.5 76t15 82t22.5 75t32 54.5t42.5 21q30 0 52 -24t35 -59.5t19.5 -74.5t6.5 -69
q0 -60 -18 -129t-45.5 -136.5t-58.5 -132t-57 -116.5q2 -24 8 -49t16.5 -43t27 -30t41.5 -12q35 0 58 23.5t36 53.5q-29 18 -42 50.5t-13 64.5q0 15 3.5 30.5t11 28.5t19.5 21t30 8q16 0 26.5 -8t17 -20.5t9.5 -27t3 -27.5q0 -47 -12 -94q23 1 37.5 9.5t20.5 19.5q5 10 9 15
t13 5q8 0 14 -5.5t6 -13.5zM165 675q0 19 -3.5 49.5t-12.5 59.5t-23 50t-34 21q-11 0 -19.5 -11.5t-15.5 -27t-11.5 -31.5t-7.5 -25q-28 -110 -28 -222q0 -74 2.5 -146.5t7.5 -146.5q21 43 46.5 97t47 111t36.5 114.5t15 107.5zM237 224v11t-1.5 14t-4.5 12.5t-9 5.5
q-8 0 -12.5 -5.5t-7 -13t-3 -15.5t-0.5 -14q0 -20 6.5 -39.5t21.5 -33.5q10 37 10 78z" />
    <glyph glyph-name="c" unicode="c" horiz-adv-x="329" 
d="M350 155q0 -2 -2 -6q-13 -32 -32.5 -61.5t-45.5 -52t-57.5 -35.5t-68.5 -13q-34 0 -64 13.5t-52.5 36t-35 53t-12.5 64.5t12.5 64.5t35 53.5t52.5 36.5t64 13.5q7 0 23.5 -3t33 -9t29 -13.5t12.5 -16.5q0 -8 -6.5 -13.5t-14.5 -5.5q-9 0 -28.5 11t-48.5 11
q-26 0 -48.5 -10.5t-39 -28t-26 -41t-9.5 -49.5t9.5 -49t26 -40.5t39 -28t48.5 -10.5q51 0 84.5 26.5t58.5 68.5q6 11 11.5 21t12.5 21q3 5 6.5 8.5t10.5 3.5q8 0 15 -6t7 -14z" />
    <glyph glyph-name="d" unicode="d" horiz-adv-x="478" 
d="M498 159q0 -6 -1 -9q-6 -12 -15 -28t-20.5 -33.5t-24.5 -34t-27 -30.5q-17 -17 -31.5 -27t-35.5 -10q-30 0 -46.5 19t-22.5 46q-23 -30 -57.5 -47.5t-72.5 -17.5q-35 0 -65 14t-52 37.5t-34.5 54.5t-12.5 65t12.5 64.5t34.5 53t52 36t65 13.5q36 0 69 -15t56 -42l1 311
q0 8 6 14t14 6t14.5 -6t6.5 -14l-2 -470q0 -9 0.5 -22.5t4 -27t10.5 -23t19 -9.5q16 0 25.5 8t20.5 20q20 23 37.5 51.5t25.5 44.5q5 8 10 17.5t16 9.5q8 0 14 -5.5t6 -13.5zM269 158q0 26 -9.5 49t-26.5 40.5t-39.5 27.5t-49.5 10t-49.5 -10.5t-39 -27.5t-25.5 -40t-9 -49
t9 -49.5t25.5 -41.5t39 -29t49.5 -11t49.5 11t39.5 29t26.5 41.5t9.5 49.5z" />
    <glyph glyph-name="e" unicode="e" horiz-adv-x="360" 
d="M382 155q0 -2 -2 -6q-32 -75 -92.5 -118.5t-143.5 -43.5q-34 0 -64 13.5t-52 36.5t-35 53t-13 64q0 36 12.5 66.5t35 53t53 35.5t66.5 13q20 0 43 -6.5t43 -19t33 -30.5t13 -41q0 -28 -12.5 -49t-32.5 -35t-45 -21.5t-50 -7.5q-33 0 -60.5 7t-57.5 21q3 -23 13.5 -44
t27 -36.5t37.5 -24.5t45 -9q54 0 99.5 23t74.5 70q3 5 7.5 14t10 18t11.5 16t13 7q8 0 15 -5.5t7 -13.5zM238 225q0 14 -10 24.5t-24 18t-30 11.5t-27 4q-46 0 -80 -27.5t-44 -72.5q30 -16 56 -23.5t60 -7.5q16 0 33.5 4.5t32 13.5t24 22.5t9.5 32.5z" />
    <glyph glyph-name="f" unicode="f" horiz-adv-x="235" 
d="M256 154q0 -3 -2 -9q-9 -20 -22 -40.5t-30 -37t-38 -26.5t-45 -10h-9q-3 0 -8 1q28 -49 46.5 -97t34 -98.5t24.5 -102.5t9 -101q0 -36 -5.5 -76.5t-18 -75t-34.5 -57t-56 -22.5q-31 0 -53 24t-36.5 62.5t-23 86.5t-13 96.5t-5.5 92t-1 72.5q0 109 7 217q0 22 1.5 43.5
t1.5 44.5v372q0 20 1 56.5t4.5 79.5t11 87.5t19 81t28.5 59.5t42 23q32 0 56 -25t39 -61t22 -76t7 -71q0 -68 -18.5 -137.5t-47 -136.5t-61.5 -131t-61 -120l-1 -5q9 -10 20 -21.5t23 -21t26 -16t29 -6.5q20 0 34 9t25.5 22.5t20 29.5t17.5 30q7 12 19 12q8 0 14.5 -6.5
t6.5 -14.5zM168 667q0 20 -5 52t-14.5 61t-25 50.5t-37.5 21.5q-16 0 -27 -21.5t-18 -54t-11 -73t-5.5 -78t-2 -68t-0.5 -44.5v-271q22 46 47.5 98t47 107t36.5 111t15 109zM173 -367q0 56 -14 119t-35.5 125t-48.5 117t-58 87q-1 -58 -3 -126t-2 -137q0 -21 0.5 -54.5
t3.5 -74t8 -82t15 -74.5t25.5 -54.5t37.5 -21.5q23 0 37.5 19.5t21.5 46.5t9.5 57.5t2.5 52.5z" />
    <glyph glyph-name="g" unicode="g" horiz-adv-x="464" 
d="M485 151q0 -5 -3 -10q-15 -26 -34.5 -48.5t-42.5 -42.5t-47 -38t-48 -45v-295q0 -36 -4 -84t-15 -91t-32 -72.5t-54 -29.5q-34 0 -55 23.5t-32.5 59.5t-15.5 78.5t-4 81.5q0 54 16.5 105.5t41.5 98t55.5 86.5t57.5 71v38q-23 -28 -56 -43t-69 -15q-35 0 -65 14t-52 37
t-34.5 54.5t-12.5 65.5q0 35 12.5 66t34.5 54.5t52 37.5t65 14q36 0 69 -15.5t56 -43.5q0 7 -0.5 16.5t0.5 18t5.5 14.5t14.5 6q8 0 14.5 -5.5t6.5 -14.5v-269q32 21 62.5 45.5t53.5 56.5q5 8 10 15t10 15q7 10 17 10q8 0 15 -6t7 -14zM269 150q0 26 -9.5 50t-26.5 42
t-39.5 29t-49.5 11t-49.5 -11t-39 -29t-25.5 -42t-9 -50t9 -49.5t25.5 -41.5t39 -29t49.5 -11t49.5 11t39.5 29t26.5 41.5t9.5 49.5zM269 -80q-21 -25 -43.5 -56t-42 -67.5t-32 -77t-12.5 -81.5q0 -24 1.5 -57t8 -61t19.5 -47.5t37 -19.5q23 0 36 25t19 61t7.5 73t1.5 60
v248z" />
    <glyph glyph-name="h" unicode="h" horiz-adv-x="388" 
d="M409 159q0 -1 -2 -5q-8 -21 -23.5 -49.5t-35.5 -54.5t-44 -44t-50 -18q-24 0 -38 12.5t-21 31t-9 40.5t-2 40v106q0 24 -14.5 45.5t-43.5 21.5q-16 0 -32 -18t-29.5 -42t-25.5 -48t-21 -36q2 -33 4.5 -66t2.5 -67q0 -9 -6 -15t-15 -6q-15 0 -18 12t-3 23q0 24 -1.5 48.5
t-3.5 48.5q-4 65 -4.5 139t-0.5 154q0 87 4 173t25 170q5 18 13 43t20.5 47t28.5 37.5t37 15.5q35 0 60 -24.5t40.5 -60t23 -75.5t7.5 -73q0 -42 -8 -83.5t-21.5 -81.5t-31 -78.5t-50.5 -96.5h5q23 1 41.5 -7.5t31.5 -23.5t19.5 -35t6.5 -41v-106v-22t2.5 -28t8.5 -24
t18 -10q21 0 38 16.5t31.5 39t26 46t20.5 38.5q6 11 17 11q8 0 15 -6t7 -14zM189 665q0 22 -3 45.5t-10 47t-18 43.5t-27 33q-7 6 -14.5 10t-15.5 4q-11 0 -20.5 -13t-16.5 -30.5t-12.5 -36t-7.5 -28.5q-21 -80 -24 -163.5t-3 -168.5q0 -95 3 -190q16 43 50 100t59 113.5
t42.5 114.5t17.5 119z" />
    <glyph glyph-name="i" unicode="i" horiz-adv-x="253" 
d="M85 425q0 -13 -9.5 -22t-22.5 -9t-21 9t-8 22t8 22t21 9t22.5 -9t9.5 -22zM274 155q0 -5 -4 -12.5t-9 -16t-10 -16t-7 -11.5q-3 -5 -6 -11t-7 -11q-10 -16 -23.5 -32.5t-29.5 -29t-34.5 -20.5t-39.5 -8q-25 0 -39.5 13t-22 31.5t-10 40t-2.5 39.5v50v16q-1 -2 -2 -8
t-2 -8q-6 -11 -13 -19t-13 -8q-8 0 -14 6t-6 14q0 9 8 24.5t12 24.5q8 18 13 37l10 38q1 5 3 12.5t5 14.5t8 11.5t12 4.5q11 0 15.5 -8t4.5 -14v-188v-24q0 -14 2.5 -27.5t9.5 -23.5t21 -10q28 0 51 22t40 49q8 13 15.5 24.5t13.5 22.5q5 8 10.5 19t17.5 11q7 0 14.5 -4.5
t7.5 -14.5z" />
    <glyph glyph-name="j" unicode="j" horiz-adv-x="237" 
d="M85 425q0 -13 -9.5 -22t-22.5 -9t-21 9t-8 22t8 22t21 9t22.5 -9t9.5 -22zM258 152q0 -5 -4 -11q-33 -54 -83 -100.5t-100 -90.5v-264q0 -34 -5 -82.5t-17 -93.5t-32 -77.5t-50 -32.5t-52 23.5t-36 59.5t-21 78t-7 79q0 58 17.5 106.5t44 90.5t58 77t59.5 66v178l-1 13
q-1 -2 -1 -6q0 -3 -1 -5q-4 -10 -10 -19t-17 -9q-8 0 -14 6t-6 14q0 6 1 9q10 23 19.5 46t17.5 48q4 13 6 26t7 25q5 16 20 16q9 0 14.5 -7t5.5 -15v-293q35 25 66 55.5t57 64.5q7 9 13 18.5t13 17.5q4 5 7.5 7t9.5 2q8 0 14.5 -6t6.5 -14zM30 -95q-21 -24 -45.5 -51.5
t-44.5 -60.5t-33.5 -70.5t-13.5 -82.5q0 -23 4 -54t13 -59t23 -48t34 -20q19 0 31.5 28t19.5 65.5t9.5 75t2.5 58.5v219z" />
    <glyph glyph-name="k" unicode="k" horiz-adv-x="390" 
d="M411 158q0 -5 -3 -10q-11 -22 -26.5 -50t-35 -53t-43.5 -41.5t-53 -16.5q-22 0 -35.5 13.5t-20.5 33.5t-9.5 42t-2.5 38q0 19 -8 31q-27 -15 -58 -15q-20 0 -37.5 9.5t-17.5 32.5t19 32.5t39 9.5q15 0 29 -4.5t27 -12.5q12 15 12 36q0 26 -18 38t-43 12q-18 0 -34 -17.5
t-29.5 -41.5t-25 -48t-19.5 -37q3 -66 3 -132q0 -9 -6.5 -14.5t-14.5 -5.5t-14 5.5t-6 14.5q0 115 -6 242t-6 268q0 21 3 58t8 80.5t14.5 87t24 79t33.5 58.5t44 23q33 0 56.5 -26.5t39.5 -64t24 -79t8 -71.5q0 -35 -9.5 -78t-25 -87.5t-33.5 -85t-44 -91.5q3 3 6 3h9
q42 0 72 -23.5t30 -66.5q0 -35 -24 -62q12 -17 15 -33t3 -36q0 -7 0.5 -19.5t3 -25t8.5 -21.5t16 -9q18 0 33.5 11t28.5 27.5t23 34.5t17 32q5 9 9.5 16t9.5 18q7 12 18 12q8 0 15 -6t7 -14zM179 662q0 19 -5 51t-15 63.5t-26 54.5t-38 23q-11 0 -20.5 -12.5t-16 -29
t-12 -34.5t-7.5 -28q-15 -56 -21 -114.5t-6 -118.5q0 -73 2 -144.5t5 -144.5q15 31 45.5 90.5t55.5 120t42 119t17 104.5zM146 172q-12 7 -26 7q-2 0 -10 -2t-8 -5q0 -4 7 -4.5t9 -0.5q6 0 14 1.5t14 3.5z" />
    <glyph glyph-name="l" unicode="l" horiz-adv-x="265" 
d="M285 159q0 -6 -2 -10q-8 -16 -19 -34.5t-25 -38.5q-12 -17 -25 -33t-28.5 -28.5t-32.5 -20t-37 -7.5q-36 0 -61.5 16.5t-41.5 42t-24 56t-9 58.5q2 30 -0.5 77t-5 100t-4.5 108t-2 104q0 19 2.5 53.5t8 73t15 79t23.5 73t32.5 53t42.5 20.5q36 0 60.5 -26t39.5 -62.5
t21.5 -76.5t6.5 -69q0 -46 -14 -103t-35.5 -113.5t-45.5 -109.5t-44 -93q-13 -26 -26 -50.5t-34 -45.5q2 -21 8.5 -43.5t18 -40.5t28.5 -29.5t40 -11.5q17 0 31.5 8t26.5 20.5t22.5 28t19.5 30.5q14 26 25.5 45.5t22.5 19.5q8 0 14.5 -5.5t6.5 -14.5zM177 667q0 39 -7 72
q-3 17 -10.5 37t-17.5 37t-22.5 28.5t-27.5 11.5q-11 0 -20 -11.5t-16 -28t-11.5 -33t-7.5 -26.5q-14 -50 -20 -100.5t-6 -101.5q0 -40 1.5 -85t3.5 -88.5t4 -82.5t3 -65q23 43 50.5 100.5t50.5 118t38 118t15 99.5z" />
    <glyph glyph-name="m" unicode="m" horiz-adv-x="684" 
d="M706 155q0 -2 -2 -6q-5 -14 -19.5 -37.5t-33.5 -48.5q-23 -30 -47.5 -53t-46.5 -23q-27 0 -45 10.5t-28 28t-14 40t-4 45.5v114q0 29 -20.5 42.5t-46.5 13.5q-28 0 -46 -22.5t-18 -49.5v-202q0 -8 -6.5 -14t-14.5 -6t-14 6t-6 14v202q0 33 -13 52.5t-49 19.5
q-11 0 -23.5 -4t-23 -11t-17.5 -17.5t-7 -23.5v-218q0 -8 -6.5 -14t-14.5 -6t-14 6t-6 14v221q0 6 -0.5 15.5t-2.5 17.5t-7 14t-14 6q-18 0 -30 -23t-22 -50.5t-20 -50.5t-24 -23q-8 0 -14 6t-6 14q0 4 4 13t9 21q8 18 15 38t11 30q9 23 29 43.5t48 20.5q17 0 31.5 -7.5
t22.5 -23.5q17 15 38 23t44 8q26 0 49 -9t37 -32q15 19 36 30t45 11q21 0 41 -6.5t35 -18.5t24 -29.5t9 -40.5v-114q0 -13 1 -28t5.5 -28t14.5 -21t28 -8q11 0 27 16t32 38.5t30 46t21 37.5q6 10 17 10q8 0 15 -5.5t7 -13.5z" />
    <glyph glyph-name="n" unicode="n" horiz-adv-x="506" 
d="M526 155q0 -2 -3 -9.5t-5 -10.5q-8 -15 -24 -40t-35 -49t-40 -41.5t-40 -17.5q-27 0 -45 10.5t-28.5 28t-14.5 40t-4 45.5v114q0 29 -20 43.5t-46 14.5q-14 0 -26 -6.5t-20.5 -17t-13.5 -24t-5 -26.5v-202q0 -8 -6 -14t-14 -6t-14.5 6t-6.5 14v221q0 6 -0.5 15t-2.5 18
t-7 15.5t-13 6.5q-14 0 -23.5 -10.5t-15.5 -25t-10 -29.5t-8 -25q-3 -6 -6.5 -16.5t-8 -21t-10.5 -18t-14 -7.5t-14.5 6t-6.5 14q0 3 2.5 10.5t6.5 16t7 16.5t5 11q5 12 8.5 25t8.5 25q9 25 29.5 46.5t49.5 21.5q18 0 31 -10t21 -26q14 17 34.5 26.5t42.5 9.5
q21 0 40.5 -6.5t34.5 -19t23.5 -30.5t8.5 -41v-114q0 -13 1 -28t6.5 -28t15.5 -21t28 -8q11 0 26 15.5t29.5 36.5t27 41.5t17.5 30.5q5 8 10.5 16t16.5 8q8 0 14 -5.5t6 -13.5z" />
    <glyph glyph-name="o" unicode="o" horiz-adv-x="400" 
d="M421 155q0 -3 -2 -9q-13 -27 -39 -43t-56 -16q-7 0 -13 1t-13 3q-20 -47 -61.5 -75.5t-92.5 -28.5q-34 0 -64 13.5t-52.5 36t-35 53t-12.5 64.5t12.5 64.5t35 53.5t52.5 36.5t64 13.5q35 0 65 -13.5t52.5 -36.5t35.5 -53.5t13 -64.5q0 -7 -0.5 -13.5t-1.5 -12.5
q5 -1 16 -1q20 0 31 7.5t18 16t12.5 16t14.5 7.5q8 0 14.5 -5.5t6.5 -13.5zM268 155q0 11 -2.5 26t-7.5 26q-1 -4 -3 -7.5t-2 -8.5q0 -10 5 -19t10 -17zM260 107q-20 14 -34 36t-14 48q0 14 5 28.5t15 25.5q-36 38 -88 38q-26 0 -48.5 -10.5t-39 -28.5t-26 -41t-9.5 -49
q0 -25 9.5 -48.5t26 -41t39 -28t48.5 -10.5q39 0 70.5 22.5t45.5 58.5z" />
    <glyph glyph-name="p" unicode="p" horiz-adv-x="420" 
d="M442 151q0 -2 -2 -8t-3 -8q-17 -35 -52 -83q-8 -12 -17 -22t-18 -19q-14 -14 -28 -23t-29 -9q-28 0 -45.5 11.5t-27.5 29.5t-13.5 40.5t-3.5 45.5v117q0 29 -20.5 43t-46.5 14q-13 0 -25 -7t-21 -17.5t-14 -23.5t-5 -26l1 -785q0 -8 -6.5 -14t-14.5 -6t-14 6t-6 14
l-1 743q-3 -8 -11.5 -21t-18.5 -13q-8 0 -14 6t-6 14q0 5 1 8q8 23 18.5 46t17.5 47q4 14 6.5 27.5t7.5 26.5q3 7 7.5 11.5t12.5 4.5q11 0 15 -8t5 -17q29 24 65 24q22 0 41.5 -6.5t34.5 -19t23.5 -30.5t8.5 -41v-117q0 -13 1 -28.5t5.5 -28.5t14.5 -21.5t28 -8.5
q14 0 27.5 14.5t26.5 33.5q15 21 28.5 42t19.5 34q4 8 9 17.5t16 9.5q8 0 15 -5.5t7 -13.5z" />
    <glyph glyph-name="q" unicode="q" horiz-adv-x="477" 
d="M498 151q0 -3 -2 -9q-7 -19 -23.5 -47t-37.5 -54t-45 -44t-47 -18q-17 0 -33 8l-3 -569q0 -8 -6.5 -14t-14.5 -6t-14 6t-6 14l3 620q-23 -28 -56 -43.5t-69 -15.5q-35 0 -65 14t-52 37.5t-34.5 54.5t-12.5 65t12.5 65t34.5 55t52 38t65 14q36 0 69 -15.5t56 -43.5
q0 6 -1 16t0.5 19t6 15.5t14.5 6.5q9 0 15 -6.5t6 -14.5v-208v-22q0 -12 3 -23.5t10 -19t20 -7.5q15 0 31.5 14.5t30.5 35t26 41.5t18 33q5 8 10.5 17.5t16.5 9.5q8 0 15 -5t7 -14zM269 150q0 26 -9.5 50t-26.5 42t-39.5 29t-49.5 11t-49.5 -11t-39 -29t-25.5 -42t-9 -50
t9 -49.5t25.5 -41.5t39 -29t49.5 -11t49.5 11t39.5 29t26.5 41.5t9.5 49.5z" />
    <glyph glyph-name="r" unicode="r" horiz-adv-x="400" 
d="M421 156q0 -2 -2 -8q-5 -13 -14 -28t-19 -32q-12 -19 -26.5 -37t-31 -32t-34.5 -23t-36 -9q-20 0 -38 8t-31.5 22t-21 32t-7.5 38t5.5 39.5t11.5 38.5t11.5 38.5t5.5 39.5q0 10 -7 16t-17 9t-21 3.5t-18 0.5q-17 0 -34 -4t-34 -6q-3 -13 -9.5 -30t-13.5 -35t-15 -34.5
t-14 -27.5t-18 -11q-8 0 -14.5 6t-6.5 14q0 2 3.5 10t5.5 10q12 26 23 53t19 54q-16 9 -25 25.5t-9 34.5q0 23 9.5 43t36.5 20q20 0 31.5 -14t11.5 -32q0 -11 -1.5 -22t-3.5 -22q14 2 28.5 5t29.5 3q16 0 34 -3.5t33.5 -11.5t26 -21t10.5 -33t-5.5 -39.5t-11.5 -38.5
t-11.5 -38.5t-5.5 -39.5q0 -23 17 -41.5t40 -18.5q12 0 24.5 7t24 17.5t22 24t17.5 26.5q9 16 18.5 30.5t17.5 31.5q5 11 17 11q8 0 15 -5.5t7 -13.5zM37 352q0 2 -2 2q-4 0 -4.5 -9t-0.5 -11v-4q0 -6 4 -14q3 18 3 36z" />
    <glyph glyph-name="s" unicode="s" horiz-adv-x="395" 
d="M416 156q0 -2 -2 -8q-32 -75 -90 -118t-141 -43h-44q-16 0 -39.5 7.5t-45.5 20t-37 30t-15 36.5q0 9 6 14.5t14 5.5q15 0 17.5 -10t7.5 -20q4 -7 15.5 -15t26 -14.5t28.5 -10.5t22 -4q24 0 43 10.5t32 28t20 39t7 43.5q0 28 -18.5 47.5t-45.5 32.5t-56.5 21t-50.5 13
q-11 -24 -20.5 -47.5t-20.5 -47.5q-4 -9 -10.5 -20t-18.5 -11q-8 0 -14 5.5t-6 13.5q0 3 7.5 20t16.5 37.5t17.5 39t11.5 24.5q-16 11 -24 27t-8 35q0 24 14 40.5t39 16.5q20 0 34.5 -14t14.5 -34q0 -9 -6.5 -24.5t-10.5 -23.5q29 -6 63 -16.5t63.5 -28.5t49.5 -44t20 -62
q0 -31 -10.5 -61.5t-30.5 -53.5q38 11 66.5 35.5t48.5 58.5q5 9 10 19t11 19q4 5 7 7.5t10 2.5q8 0 15 -5.5t7 -13.5zM62 347q0 8 -8 8t-10 -5.5t-2 -11.5t1.5 -12t5.5 -11q2 5 7.5 16.5t5.5 15.5z" />
    <glyph glyph-name="t" unicode="t" horiz-adv-x="247" 
d="M267 159q0 -3 -2 -9q-7 -20 -23 -48t-37 -53.5t-44.5 -43.5t-47.5 -18q-31 0 -56 12t-42 32.5t-26 47.5t-9 56v450q0 8 6.5 14t14.5 6t14 -6t6 -14v-139h179q8 0 14 -6t6 -14t-6 -14t-14 -6h-179v-271q0 -21 6 -40.5t17.5 -34.5t28.5 -24t40 -9q16 0 32 14.5t30.5 34.5
t26 40.5t17.5 33.5q5 9 10.5 18.5t17.5 9.5q8 0 14 -5.5t6 -13.5z" />
    <glyph glyph-name="u" unicode="u" horiz-adv-x="473" 
d="M495 155q0 -2 -1 -4.5t-2 -4.5q-9 -19 -25 -46.5t-35.5 -52.5t-43 -42.5t-47.5 -17.5q-48 0 -65 46q-1 2 -1.5 8t-1.5 8q-2 -2 -3 -9t-3 -9q-17 -20 -40 -32t-50 -12q-28 0 -54.5 9t-47 25.5t-33 41t-12.5 54.5v40l-1 21q-1 -2 -1 -8t-1 -8q-5 -8 -12 -18t-15 -10t-14 6
t-6 14q0 5 5 18t11.5 28.5t12.5 30.5t8 22q2 6 3.5 15t4 18t5.5 17t7 12q6 6 14 6q9 0 14.5 -7t5.5 -15v-182q0 -22 9 -39t24 -28.5t34 -17.5t39 -6q23 0 40 12t28 30.5t16.5 40.5t5.5 41v149q0 8 6 14t14 6t14.5 -6t6.5 -14v-202v-22q0 -12 3 -23t10 -18.5t20 -7.5
q14 0 28.5 12t28 29t24 34.5t16.5 28.5q5 8 9 17t9 17q7 10 17 10q8 0 15 -5.5t7 -13.5z" />
    <glyph glyph-name="v" unicode="v" horiz-adv-x="426" 
d="M453 160q0 -3 -1 -6t-2 -5q-6 -16 -18.5 -28.5t-27.5 -20t-32 -10t-33 -0.5l-1 -7q-19 -46 -53 -71t-85 -25q-38 0 -60.5 17.5t-34 44.5t-14.5 59.5t-3 61.5q0 23 0.5 46t0.5 46v10t-5 8q-7 0 -14 -11t-13 -27t-12.5 -35t-13 -35t-14.5 -27t-17 -11q-8 0 -14 6t-6 14
q0 5 5 19t11 29.5t12.5 30t9.5 20.5q5 9 12 21t15.5 22t19 17t22.5 7q14 0 22.5 -8t13 -20t6 -25t1.5 -24q0 -20 -1 -39t-1 -39q0 -19 1.5 -43t8.5 -45.5t21.5 -36t40.5 -14.5q32 0 62 19.5t38 52.5q-17 6 -29 21t-19.5 32t-11 34.5t-3.5 29.5q0 15 2 33t8.5 33.5t18.5 25.5
t32 10q18 0 29.5 -13t18.5 -31.5t10 -38t3 -33.5q0 -18 -2 -36t-5 -35q23 1 37.5 9.5t20.5 19.5q5 10 9 15t13 5q8 0 14.5 -5.5t6.5 -13.5zM318 201q0 5 -0.5 17.5t-2.5 26t-6 23.5t-11 10t-11.5 -5t-6.5 -12t-2.5 -15t-0.5 -13q0 -13 0.5 -27.5t4 -28.5t10.5 -26t19 -20
q4 17 5.5 35t1.5 35z" />
    <glyph glyph-name="w" unicode="w" horiz-adv-x="641" 
d="M667 160q0 -3 -1 -6t-2 -5q-6 -16 -18 -28.5t-27 -20t-32 -10t-33 -0.5l-1 -7q-19 -46 -53 -71t-85 -25q-34 0 -58.5 19.5t-38.5 49.5q-19 -35 -50 -52t-71 -17q-25 0 -46 11.5t-35 30t-22 41.5t-8 47v145q0 2 -0.5 10t-4.5 8q-7 0 -13.5 -11t-12.5 -27t-11.5 -35
t-12 -35t-14 -27t-17.5 -11q-8 0 -14 6t-6 14q0 5 4.5 19t11 30t12.5 30t9 20q5 9 11.5 21t15 22t19 17t22.5 7q14 0 22.5 -8t13 -20t6 -25t1.5 -24v-126q0 -15 4.5 -31t13 -29.5t21.5 -22t30 -8.5q40 0 62 20t32 50t12 65t2 64v74q0 8 6 14t14 6t14.5 -6t6.5 -14v-98v-84
q0 -15 4.5 -31t13 -29.5t21.5 -22t30 -8.5q32 0 61.5 19.5t37.5 52.5q-17 6 -29 21t-19.5 32t-11 34.5t-3.5 29.5q0 15 2 33t9 33.5t19 25.5t32 10q18 0 29.5 -13t18 -31.5t9.5 -38t3 -33.5q0 -36 -6 -71q23 1 37.5 9.5t20.5 19.5q5 10 9 15t13 5q8 0 14 -5.5t6 -13.5z
M532 201q0 5 -0.5 17.5t-2.5 26t-5.5 23.5t-10.5 10t-11.5 -5t-6.5 -12t-2.5 -15t-0.5 -13q0 -13 0.5 -27.5t4 -28.5t10.5 -26t19 -20q4 17 5 35t1 35z" />
    <glyph glyph-name="x" unicode="x" horiz-adv-x="617" 
d="M638 155q0 -3 -2 -9q-13 -31 -31 -60t-41.5 -51t-53 -35t-66.5 -13q-46 0 -84 23.5t-60 63.5q-22 -40 -60.5 -63.5t-84.5 -23.5q-18 0 -35.5 6t-33.5 16.5t-29.5 24t-22.5 27.5q-4 6 -4 12q0 8 6 13t14 5t17.5 -10t22 -22.5t28.5 -22.5t37 -10q26 0 49 10.5t40 28
t26.5 40.5t9.5 49t-9.5 49t-26.5 41t-40 28.5t-49 10.5q-36 0 -55.5 -13.5t-32 -33.5t-22.5 -44.5t-27 -46.5q-4 -5 -8 -8t-10 -3q-8 0 -14 6t-6 14q0 6 5.5 18.5t13 26t15 26t11.5 18.5q12 21 25 35.5t28 24.5t33.5 14.5t43.5 4.5q46 0 84.5 -24t60.5 -64q22 40 60 64
t84 24q30 0 63 -12t53 -35q6 -8 6 -14q0 -8 -6.5 -13.5t-14.5 -5.5q-3 0 -13 6.5t-23.5 14t-30 14t-34.5 6.5q-26 0 -48.5 -10.5t-39 -28.5t-26 -41t-9.5 -49q0 -25 9.5 -48.5t26 -41t39 -28t48.5 -10.5q31 0 53.5 11t38.5 27.5t27.5 35.5t20.5 35.5t16.5 27.5t16.5 11
q8 0 14.5 -5.5t6.5 -13.5z" />
    <glyph glyph-name="y" unicode="y" horiz-adv-x="466" 
d="M488 150q0 -4 -3 -9q-32 -60 -78.5 -107t-99.5 -86v-248q0 -35 -5 -85.5t-17 -98t-32.5 -81.5t-50.5 -34t-49 26.5t-29.5 66.5t-14 85.5t-3.5 81.5q0 51 16 96.5t40 85.5t52 73.5t52 47.5v57q-36 -42 -90 -42q-29 0 -55.5 9.5t-46.5 26.5t-32 42t-12 55v52
q-4 -10 -10.5 -22t-19.5 -12q-8 0 -14 6t-6 14q0 6 1 9q10 23 19.5 46t16.5 47q4 13 6.5 26t7.5 26q2 7 7 12t13 5q9 0 14.5 -7t5.5 -15v-187q0 -22 8.5 -39.5t23 -29.5t33.5 -18t40 -6q24 0 41 12.5t28 31t16 41t5 42.5v152q0 9 6 14.5t14 5.5t14.5 -5.5t6.5 -14.5v-302
q33 28 63.5 58.5t54.5 66.5q7 10 12 20t12 19q7 10 17 10q8 0 15 -6t7 -14zM266 -100q-14 -14 -26 -28.5t-25 -30.5q-27 -35 -47.5 -78t-20.5 -101q0 -22 1 -56t6.5 -66.5t16.5 -55.5t31 -23q18 0 30.5 29t20 67.5t10.5 77t3 59.5v206z" />
    <glyph glyph-name="z" unicode="z" horiz-adv-x="393" 
d="M412 152q0 -4 -2 -8q-15 -41 -40 -77t-54 -68q10 -33 20 -76.5t17 -88.5t10 -90.5t3 -83.5q0 -37 -6.5 -82t-21.5 -84t-39.5 -66t-59.5 -27q-34 0 -58.5 26t-40 65t-22.5 83.5t-7 81.5q0 60 12.5 106.5t32.5 87t46.5 77t61.5 74.5q-5 6 -13 11.5t-16 5.5q-18 0 -34 -6
t-30 -13.5t-25 -13.5t-18 -6q-8 0 -14 5t-6 13q0 1 0.5 2t0.5 2q6 21 20 54.5t27.5 68t24 66t10.5 49.5q0 10 -6.5 16t-16 9t-20 4t-17.5 1q-18 0 -35.5 -4.5t-35.5 -5.5q-3 -11 -7 -27.5t-9.5 -33.5t-11 -32t-11.5 -24q-4 -5 -7.5 -8.5t-11.5 -3.5t-14 6t-6 14
q0 1 5.5 17.5t12 37t13 39t7.5 24.5q-16 10 -25 26t-9 35q0 23 11 44t38 21q20 0 31 -16.5t11 -34.5q0 -11 -2 -21.5t-4 -21.5q15 2 29.5 6t30.5 4t34 -4t33 -12t24.5 -21.5t9.5 -33.5q0 -12 -4.5 -28.5t-10.5 -34t-12.5 -34t-10.5 -29.5q-5 -18 -12 -34.5t-16 -33.5
q12 6 33.5 9.5t35.5 3.5q34 0 58 -26q19 23 36 47.5t30 50.5l6 14t7 14q4 5 7.5 9t11.5 4t14.5 -6t6.5 -14zM35 348q0 4 -2 6q-5 -2 -6 -7.5t-1 -9.5v-6q0 -5 2 -9.5t4 -8.5q3 15 3 30v5zM323 -340q0 72 -9 150t-33 143q-25 -34 -47 -65t-40 -66t-28.5 -74.5t-10.5 -90.5
q0 -24 5 -58t15 -65t26 -53.5t38 -22.5q23 0 39 23t25.5 55t14.5 66.5t5 57.5z" />
    <glyph glyph-name="braceleft" unicode="{" horiz-adv-x="240" 
d="M196 -262q0 -8 -6.5 -14t-14.5 -6q-32 0 -50.5 20.5t-27.5 49.5t-11.5 61.5t-2.5 55.5q0 41 1 80.5t1 80.5q0 17 -1 43.5t-5.5 54t-14 50t-27.5 30.5q-5 2 -12.5 4t-14.5 5t-12 7.5t-5 11.5q0 8 5 12t12.5 6.5t15 4t12.5 4.5q18 9 28 32.5t14.5 51.5t5 56t0.5 46
q0 38 -0.5 76.5t-0.5 76.5q0 23 2 55t11 61.5t27 50t50 20.5q8 0 14.5 -6t6.5 -14t-4 -12.5t-9.5 -6.5t-12 -3.5t-11.5 -3.5q-13 -6 -19.5 -24t-9.5 -40t-3.5 -43.5t-0.5 -33.5q0 -38 1 -76.5t1 -76.5q0 -25 -1 -55t-7 -59.5t-18 -55.5t-33 -43q21 -17 32.5 -42.5t17 -55
t6.5 -59t1 -53.5q0 -42 -1 -83t-1 -83q0 -12 0.5 -32t3.5 -40.5t10 -37.5t20 -23q5 -2 11.5 -3t12.5 -3.5t10 -6.5t4 -12z" />
    <glyph glyph-name="bar" unicode="|" horiz-adv-x="174" 
d="M108 7q0 -8 -6.5 -14t-14.5 -6t-14 6t-6 14v711q0 8 6 14t14 6t14.5 -6t6.5 -14v-711z" />
    <glyph glyph-name="braceright" unicode="}" horiz-adv-x="240" 
d="M248 272q0 -7 -5 -11.5t-12.5 -7.5t-15 -5t-12.5 -4q-18 -8 -27.5 -31.5t-14 -51.5t-5 -56t-0.5 -45q0 -39 1 -78.5t1 -78.5q0 -23 -2.5 -55t-12 -61t-28 -49t-50.5 -20q-8 0 -14 6t-6 14t4 12t9.5 6.5t12 3.5t11.5 3q12 6 19 22.5t10.5 37t4 40t0.5 31.5q0 42 -0.5 83
t-0.5 83q0 25 1 55t6.5 59t17 55t32.5 43q-21 17 -33 43t-18 56t-7 60.5t-1 55.5q0 40 1 79t1 79q0 12 -0.5 32t-3.5 41t-10 38t-19 23q-5 3 -11.5 4t-12 3.5t-9.5 6.5t-4 12t6 14t14 6q32 0 50 -20.5t27 -49.5t11.5 -60.5t2.5 -54.5q0 -39 -0.5 -78t-0.5 -78q0 -17 0.5 -45
t5 -56.5t14.5 -52t28 -31.5q5 -2 13 -4t15 -4.5t12 -6.5t5 -12z" />
    <glyph glyph-name="asciitilde" unicode="~" horiz-adv-x="576" 
d="M375 544q0 -13 -10.5 -23.5t-24.5 -18t-29.5 -12t-26.5 -4.5q-27 0 -49.5 10.5t-42 22.5t-37 22.5t-34.5 10.5q-12 0 -20 -7t-14 -16t-11.5 -16t-14.5 -7q-8 0 -14.5 5t-6.5 13q0 5 1 7q11 24 32 40.5t48 16.5q25 0 45 -10.5t39 -22.5t38 -22.5t41 -10.5q17 0 30 8.5
t21 22.5q6 10 18 10q8 0 15 -5t7 -14z" />
    <glyph glyph-name="Euro" unicode="&#x20ac;" horiz-adv-x="782" 
d="M760 156q0 -5 -4 -11q-24 -37 -56 -67t-70 -51t-80 -32.5t-86 -11.5q-71 0 -131.5 26t-107 71t-77.5 105t-42 127q-11 -2 -21 -4t-21 -2t-20 4t-9 17q0 8 5 13.5t13 6.5l48 5q-1 8 -1 15v15v24t2 23q-14 -2 -29.5 -4t-29.5 -2q-8 0 -14 5.5t-6 14.5q0 8 5 13.5t13 6.5
l68 7q14 65 45.5 121.5t78 98t105.5 65.5t127 24q31 0 64 -6.5t64.5 -19t60 -30.5t49.5 -41q7 -7 7 -13q0 -8 -6.5 -15t-14.5 -7q-6 0 -14 6q-26 20 -49 36t-47.5 27t-52 17t-61.5 6q-59 0 -110 -20.5t-91.5 -56t-68.5 -83.5t-42 -104l402 45h3q8 0 14.5 -5.5t6.5 -14.5
q0 -8 -5.5 -13.5t-13.5 -6.5l-415 -47q-2 -13 -3 -25.5t-1 -25.5v-13q0 -6 1 -12l426 47h3q8 0 14.5 -5.5t6.5 -14.5q0 -8 -5.5 -13.5t-13.5 -6.5l-426 -47q10 -60 37 -113t68.5 -93.5t95 -64t116.5 -23.5q72 0 135 32t106 90q5 6 8.5 12t8.5 11q6 8 17 8q8 0 14.5 -6
t6.5 -14z" />
    <glyph glyph-name="quotesinglbase" unicode="&#x201a;" horiz-adv-x="113" 
d="M85 679q0 -4 -6 -13.5t-13.5 -22t-14 -26.5t-6.5 -26q0 -7 3.5 -15t7.5 -14.5t7.5 -12t3.5 -8.5q0 -8 -7 -13.5t-15 -5.5q-9 0 -16.5 8t-13 19.5t-8.5 23t-3 18.5q0 8 5.5 26t14.5 36t19.5 32t19.5 14q8 0 15 -6t7 -14z" />
    <glyph glyph-name="ellipsis" unicode="&#x2026;" horiz-adv-x="382" 
d="M350 32q0 -17 -15 -27.5t-31 -10.5t-30.5 10.5t-14.5 27.5t14.5 27.5t30.5 10.5t31 -10.5t15 -27.5zM232 32q0 -17 -15 -27.5t-31 -10.5t-31 10t-15 28t15 28t31 10t31 -10.5t15 -27.5zM108 32q0 -17 -15 -27.5t-31 -10.5t-30.5 10.5t-14.5 27.5t14.5 27.5t30.5 10.5
t31 -10.5t15 -27.5z" />
    <glyph glyph-name="circumflex" unicode="&#x2c6;" horiz-adv-x="576" 
d="M370 469q0 -8 -6.5 -13t-14.5 -5q-6 0 -19 10.5t-27 24.5t-26 27t-17 19q-5 -5 -17.5 -18.5t-27 -27.5t-27.5 -24.5t-19 -10.5q-8 0 -14 5t-6 13q0 9 12 20t18 16q12 11 22.5 22t20.5 23q6 8 16.5 19.5t21.5 11.5q6 0 13 -5q13 -11 22.5 -24t20.5 -25t24 -23t24 -24
q6 -6 6 -11z" />
    <glyph glyph-name="guilsinglleft" unicode="&#x2039;" horiz-adv-x="473" 
d="M285 161q0 -8 -7 -14t-15 -6q-9 0 -16 9l-145 189q-2 2 -2.5 5.5t-0.5 6.5t0.5 6.5t2.5 5.5l145 189q6 8 16 8q8 0 15 -6t7 -14q0 -3 -1.5 -6t-3.5 -5l-137 -178l137 -177q5 -7 5 -13z" />
    <glyph glyph-name="OE" unicode="&#x152;" horiz-adv-x="1053" 
d="M1026 189q0 -43 -17 -80.5t-45 -65t-62.5 -43t-70.5 -15.5q-46 0 -85.5 19t-71.5 51.5t-55 75.5t-35 91q-19 -52 -46.5 -95t-62.5 -74.5t-78 -49.5t-94 -18q-82 0 -143 39t-101 103.5t-59.5 146.5t-19.5 166q0 62 9 124t30 117t55 101.5t84 79.5q5 3 11 3q8 0 13.5 -7.5
t5.5 -16.5q0 -12 -10 -20q-13 -10 -26.5 -20t-25.5 -22q-31 -31 -51 -71t-32 -85t-17 -91.5t-5 -91.5q0 -74 16.5 -147.5t51 -131t87.5 -94t126 -36.5q66 0 118 36t88 93t55 127t19 139q0 44 -4.5 86.5t-15.5 84.5q-10 44 -29.5 88.5t-47 81.5t-63.5 60.5t-80 23.5
q-37 0 -65.5 -15t-47.5 -41.5t-28.5 -62t-9.5 -75.5q0 -20 11.5 -37.5t29.5 -17.5q12 0 19.5 9.5t12 22.5t6.5 27.5t2 25.5q0 10 6.5 16.5t14.5 6.5t14 -6.5t6 -16.5q0 -21 -5 -43.5t-14.5 -42t-25 -32.5t-36.5 -13q-18 0 -33 9t-26 22.5t-17 31.5t-6 38q0 50 12.5 94t37 77
t60.5 52t82 19q65 0 115 -39t84.5 -98t54.5 -129.5t26 -134.5q31 48 80 77q-13 19 -21 46q-22 1 -41.5 13t-34.5 31t-23.5 43.5t-8.5 48.5q0 33 10 61t28 48t42.5 31.5t52.5 11.5q8 0 14.5 -6.5t6.5 -16.5t-6.5 -16.5t-14.5 -6.5q-41 0 -66.5 -29.5t-25.5 -76.5
q0 -30 16.5 -55.5t42.5 -31.5q-1 6 -0.5 12t0.5 12q0 48 19 87.5t50 68t69.5 44t77.5 15.5q43 0 70 -26.5t27 -78.5q0 -49 -28 -83t-68.5 -55.5t-85.5 -32t-78 -12.5q6 -15 15 -28q21 8 43 13t44 5q10 0 23 -3t24.5 -9.5t19.5 -17t8 -23.5q0 -17 -7 -29t-18.5 -20.5
t-24.5 -12.5t-25 -4q-29 0 -50.5 12.5t-44.5 32.5q-54 -30 -86.5 -85.5t-32.5 -125.5q0 -53 15 -106t43 -95t68 -68t91 -26q27 0 54.5 12t49.5 34t36 51t14 61q0 22 -13 41t-33 19q-22 0 -30 -7t-11 -15t-5.5 -15t-12.5 -7q-11 0 -17.5 10.5t-6.5 21.5q0 14 9.5 25
t22.5 18.5t27 11t24 3.5q18 0 34 -8.5t28 -23.5t18.5 -34t6.5 -40zM945 804q0 31 -15 45t-41 14q-35 0 -66.5 -15.5t-56.5 -42.5q-28 -30 -39.5 -62t-11.5 -76q24 1 63 8.5t76 23.5t64 41.5t27 63.5zM858 555q0 3 -4 4.5t-9 2.5t-10 1h-7q-12 0 -24 -2t-24 -5q8 -9 22 -12.5
t25 -3.5q6 0 18.5 2.5t12.5 12.5z" />
    <glyph glyph-name="quoteleft" unicode="&#x2018;" horiz-adv-x="113" 
d="M85 679q0 -4 -6 -13.5t-13.5 -22t-14 -26.5t-6.5 -26q0 -7 3.5 -15t7.5 -14.5t7.5 -12t3.5 -8.5q0 -8 -7 -13.5t-15 -5.5q-9 0 -16.5 8t-13 19.5t-8.5 23t-3 18.5q0 8 5.5 26t14.5 36t19.5 32t19.5 14q8 0 15 -6t7 -14z" />
    <glyph glyph-name="quoteright" unicode="&#x2019;" horiz-adv-x="198" 
d="M106 626q0 -8 -6 -26t-15 -36t-19.5 -32t-19.5 -14q-8 0 -14.5 5.5t-6.5 13.5q0 4 6.5 14t14 22.5t13.5 26.5t6 26q0 8 -3.5 15.5t-7.5 14t-7.5 12t-3.5 8.5q0 8 6.5 14t14.5 6q9 0 16.5 -8.5t13 -19.5t9 -23t3.5 -19z" />
    <glyph glyph-name="quotedblleft" unicode="&#x201c;" horiz-adv-x="224" 
d="M172 680q0 -4 -6.5 -14t-14 -23t-14 -27t-6.5 -26q0 -7 3.5 -15t7.5 -14.5t7.5 -12t3.5 -8.5q0 -8 -6.5 -13.5t-14.5 -5.5q-9 0 -16.5 8t-13 19.5t-9 23t-3.5 18.5q0 8 6 26t15 36.5t19.5 32.5t19.5 14q8 0 15 -5.5t7 -13.5zM102 680q0 -4 -6 -14t-13.5 -23t-14 -27
t-6.5 -26q0 -8 3.5 -15.5t8 -14t8 -12t3.5 -8.5q0 -8 -7 -13.5t-15 -5.5q-9 0 -16.5 8t-13 19.5t-9 23t-3.5 18.5q0 8 5.5 26t14.5 36.5t19.5 32.5t19.5 14q8 0 15 -5.5t7 -13.5z" />
    <glyph glyph-name="quotedblright" unicode="&#x201d;" horiz-adv-x="191" 
d="M166 632q0 -8 -6 -26t-15 -36.5t-19.5 -32.5t-19.5 -14q-8 0 -14.5 6t-6.5 14q0 4 6.5 14t14 22.5t13.5 26.5t6 26q0 8 -3.5 15.5t-7.5 14t-7.5 12t-3.5 8.5q0 8 6 13.5t14 5.5q9 0 16.5 -8t13.5 -19.5t9.5 -23t3.5 -18.5zM96 632q0 -8 -6 -26t-15 -36.5t-19.5 -32.5
t-19.5 -14q-8 0 -14.5 6t-6.5 14q0 4 6.5 14t14 22.5t13.5 26.5t6 26q0 8 -3.5 15.5t-7.5 14t-7.5 12t-3.5 8.5q0 8 6.5 13.5t14.5 5.5q9 0 16.5 -8t13 -19.5t9 -23t3.5 -18.5z" />
    <glyph glyph-name="endash" unicode="&#x2013;" horiz-adv-x="474" 
d="M421 172q0 -8 -6 -14t-15 -6h-326q-8 0 -14 6t-6 14q0 9 6 15t14 6h326q8 0 14.5 -6t6.5 -15z" />
    <glyph glyph-name="emdash" unicode="&#x2014;" horiz-adv-x="712" 
d="M589 172q0 -9 -6 -14.5t-15 -5.5h-425q-8 0 -14 6t-6 14q0 9 6 15t14 6h425q8 0 14.5 -6t6.5 -15z" />
    <glyph glyph-name="tilde" unicode="&#x2dc;" horiz-adv-x="576" 
d="M375 544q0 -13 -10.5 -23.5t-24.5 -18t-29.5 -12t-26.5 -4.5q-27 0 -49.5 10.5t-42 22.5t-37 22.5t-34.5 10.5q-12 0 -20 -7t-14 -16t-11.5 -16t-14.5 -7q-8 0 -14.5 5t-6.5 13q0 5 1 7q11 24 32 40.5t48 16.5q25 0 45 -10.5t39 -22.5t38 -22.5t41 -10.5q17 0 30 8.5
t21 22.5q6 10 18 10q8 0 15 -5t7 -14z" />
    <glyph glyph-name="guilsinglright" unicode="&#x203a;" horiz-adv-x="473" 
d="M376 354q0 -5 -4 -11l-146 -190q-6 -8 -16 -8q-8 0 -14.5 6t-6.5 14t4 12l137 177l-137 178q-4 4 -4 12t6.5 14t14.5 6q10 0 16 -8l146 -190q4 -4 4 -12z" />
    <glyph glyph-name="oe" unicode="&#x153;" horiz-adv-x="651" 
d="M672 155q0 -3 -2 -9q-34 -75 -94 -117t-143 -42q-45 0 -83.5 23.5t-60.5 63.5q-22 -40 -60.5 -63.5t-84.5 -23.5q-34 0 -64 13.5t-52.5 36t-35 53t-12.5 64.5t12.5 64.5t35 53.5t52.5 36.5t64 13.5q46 0 84.5 -23.5t60.5 -64.5q26 45 73 66.5t97 21.5q20 0 43 -6.5
t43 -19t33 -30.5t13 -41q0 -29 -16.5 -50t-41.5 -35t-53.5 -21t-52.5 -7q-29 0 -57 2.5t-56 9.5q10 -42 42.5 -70t76.5 -28q54 0 98 22.5t74 67.5q8 11 14 24t14 24q7 10 17 10q8 0 15 -5.5t7 -13.5zM550 225q0 14 -10 24.5t-24 18t-30 11.5t-27 4q-27 0 -52.5 -7.5
t-45.5 -21.5t-33.5 -35.5t-16.5 -50.5q28 -9 57.5 -12.5t58.5 -3.5q15 0 36 4t40.5 13t33 23t13.5 33zM284 156h-15l-1 -2v-1l1 -1l15 1v3zM269 154q0 26 -9.5 49.5t-26.5 41t-39.5 28t-49.5 10.5q-26 0 -48.5 -10.5t-39 -28.5t-26 -41t-9.5 -49q0 -25 9.5 -48.5t26 -41
t39 -28t48.5 -10.5t49 10.5t40 28t26.5 40.5t9.5 49z" />
    <glyph glyph-name="dieresis" unicode="&#xa8;" horiz-adv-x="360" 
d="M237 447q0 -18 -13 -30.5t-31 -12.5t-31.5 12.5t-13.5 30.5t13.5 30.5t31.5 12.5t31 -12.5t13 -30.5zM125 447q0 -18 -13 -30.5t-31 -12.5t-32 12.5t-14 30.5t14 30.5t32 12.5t31 -12.5t13 -30.5z" />
    <glyph glyph-name="bullet" unicode="&#x2022;" horiz-adv-x="240" 
d="M207 616q0 -32 -24.5 -52t-54.5 -20t-54 20t-24 52t24 51.5t54 19.5t54.5 -19.5t24.5 -51.5zM166 616q0 15 -12 24.5t-26 9.5t-25.5 -9.5t-11.5 -24.5t11.5 -25t25.5 -10t26 10t12 25z" />
    <glyph glyph-name="guillemotleft" unicode="&#xab;" horiz-adv-x="474" 
d="M413 10q0 -8 -6.5 -14t-14.5 -6q-10 0 -16 7l-146 172q-4 4 -4 12t4 13l146 174q6 7 16 7q8 0 14.5 -6t6.5 -14q0 -6 -5 -13l-135 -161l135 -159q5 -5 5 -12zM273 10q0 -8 -6.5 -14t-14.5 -6q-10 0 -16 7l-146 172q-4 4 -4 12t4 13l146 174q6 7 16 7q8 0 14.5 -6t6.5 -14
q0 -6 -5 -13l-135 -161l135 -159q5 -5 5 -12z" />
    <glyph glyph-name="minus" unicode="&#xad;" horiz-adv-x="712" 
d="M589 172q0 -9 -6 -14.5t-15 -5.5h-425q-8 0 -14 6t-6 14q0 9 6 15t14 6h425q8 0 14.5 -6t6.5 -15z" />
    <glyph glyph-name="degree" unicode="&#xb0;" horiz-adv-x="240" 
d="M207 616q0 -32 -24.5 -52t-54.5 -20t-54 20t-24 52t24 51.5t54 19.5t54.5 -19.5t24.5 -51.5zM166 616q0 15 -12 24.5t-26 9.5t-25.5 -9.5t-11.5 -24.5t11.5 -25t25.5 -10t26 10t12 25z" />
    <glyph glyph-name="acute" unicode="&#xb4;" horiz-adv-x="198" 
d="M106 626q0 -8 -6 -26t-15 -36t-19.5 -32t-19.5 -14q-8 0 -14.5 5.5t-6.5 13.5q0 4 6.5 14t14 22.5t13.5 26.5t6 26q0 8 -3.5 15.5t-7.5 14t-7.5 12t-3.5 8.5q0 8 6.5 14t14.5 6q9 0 16.5 -8.5t13 -19.5t9 -23t3.5 -19z" />
    <glyph glyph-name="cedilla" unicode="&#xb8;" horiz-adv-x="373" 
d="M301 -144q0 -15 -8.5 -26.5t-21.5 -19t-28 -11t-28 -3.5t-26.5 2t-26.5 7t-23 13.5t-16 21.5q-1 2 -1 6q0 8 6.5 13.5t14.5 5.5t12 -5t10 -10.5t17.5 -10.5t32.5 -5q5 0 12.5 1t14.5 3.5t12.5 7t5.5 10.5t-5.5 12.5t-13.5 11.5t-16.5 8.5t-14.5 3.5t-13 -3.5t-15 -3.5
q-16 0 -16 15q0 5 1 8q9 42 9 87q0 8 6.5 13.5t14.5 5.5t14.5 -5.5t6.5 -13.5q0 -16 -1.5 -32t-3.5 -32q14 -1 29.5 -7t28.5 -16t21.5 -23.5t8.5 -28.5z" />
    <glyph glyph-name="ordmasculine" unicode="&#xba;" horiz-adv-x="500" 
 />
    <glyph glyph-name="guillemotright" unicode="&#xbb;" horiz-adv-x="474" 
d="M415 181q0 -7 -5 -12l-146 -172q-6 -7 -16 -7q-8 0 -14 6t-6 14t4 12l135 159l-135 161q-4 5 -4 13t6 14t14 6q10 0 16 -7l146 -174q5 -7 5 -13zM275 181q0 -7 -5 -12l-146 -172q-6 -7 -16 -7q-8 0 -14 6t-6 14t4 12l135 159l-135 161q-4 5 -4 13t6 14t14 6q10 0 16 -7
l146 -174q5 -7 5 -13z" />
    <glyph glyph-name="Aring" unicode="&#xc5;" horiz-adv-x="733" 
d="M414 865q0 -27 -20.5 -44.5t-46.5 -17.5t-46.5 17.5t-20.5 44.5t20.5 44t46.5 17t46.5 -17t20.5 -44zM701 164q0 -36 -13 -68t-35.5 -56t-54 -38.5t-67.5 -14.5q-55 0 -86.5 29.5t-47 73t-19.5 93.5t-4 91q0 29 2 58.5t4 58.5q-25 6 -49.5 13.5t-50.5 12.5q0 -39 0.5 -86
t-3 -95t-14 -92.5t-33 -79.5t-59.5 -56t-94 -21q-15 0 -32 4t-31.5 12t-24 20.5t-9.5 30.5q0 25 18.5 41.5t42.5 16.5q20 0 20 -20q0 -11 -6 -15t-13.5 -6t-14 -5t-6.5 -12q0 -8 6.5 -13.5t15.5 -8.5t18.5 -4t15.5 -1q58 0 90.5 29t48.5 72t19.5 93.5t3.5 93.5v107
q-2 0 -4.5 0.5t-5.5 0.5q-13 0 -24 -4t-19 -8.5t-14 -8.5t-11 -4q-8 0 -14.5 6t-6.5 14q0 5 2.5 9t5.5 7q19 17 42 24t49 5q0 38 2 74.5t2 74.5q0 24 5 54.5t17.5 57t33 45t50.5 18.5q32 0 49 -19.5t25 -47.5t9.5 -58.5t1.5 -53.5q0 -47 -3.5 -92.5t-7.5 -91.5q7 -1 14 -1.5
t14 -0.5q13 0 23.5 6t18.5 12.5t15 12.5t14 6q8 0 14 -6.5t6 -14.5t-6 -14q-17 -17 -38.5 -29.5t-46.5 -12.5q-8 0 -16 0.5t-16 1.5q-2 -29 -3 -58.5t-1 -58.5q0 -30 2 -71.5t13 -79t34.5 -63.5t66.5 -26q28 0 51.5 11.5t41 30t27 43.5t9.5 52q0 19 -12.5 35.5t-32.5 16.5
q-14 0 -19 -7t-7 -15t-5.5 -15t-15.5 -7q-8 0 -14.5 5.5t-6.5 14.5q0 28 20.5 46t47.5 18q19 0 34.5 -7.5t27 -20.5t18 -29.5t6.5 -34.5zM381 865q0 14 -10.5 22.5t-23.5 8.5t-23 -8.5t-10 -22.5t9.5 -23t23.5 -9t24 9t10 23zM393 617q0 11 -0.5 32.5t-4.5 43t-13 37.5
t-26 16q-20 0 -32.5 -15.5t-20 -37t-10 -44t-2.5 -37.5q0 -38 -2 -77t-2 -77q26 -5 51.5 -12.5t51.5 -13.5q4 47 7 92.5t3 92.5z" />
    <glyph glyph-name="Adieresis" unicode="&#xc4;" horiz-adv-x="733" 
d="M450 845q0 -18 -13 -31.5t-31 -13.5t-31.5 13.5t-13.5 31.5t13.5 31t31.5 13t31 -13t13 -31zM338 845q0 -18 -13 -31.5t-31 -13.5t-32 13.5t-14 31.5t14 31t32 13t31 -13t13 -31zM701 165q0 -36 -13 -68t-35.5 -56.5t-54 -39t-67.5 -14.5q-55 0 -86.5 29.5t-47 73.5
t-19.5 94t-4 91q0 29 2 58.5t4 58.5q-25 6 -49.5 13.5t-50.5 12.5q0 -39 0.5 -86t-3 -95t-14 -93t-33 -80t-59.5 -56t-94 -21q-15 0 -32 4t-31.5 12t-24 20.5t-9.5 30.5q0 25 18.5 41.5t42.5 16.5q20 0 20 -20q0 -11 -6 -15t-13.5 -6t-14 -5t-6.5 -12q0 -8 6.5 -13.5
t15.5 -8.5t18.5 -4t15.5 -1q58 0 90.5 29t48.5 72.5t19.5 94t3.5 93.5v107q-2 0 -4.5 0.5t-5.5 0.5q-13 0 -24 -4t-19 -8.5t-14 -8.5t-11 -4q-8 0 -14.5 6t-6.5 14q0 5 2.5 9t5.5 7q19 17 42 24t49 5q0 38 2 74.5t2 74.5q0 24 5 54.5t17.5 57.5t33 45.5t50.5 18.5
q32 0 49 -19.5t25 -48t9.5 -59t1.5 -53.5q0 -47 -3.5 -92.5t-7.5 -91.5q7 -1 14 -1.5t14 -0.5q13 0 23.5 6t18.5 12.5t15 12.5t14 6q8 0 14 -6.5t6 -14.5t-6 -14q-17 -17 -38.5 -30t-46.5 -13q-8 0 -16 0.5t-16 1.5q-2 -29 -3 -58t-1 -58q0 -30 2 -71.5t13 -79t34.5 -64
t66.5 -26.5q28 0 51.5 11.5t41 30.5t27 44t9.5 52q0 19 -12.5 35t-32.5 16q-14 0 -19 -7t-7 -15t-5.5 -15t-15.5 -7q-8 0 -14.5 5.5t-6.5 14.5q0 28 20.5 46.5t47.5 18.5q19 0 34.5 -7.5t27 -20.5t18 -29.5t6.5 -34.5zM393 618q0 11 -0.5 32.5t-4.5 43t-13 37.5t-26 16
q-20 0 -32.5 -15.5t-20 -37t-10 -44t-2.5 -37.5q0 -38 -2 -76.5t-2 -77.5q26 -5 51.5 -13t51.5 -14q4 47 7 93t3 93z" />
    <glyph glyph-name="Acircumflex" unicode="&#xc2;" horiz-adv-x="780" 
d="M483 815q0 -8 -6 -14t-14 -6q-7 0 -21 14.5t-28 31.5t-25.5 32t-14.5 16q-3 -6 -16 -21.5t-28 -31.5t-28.5 -28.5t-18.5 -12.5q-8 0 -14.5 6t-6.5 14q0 10 11.5 21.5t18.5 17.5q12 11 22.5 23.5t20.5 26.5q6 8 17 21t22 13q5 0 13 -6q13 -12 22 -26.5t20 -27.5
q11 -14 24.5 -25.5t24.5 -25.5q5 -5 5 -12zM748 160q0 -5 -3 -10q-14 -29 -30 -58t-37.5 -52.5t-49 -38t-64.5 -14.5q-55 0 -86.5 30t-47 73.5t-19.5 94t-4 90.5q0 23 1 45.5t3 45.5q-23 6 -46.5 12.5t-46.5 11.5v-117q0 -51 -4.5 -102t-23 -92t-55.5 -66.5t-102 -25.5
q-32 0 -60 12t-48.5 32.5t-32.5 48.5t-12 60q0 24 9.5 45.5t25 37.5t37 25.5t45.5 9.5q16 0 31 -5.5t27 -16t19 -24.5t7 -31q0 -8 -6 -14t-14 -6q-9 0 -12.5 3t-5 7.5t-2.5 10t-3 10.5q-12 25 -41 25q-32 0 -54 -23t-22 -54q0 -24 8.5 -44.5t23.5 -35.5t35.5 -24t44.5 -9
q33 0 56 8t38.5 23.5t25 39t15.5 54.5q6 30 7.5 60.5t1.5 60.5v123q-2 0 -4.5 0.5t-4.5 0.5q-11 0 -22.5 -4t-22 -9t-18.5 -9t-11 -4q-8 0 -14.5 6.5t-6.5 14.5t7 15q19 17 45.5 23.5t51.5 5.5q0 45 -0.5 89t-0.5 89q0 24 5 54.5t17 57t32.5 45t51.5 18.5q32 0 49 -19.5
t25 -47.5t9.5 -58.5t1.5 -53.5q0 -54 -4 -106.5t-8 -106.5q8 -1 14 -1h15q13 0 23 5.5t18.5 12.5t16 12.5t13.5 5.5q8 0 14 -6t6 -14q0 -6 -6 -14q-16 -17 -38.5 -30.5t-46.5 -13.5q-16 0 -33 3q-3 -45 -3 -89q0 -30 2 -71.5t13 -79t34.5 -64t66.5 -26.5q41 0 67 24t43 52.5
t29 52.5t25 24q8 0 14 -6t6 -14zM426 619q0 12 -0.5 33.5t-4.5 42.5t-13 37t-26 16q-20 0 -32.5 -15.5t-20 -37t-10 -44t-2.5 -37.5q0 -46 0.5 -91.5t0.5 -91.5q24 -5 48 -12.5t48 -13.5q5 54 8.5 107t3.5 107z" />
    <glyph glyph-name="Ecircumflex" unicode="&#xca;" horiz-adv-x="521" 
d="M402 815q0 -8 -6 -14t-14 -6q-7 0 -21 14.5t-28 31.5t-25.5 32t-14.5 16q-3 -6 -16 -21.5t-28 -31.5t-28.5 -28.5t-18.5 -12.5q-8 0 -14.5 6t-6.5 14q0 10 11.5 21.5t18.5 17.5q12 11 22.5 23.5t20.5 26.5q6 8 17 21t22 13q5 0 13 -6q13 -12 22 -26.5t20 -27.5
q11 -14 24.5 -25.5t24.5 -25.5q5 -5 5 -12zM494 164q0 -37 -17 -69.5t-44.5 -56.5t-62 -37.5t-70.5 -13.5q-59 0 -107 25.5t-82 67.5t-52.5 95t-18.5 108q0 69 34.5 126.5t97.5 88.5q-7 10 -12.5 20t-9.5 21q-24 2 -54 9.5t-55.5 21.5t-43 35.5t-17.5 51.5t21 54.5
t51.5 41.5t64 26.5t58.5 9.5q8 0 14 -5.5t6 -14.5t-6 -14.5t-14 -5.5q-16 0 -42 -7t-51 -19.5t-43 -29t-18 -36.5t13.5 -33.5t32 -22.5t39.5 -13.5t36 -6.5q-1 5 -1 10v11q0 38 20.5 72t52.5 59.5t70.5 40.5t73.5 15q43 0 69.5 -23t26.5 -68q0 -43 -28 -72.5t-68.5 -48
t-85.5 -27.5t-78 -11q6 -13 15 -24q21 7 43 11t44 4q10 0 23 -2.5t24.5 -8t19.5 -14.5t8 -21q0 -14 -7 -24.5t-18.5 -17.5t-24.5 -10.5t-25 -3.5q-26 0 -50.5 10.5t-44.5 27.5q-55 -25 -87.5 -74t-32.5 -109q0 -46 15.5 -92t44 -82.5t69 -59t90.5 -22.5q27 0 54.5 10.5
t49 29.5t35.5 44t14 53q0 19 -12.5 35.5t-32.5 16.5q-22 0 -30 -6t-11 -13t-5 -13t-13 -6t-18 9t-7 19q0 12 9.5 21.5t23 16t27.5 9.5t24 3q18 0 34 -7.5t27.5 -20.5t18 -29.5t6.5 -34.5zM413 698q0 27 -14.5 39t-40.5 12q-24 0 -47.5 -7.5t-45 -21t-39 -31t-29.5 -38.5
q-6 -11 -10.5 -23t-4.5 -26v-12q0 -5 1 -11q24 1 63 7.5t76 20.5t64 36t27 55zM326 482q0 2 -4 3.5t-9 2.5t-10 1h-6q-12 0 -24 -2l-24 -4q8 -8 22 -11t25 -3q5 0 17.5 2.5t12.5 10.5z" />
    <glyph glyph-name="Ccedilla" unicode="&#xc7;" horiz-adv-x="576" 
d="M508 155q0 -36 -15.5 -66t-40.5 -52t-57 -35.5t-66 -16.5q0 -23 -3 -47q14 -1 29.5 -7.5t28.5 -17t21.5 -24t8.5 -29.5t-8.5 -28t-21 -20t-27.5 -12t-29 -4q-27 0 -53.5 9.5t-38.5 36.5q-1 2 -1 8q0 8 6 13.5t14 5.5q9 0 12.5 -5t9.5 -11.5t17 -11.5t34 -5q5 0 12.5 1.5
t15 4.5t12.5 7.5t5 10.5t-5.5 13t-13.5 12t-16.5 8.5t-14.5 3.5t-12 -4t-14 -4t-13 5.5t-5 13.5q0 4 1 6q5 17 6 35l2 36q-55 6 -98.5 34.5t-73.5 71t-45.5 94t-15.5 102.5q0 38 3 75.5t11 74.5q-45 26 -67 71t-22 96q0 42 18.5 76.5t48.5 59t68 37.5t77 13q9 0 15 -5.5
t6 -14.5t-6 -14.5t-15 -5.5q-31 0 -61.5 -10t-55 -29t-39.5 -46t-15 -61q0 -35 14 -69t43 -56q14 53 40 108t63.5 100t87 74t111.5 29q22 0 39.5 -9.5t30 -24.5t19 -34.5t6.5 -39.5q0 -62 -28.5 -112t-73.5 -84.5t-102 -53t-114 -18.5q-13 0 -25.5 1t-24.5 5
q-6 -33 -8.5 -66t-2.5 -67q0 -47 14.5 -94t42.5 -84.5t68.5 -60.5t92.5 -23q27 0 54.5 9t49.5 26t35.5 41t13.5 54q0 22 -14.5 40.5t-37.5 18.5q-18 0 -25 -6t-10 -13.5t-6 -13.5t-14 -6q-20 0 -20 20q0 15 7 26t18 18.5t24 11t26 3.5q20 0 37 -8t29.5 -22t19.5 -31.5
t7 -37.5zM434 682q0 11 -3.5 23t-10.5 22t-17 16.5t-23 6.5q-54 0 -98 -28t-77 -71t-55 -94t-34 -97q20 -6 41 -6q48 0 97.5 15.5t89.5 45t65 71.5t25 96z" />
    <glyph glyph-name="Eacute" unicode="&#xc9;" horiz-adv-x="521" 
d="M414 906q0 -8 -18 -28t-41 -41t-45 -37t-31 -16q-8 0 -14.5 6t-6.5 14q0 6 5 12.5t12.5 13t15 11.5t11.5 8q15 11 29 22t26 25q5 6 16 18.5t20 12.5q8 0 14.5 -6.5t6.5 -14.5zM494 164q0 -37 -17 -69.5t-44.5 -56.5t-62 -37.5t-70.5 -13.5q-59 0 -107 25.5t-82 67.5
t-52.5 95t-18.5 108q0 69 34.5 126.5t97.5 88.5q-7 10 -12.5 20t-9.5 21q-24 2 -54 9.5t-55.5 21.5t-43 35.5t-17.5 51.5t21 54.5t51.5 41.5t64 26.5t58.5 9.5q8 0 14 -5.5t6 -14.5t-6 -14.5t-14 -5.5q-16 0 -42 -7t-51 -19.5t-43 -29t-18 -36.5t13.5 -33.5t32 -22.5
t39.5 -13.5t36 -6.5q-1 5 -1 10v11q0 38 20.5 72t52.5 59.5t70.5 40.5t73.5 15q43 0 69.5 -23t26.5 -68q0 -43 -28 -72.5t-68.5 -48t-85.5 -27.5t-78 -11q6 -13 15 -24q21 7 43 11t44 4q10 0 23 -2.5t24.5 -8t19.5 -14.5t8 -21q0 -14 -7 -24.5t-18.5 -17.5t-24.5 -10.5
t-25 -3.5q-26 0 -50.5 10.5t-44.5 27.5q-55 -25 -87.5 -74t-32.5 -109q0 -46 15.5 -92t44 -82.5t69 -59t90.5 -22.5q27 0 54.5 10.5t49 29.5t35.5 44t14 53q0 19 -12.5 35.5t-32.5 16.5q-22 0 -30 -6t-11 -13t-5 -13t-13 -6t-18 9t-7 19q0 12 9.5 21.5t23 16t27.5 9.5t24 3
q18 0 34 -7.5t27.5 -20.5t18 -29.5t6.5 -34.5zM413 698q0 27 -14.5 39t-40.5 12q-24 0 -47.5 -7.5t-45 -21t-39 -31t-29.5 -38.5q-6 -11 -10.5 -23t-4.5 -26v-12q0 -5 1 -11q24 1 63 7.5t76 20.5t64 36t27 55zM326 482q0 2 -4 3.5t-9 2.5t-10 1h-6q-12 0 -24 -2l-24 -4
q8 -8 22 -11t25 -3q5 0 17.5 2.5t12.5 10.5z" />
    <glyph glyph-name="Ntilde" unicode="&#xd1;" horiz-adv-x="627" 
d="M619 877q0 -7 -10.5 -18.5t-24 -22t-27 -18.5t-20.5 -8q-23 0 -39 12t-27.5 26.5t-20.5 26.5t-19 12q-6 0 -14 -8.5t-16.5 -18.5t-17.5 -18.5t-16 -8.5q-8 0 -14.5 6.5t-6.5 14.5t10.5 20.5t24.5 24t28 20t22 8.5q21 0 34.5 -11.5t24 -25.5t21 -26t24.5 -13q5 3 14 10.5
t19 16t19 14.5t12 6q8 0 14 -6.5t6 -14.5zM750 685q0 -18 -3.5 -39t-12.5 -38t-24 -28.5t-38 -11.5q-8 0 -14.5 6t-6.5 14q0 9 6.5 14.5t14.5 5.5q12 0 19.5 8.5t11.5 21t5 25.5t1 22t-8 18.5t-19 17.5t-22.5 13t-19.5 5q-24 0 -37.5 -14.5t-20 -35.5t-8 -44t-1.5 -40
q0 -89 1.5 -176.5t1.5 -176.5q0 -38 -0.5 -74.5t-4.5 -74.5q-2 -17 -6 -37.5t-12.5 -38.5t-23 -30t-36.5 -12q-23 0 -37.5 13t-23.5 32.5t-14 41.5t-8 39q-23 136 -39 271.5t-39 271.5q-1 5 -2.5 18.5t-4 28t-6 26t-6.5 11.5q-6 0 -9.5 -8t-5 -18t-2 -20t-0.5 -14
q0 -109 2.5 -217.5t2.5 -217.5q0 -47 -4 -93.5t-21 -84t-51 -61t-94 -23.5q-24 0 -50.5 12.5t-49 32.5t-37 45t-14.5 49q0 25 6.5 50t20 44.5t34.5 31.5t49 12q16 0 31.5 -5.5t27.5 -15t19.5 -23.5t7.5 -31q0 -9 -6 -14.5t-14 -5.5t-14.5 6t-6.5 14q0 17 -15.5 25.5
t-29.5 8.5q-19 0 -32 -9t-21.5 -23.5t-12 -31.5t-3.5 -33t11.5 -33.5t28.5 -32t36 -24t34 -9.5q49 0 75 21t38 53.5t14 72t2 75.5q0 107 -2.5 214t-2.5 214q0 15 2 34t8 35.5t18 27.5t32 11q17 0 28.5 -20t19.5 -47t12 -53.5t6 -38.5q11 -69 19.5 -136.5t16.5 -136.5
q8 -66 16.5 -131t22.5 -129q2 -7 4 -17.5t6.5 -20.5t11 -17t15.5 -7q14 0 21.5 15t11 34.5t5 39t1.5 28.5q1 35 1.5 70t0.5 70q0 78 -1 154.5t-1 154.5q0 29 2.5 61.5t13 61t32.5 47t60 18.5q16 0 35.5 -8t36 -21.5t27.5 -30t11 -34.5z" />
    <glyph glyph-name="Odieresis" unicode="&#xd6;" horiz-adv-x="659" 
d="M381 845q0 -18 -13 -31.5t-31 -13.5t-31.5 13.5t-13.5 31.5t13.5 31t31.5 13t31 -13t13 -31zM269 845q0 -18 -13 -31.5t-31 -13.5t-32 13.5t-14 31.5t14 31t32 13t31 -13t13 -31zM625 390q0 -70 -20.5 -142t-60.5 -130t-100 -94.5t-140 -36.5q-82 0 -143 34t-101 90
t-60 127t-20 144q0 56 9.5 109t31.5 100.5t57 87.5t85 69q5 3 11 3q8 0 13.5 -7t5.5 -15q0 -6 -2.5 -9.5t-7.5 -6.5q-14 -10 -28 -19.5t-27 -20.5q-30 -27 -50 -61.5t-33 -72.5t-18.5 -78.5t-5.5 -78.5q0 -64 17 -128t51.5 -114t88 -81.5t126.5 -31.5q71 0 123 34t87 86.5
t52 117t17 125.5q0 33 -6.5 72t-20 77.5t-33.5 74.5t-46.5 64t-60 44.5t-73.5 16.5q-37 0 -66.5 -14t-49 -37.5t-30 -55t-10.5 -66.5q0 -17 11.5 -32t29.5 -15q12 0 19.5 8t12 19.5t6.5 24t2 21.5t6.5 14.5t14.5 5.5t14 -5.5t6 -14.5q0 -18 -5 -37.5t-14.5 -36.5t-25 -28
t-36.5 -11q-18 0 -33 7.5t-26 19.5t-17 27.5t-6 32.5q0 44 13.5 82.5t39 68t62 46.5t82.5 17q69 0 122 -38.5t88.5 -97t53.5 -127t18 -127.5z" />
    <glyph glyph-name="Udieresis" unicode="&#xdc;" horiz-adv-x="929" 
d="M505 845q0 -18 -13 -31.5t-31 -13.5t-31.5 13.5t-13.5 31.5t13.5 31t31.5 13t31 -13t13 -31zM394 845q0 -18 -13 -31.5t-31 -13.5t-32 13.5t-14 31.5t14 31t32 13t31 -13t13 -31zM897 164q0 -36 -13 -68t-35.5 -56t-53.5 -38.5t-67 -14.5q-52 0 -93.5 29.5t-61.5 77.5
q-25 -50 -68 -78.5t-100 -28.5q-45 0 -81 20t-61.5 52t-39 72.5t-13.5 81.5v413q0 17 -4 37.5t-12.5 39.5t-23 31.5t-35.5 12.5q-28 0 -49 -16.5t-35.5 -41t-22 -52.5t-7.5 -51q0 -16 3 -38.5t11.5 -43.5t22 -35.5t34.5 -14.5q17 0 28 10t18 24.5t9.5 31t2.5 30.5
q0 9 6 14.5t14 5.5t14.5 -5.5t6.5 -14.5q0 -23 -5.5 -47t-17.5 -44t-31 -32.5t-45 -12.5q-31 0 -52.5 17.5t-35 43t-19 56t-5.5 55.5q0 33 10.5 68.5t30 65t48.5 48.5t66 19q31 0 53 -15.5t36 -39t20.5 -52t6.5 -54.5v-413q0 -33 10.5 -66t30.5 -59.5t48.5 -43.5t64.5 -17
t64.5 15t48.5 39.5t30.5 56t10.5 64.5v123v444q0 9 6.5 14.5t14.5 5.5t14 -5.5t6 -14.5v-444v-161q0 -26 9.5 -51t27 -44t41 -30.5t50.5 -11.5q28 0 51.5 11.5t40.5 30t26.5 43.5t9.5 52q0 19 -12.5 35.5t-32.5 16.5q-14 0 -19 -7t-7 -15t-5.5 -15t-15.5 -7q-8 0 -14.5 5.5
t-6.5 14.5q0 28 20.5 46t47.5 18q19 0 34.5 -7.5t27 -20.5t18 -29.5t6.5 -34.5z" />
    <glyph glyph-name="aacute" unicode="&#xe1;" horiz-adv-x="475" 
d="M254 504q0 -8 -18 -28t-41 -40.5t-45 -36.5t-31 -16q-8 0 -14 6t-6 14q0 10 7 16q15 13 31.5 23.5t31.5 23.5q14 11 25 24t23 26q6 8 16 8q8 0 14.5 -6t6.5 -14zM497 158q0 -2 -2 -6q-8 -19 -24 -47.5t-36.5 -54.5t-44 -44.5t-47.5 -18.5q-31 0 -48 17t-23 46
q-23 -30 -56.5 -46.5t-71.5 -16.5q-35 0 -65 14t-52 37t-34.5 54t-12.5 65t12.5 65t34.5 54t52 37t65 14q36 0 69 -15t56 -43q0 7 -1 16.5t0.5 18.5t6 15t14.5 6q8 0 14.5 -6t6.5 -14v-207v-22q0 -12 3 -23t10 -18.5t20 -7.5q15 0 31.5 14.5t31 34.5t26 41t17.5 33
q4 8 9.5 17.5t16.5 9.5q8 0 15 -5.5t7 -13.5zM269 157q0 26 -9.5 49.5t-26.5 41.5t-40 29t-49 11q-27 0 -49.5 -11t-39 -29t-25.5 -41.5t-9 -49.5t9.5 -49.5t26 -41.5t39 -28.5t48.5 -10.5t49 10.5t40 28.5t26.5 41.5t9.5 49.5z" />
    <glyph glyph-name="agrave" unicode="&#xe0;" horiz-adv-x="476" 
d="M244 400q0 -8 -6 -14t-14 -6q-9 0 -31 15.5t-45.5 36t-41.5 40.5t-18 29q0 8 7 14t15 6q9 0 15 -7q12 -13 22.5 -26.5t24.5 -24.5q15 -13 31.5 -24t31.5 -23q9 -7 9 -16zM497 158q0 -4 -1 -6q-8 -19 -24 -47.5t-36.5 -54.5t-44 -44.5t-47.5 -18.5q-31 0 -48 17t-23 46
q-23 -30 -56.5 -46.5t-71.5 -16.5q-35 0 -65 14t-52.5 37t-35 54t-12.5 65t12.5 65t35 54t52.5 37t65 14q36 0 68.5 -15t55.5 -43q0 7 -0.5 16.5t0.5 18.5t6 15t15 6q8 0 14 -6t6 -14v-207q0 -9 0.5 -21.5t3.5 -23.5t10 -18.5t20 -7.5q15 0 31.5 14.5t30.5 34.5t25.5 41
t17.5 33q4 8 10 17.5t17 9.5q8 0 14.5 -5.5t6.5 -13.5zM269 157q0 26 -9.5 49.5t-26 41.5t-39.5 29t-49 11q-27 0 -49.5 -11t-39 -29t-26 -41.5t-9.5 -49.5t9.5 -49.5t26 -41.5t39.5 -28.5t49 -10.5t49 10.5t39.5 28.5t26 41.5t9.5 49.5z" />
    <glyph glyph-name="acircumflex" unicode="&#xe2;" horiz-adv-x="476" 
d="M259 416q0 -8 -6 -14t-14 -6q-7 0 -21 14t-28 31t-25.5 31.5t-14.5 15.5q-3 -6 -16 -21t-28 -31t-28.5 -28t-18.5 -12q-8 0 -14.5 6t-6.5 14q0 10 11.5 21t18.5 17q24 22 43 49q6 8 17 21t22 13q5 0 13 -6q13 -11 22 -25.5t20 -27.5q11 -14 24.5 -25.5t24.5 -25.5
q5 -5 5 -11zM497 158q0 -4 -1 -6q-8 -19 -24 -47.5t-36.5 -54.5t-44 -44.5t-47.5 -18.5q-31 0 -48 17.5t-23 46.5q-23 -30 -56.5 -47t-71.5 -17q-35 0 -65 14t-52.5 37t-35 54t-12.5 65t12.5 65t35 54.5t52.5 37.5t65 14q36 0 68.5 -15.5t55.5 -43.5q0 7 -0.5 16.5t0.5 18.5
t6 15t15 6q8 0 14 -6t6 -14v-207q0 -9 0.5 -21.5t3.5 -23.5t10 -18.5t20 -7.5q15 0 31.5 14.5t30.5 34.5t25.5 41t17.5 33q4 8 10 17.5t17 9.5q8 0 14.5 -5.5t6.5 -13.5zM269 157q0 26 -9.5 49.5t-26 41.5t-39 29t-49.5 11t-49.5 -11t-39 -29t-26 -41.5t-9.5 -49.5
t9.5 -49.5t26 -41.5t39 -28.5t49.5 -10.5q26 0 49 10.5t39.5 28.5t26 41.5t9.5 49.5z" />
    <glyph glyph-name="adieresis" unicode="&#xe4;" horiz-adv-x="476" 
d="M243 447q0 -18 -13 -30.5t-31 -12.5t-32 12.5t-14 30.5t14 30.5t32 12.5t31 -12.5t13 -30.5zM131 447q0 -18 -13 -30.5t-31 -12.5t-32 12.5t-14 30.5t14 30.5t32 12.5t31 -12.5t13 -30.5zM497 157q0 -3 -1 -5q-8 -19 -24 -47.5t-36.5 -54.5t-44.5 -44.5t-47 -18.5
q-31 0 -48 17t-23 46q-23 -29 -56.5 -46t-71.5 -17q-35 0 -65 13.5t-52.5 37t-35 54t-12.5 64.5t12.5 65t35 54.5t52.5 37.5t65 14q36 0 68.5 -16t55.5 -43q0 7 -0.5 16.5t0.5 18.5t6 15t15 6q8 0 14 -6t6 -14v-206q0 -9 0.5 -21.5t3.5 -23.5t10 -18.5t20 -7.5
q15 0 31.5 14.5t30.5 34.5t25.5 41t17.5 33q4 8 10 17t17 9q8 0 14.5 -5.5t6.5 -13.5zM269 156q0 26 -9.5 49.5t-26 41.5t-39.5 29t-49 11q-27 0 -49.5 -11t-39 -29t-26 -41.5t-9.5 -49.5t9.5 -49.5t26 -41t39.5 -28t49 -10.5t49 10.5t39.5 28t26 41t9.5 49.5z" />
    <glyph glyph-name="atilde" unicode="&#xe3;" horiz-adv-x="476" 
d="M301 455q0 -7 -10.5 -18.5t-24 -22t-27 -18.5t-20.5 -8q-23 0 -39 12t-27 26t-20 26t-19 12q-6 0 -14 -8t-17 -18t-18 -18t-16 -8q-8 0 -14.5 6t-6.5 14t10.5 20.5t24.5 24t28.5 19.5t22.5 8q21 0 34.5 -11.5t24 -25.5t20.5 -25.5t24 -12.5q5 3 14 10.5t19 16t19 14.5
t12 6q8 0 14 -6.5t6 -14.5zM497 158q0 -4 -1 -6q-8 -19 -24 -47.5t-36.5 -54.5t-44.5 -44.5t-47 -18.5q-31 0 -48 17t-23 46q-23 -29 -56.5 -46t-71.5 -17q-35 0 -65 14t-52.5 37t-35 54t-12.5 65t12.5 65t35 54t52.5 37t65 14q36 0 68.5 -15.5t55.5 -42.5q0 7 -0.5 16.5
t0.5 18t6 14.5t15 6q8 0 14 -6t6 -14v-206q0 -9 0.5 -21.5t3.5 -23.5t10 -18.5t20 -7.5q15 0 31.5 14.5t30.5 34.5t25.5 41t17.5 33q4 8 10 17.5t17 9.5q8 0 14.5 -5.5t6.5 -13.5zM269 157q0 26 -9.5 49.5t-26 41.5t-39.5 28.5t-49 10.5q-27 0 -49.5 -10.5t-39 -28.5
t-26 -41.5t-9.5 -49.5t9.5 -49.5t26 -41.5t39.5 -28.5t49 -10.5t49 10.5t39.5 28.5t26 41.5t9.5 49.5z" />
    <glyph glyph-name="aring" unicode="&#xe5;" horiz-adv-x="476" 
d="M229 469q0 -27 -20 -44.5t-46 -17.5t-46.5 17.5t-20.5 44.5t20.5 44t46.5 17t46 -17t20 -44zM497 155q0 -4 -1 -6q-8 -19 -24 -47t-36.5 -53.5t-44.5 -43.5t-47 -18q-30 0 -47.5 16.5t-23.5 45.5q-23 -29 -56.5 -45.5t-71.5 -16.5q-34 0 -64.5 13.5t-52.5 36t-35 53
t-13 64.5t13 64.5t35 53.5t52.5 36.5t64.5 13.5q36 0 68.5 -15.5t55.5 -42.5q0 7 -0.5 16.5t0.5 18t6 14.5t15 6q8 0 14 -5.5t6 -13.5v-203q0 -9 0.5 -21.5t3.5 -23.5t10 -18.5t20 -7.5q15 0 31.5 14.5t30.5 34t25.5 40.5t17.5 33q4 8 10 17t17 9q8 0 14.5 -5.5t6.5 -13.5z
M197 469q0 14 -10.5 22.5t-23.5 8.5t-23.5 -8.5t-10.5 -22.5t10 -23t24 -9t24 9t10 23zM269 154q0 26 -9.5 49t-26 41t-39.5 28.5t-49 10.5t-49 -10.5t-39.5 -28.5t-26 -41t-9.5 -49q0 -25 9.5 -48.5t26 -41t39.5 -28t49 -10.5t49 10.5t39.5 28t26 40.5t9.5 49z" />
    <glyph glyph-name="edieresis" unicode="&#xeb;" horiz-adv-x="360" 
d="M237 447q0 -18 -13 -30.5t-31 -12.5t-31.5 12.5t-13.5 30.5t13.5 30.5t31.5 12.5t31 -12.5t13 -30.5zM125 447q0 -18 -13 -30.5t-31 -12.5t-32 12.5t-14 30.5t14 30.5t32 12.5t31 -12.5t13 -30.5zM382 157q0 -3 -1 -5q-31 -76 -91.5 -120.5t-144.5 -44.5
q-34 0 -64.5 13.5t-52.5 37t-35 54t-13 64.5q0 36 13 67t35.5 54t53 36.5t66.5 13.5q20 0 43 -6.5t42.5 -19.5t32.5 -31.5t13 -41.5q0 -28 -12.5 -49t-32.5 -35.5t-44.5 -22t-49.5 -7.5q-33 0 -60.5 7t-57.5 21q3 -23 13.5 -44t27 -36.5t37.5 -25t45 -9.5q55 0 99.5 23
t73.5 71q3 5 7.5 14t10 18t12 16t13.5 7q8 0 14.5 -5.5t6.5 -13.5zM238 228q0 14 -10 25t-24 18.5t-29.5 11.5t-26.5 4q-46 0 -80 -28t-44 -73q30 -16 56 -24t60 -8q16 0 33.5 4.5t31.5 13.5t23.5 23t9.5 33z" />
    <glyph glyph-name="ntilde" unicode="&#xf1;" horiz-adv-x="509" 
d="M322 457q0 -7 -10.5 -18.5t-24.5 -22t-28 -18.5t-21 -8q-23 0 -39 12t-27 26t-20 26t-19 12q-6 0 -14 -8t-16.5 -18t-17.5 -18t-16 -8q-8 0 -14.5 6t-6.5 14t10.5 20.5t24.5 24t28 19.5t22 8q21 0 34.5 -11.5t24 -25.5t20.5 -26t24 -13q5 3 14 11t19 16t19 14.5t12 6.5
q8 0 15 -6.5t7 -14.5zM530 158q0 -3 -2 -9q-6 -16 -22.5 -43.5t-38 -53.5t-44.5 -45.5t-41 -19.5q-28 0 -45.5 11t-27.5 29t-14 40.5t-4 45.5v116q0 29 -20.5 42.5t-46.5 13.5q-14 0 -25.5 -6.5t-20 -16.5t-13.5 -23t-5 -26v-206q0 -8 -6.5 -14t-14.5 -6t-14 6t-6 14v224
q0 6 -0.5 15t-3 17.5t-7.5 15t-13 6.5q-19 0 -30.5 -23t-20.5 -51t-19 -51t-25 -23q-8 0 -14 6t-6 14q0 5 5 19.5t11.5 31t13 31.5t9.5 21q6 11 13 22.5t16.5 21t21 15.5t25.5 6q18 0 31 -10t21 -26q14 17 34 26.5t43 9.5q22 0 41.5 -6.5t34.5 -18.5t23.5 -30t8.5 -41v-116
q0 -13 1 -28.5t6 -28t15 -21t28 -8.5q11 0 26 16t30 37t27 41.5t17 30.5q5 8 10.5 16.5t16.5 8.5q8 0 14.5 -5.5t6.5 -13.5z" />
    <glyph glyph-name="oacute" unicode="&#xf3;" horiz-adv-x="400" 
d="M233 504q0 -8 -18 -28t-41 -40.5t-45 -36.5t-31 -16q-8 0 -14.5 6t-6.5 14q0 9 9 16q23 18 45 34t42 37q6 7 11.5 13t11.5 13q6 8 16 8q8 0 14.5 -6t6.5 -14zM421 158q0 -3 -2 -9q-13 -28 -38.5 -44t-55.5 -16q-13 0 -27 3q-19 -48 -60.5 -76.5t-92.5 -28.5q-35 0 -65 14
t-52.5 37t-35 54t-12.5 65t12.5 65t35 54t52.5 37t65 14t65 -14t52.5 -37t35 -54t12.5 -65q0 -7 -0.5 -13t-1.5 -13q10 -2 17 -2q20 0 31 7.5t18 16.5t12.5 16.5t14.5 7.5q8 0 14 -5.5t6 -13.5zM269 158q0 11 -3 26.5t-8 26.5q-1 -4 -1 -8v-8q0 -20 12 -37zM261 109
q-20 15 -32.5 37.5t-12.5 48.5q0 14 3 28.5t13 25.5q-17 18 -39.5 28.5t-47.5 10.5q-27 0 -49.5 -11t-39 -29t-26 -41.5t-9.5 -49.5t9.5 -49.5t26 -41.5t39.5 -28.5t49 -10.5q39 0 70.5 23t45.5 59z" />
    <glyph glyph-name="ograve" unicode="&#xf2;" horiz-adv-x="400" 
d="M244 400q0 -8 -6 -14t-14 -6q-9 0 -31 15.5t-45.5 36t-41.5 40.5t-18 29q0 8 7 14t15 6q9 0 15 -7q12 -13 22.5 -26.5t24.5 -24.5q15 -13 31.5 -24t31.5 -23q9 -7 9 -16zM421 158q0 -3 -2 -9q-13 -28 -38.5 -44t-55.5 -16q-13 0 -27 3q-19 -48 -60.5 -76.5t-92.5 -28.5
q-35 0 -65 14t-52.5 37t-35 54t-12.5 65t12.5 65t35 54t52.5 37t65 14t65 -14t52.5 -37t35 -54t12.5 -65q0 -7 -0.5 -13t-1.5 -13q10 -2 17 -2q20 0 31 7.5t18 16.5t12.5 16.5t14.5 7.5q8 0 14 -5.5t6 -13.5zM269 158q0 11 -3 26.5t-8 26.5q-1 -4 -1 -8v-8q0 -20 12 -37z
M261 109q-20 15 -32.5 37.5t-12.5 48.5q0 14 3 28.5t13 25.5q-17 18 -39.5 28.5t-47.5 10.5q-27 0 -49.5 -11t-39 -29t-26 -41.5t-9.5 -49.5t9.5 -49.5t26 -41.5t39.5 -28.5t49 -10.5q39 0 70.5 23t45.5 59z" />
    <glyph glyph-name="ocircumflex" unicode="&#xf4;" horiz-adv-x="400" 
d="M254 416q0 -8 -6 -14t-14 -6q-7 0 -21 14t-28 31t-25.5 31.5t-14.5 15.5q-3 -6 -16 -21t-28 -31t-28.5 -28t-18.5 -12q-8 0 -14.5 6t-6.5 14q0 10 11.5 21t18.5 17q24 22 43 49q6 8 17 21t22 13q5 0 13 -6q13 -11 22 -25.5t20 -27.5q11 -14 24.5 -25.5t24.5 -25.5
q5 -5 5 -11zM421 158q0 -3 -2 -9q-13 -28 -38.5 -44t-55.5 -16q-13 0 -27 3q-19 -48 -60.5 -76.5t-92.5 -28.5q-35 0 -65 14t-52.5 37t-35 54t-12.5 65t12.5 65t35 54.5t52.5 37.5t65 14t65 -14t52.5 -37.5t35 -54.5t12.5 -65q0 -7 -0.5 -13t-1.5 -13q10 -2 17 -2
q20 0 31 7.5t18 16.5t12.5 16.5t14.5 7.5q8 0 14 -5.5t6 -13.5zM269 158q0 11 -3 26.5t-8 26.5q-1 -4 -1 -8v-8q0 -20 12 -37zM261 109q-20 15 -32.5 37.5t-12.5 48.5q0 14 3 29t13 26q-36 38 -87 38q-27 0 -49.5 -11t-39 -29t-26 -41.5t-9.5 -49.5t9.5 -49.5t26 -41.5
t39 -28.5t49.5 -10.5q39 0 70.5 23t45.5 59z" />
    <glyph glyph-name="odieresis" unicode="&#xf6;" horiz-adv-x="400" 
d="M232 447q0 -18 -13 -30.5t-31 -12.5t-31.5 12.5t-13.5 30.5t13.5 30.5t31.5 12.5t31 -12.5t13 -30.5zM120 447q0 -18 -13 -30.5t-31 -12.5t-32 12.5t-14 30.5t14 30.5t32 12.5t31 -12.5t13 -30.5zM421 157q0 -3 -2 -9q-13 -28 -38.5 -43.5t-55.5 -15.5q-13 0 -27 3
q-19 -48 -60.5 -76.5t-92.5 -28.5q-35 0 -65 13.5t-52.5 37t-35 54t-12.5 64.5t12.5 65t35 54.5t52.5 37.5t65 14t65 -14t52.5 -37.5t35 -54.5t12.5 -65q0 -7 -0.5 -12.5t-1.5 -12.5q10 -2 17 -2q20 0 31 7.5t18 16t12.5 16t14.5 7.5q8 0 14 -5.5t6 -13.5zM269 158
q0 11 -3 26t-8 26q-1 -4 -1 -8v-8q0 -19 12 -36zM261 109q-20 15 -32.5 37t-12.5 48q0 14 3 29t13 26q-36 38 -87 38q-27 0 -49.5 -11t-39 -29t-26 -41.5t-9.5 -49.5t9.5 -49.5t26 -41t39.5 -28t49 -10.5q39 0 70.5 23t45.5 59z" />
    <glyph glyph-name="otilde" unicode="&#xf5;" horiz-adv-x="400" 
d="M308 459q0 -7 -10.5 -18.5t-24 -22t-27 -18.5t-20.5 -8q-23 0 -39 12t-27 26t-20 26t-19 12q-6 0 -14 -8.5t-17 -18t-18 -18t-16 -8.5q-8 0 -14.5 6t-6.5 14t10.5 20.5t24.5 24t28.5 20t22.5 8.5q21 0 34.5 -11.5t24 -25.5t20.5 -26t24 -13q5 3 14 10.5t19 16t19 14.5
t12 6q8 0 14 -6t6 -14zM421 158q0 -3 -2 -9q-13 -28 -38.5 -44t-55.5 -16q-13 0 -27 3q-19 -48 -60.5 -76.5t-92.5 -28.5q-35 0 -65 14t-52.5 37t-35 54t-12.5 65t12.5 65t35 54t52.5 37t65 14t65 -14t52.5 -37t35 -54t12.5 -65q0 -7 -0.5 -13t-1.5 -13q10 -2 17 -2
q20 0 31 7.5t18 16.5t12.5 16.5t14.5 7.5q8 0 14 -5.5t6 -13.5zM269 158q0 11 -3 26.5t-8 26.5q-1 -4 -1 -8v-8q0 -20 12 -37zM261 109q-20 15 -32.5 37.5t-12.5 48.5q0 14 3 28.5t13 25.5q-36 38 -87 38q-27 0 -49.5 -10.5t-39 -28.5t-26 -41.5t-9.5 -49.5t9.5 -49.5
t26 -41.5t39.5 -28.5t49 -10.5q39 0 70.5 23t45.5 59z" />
    <glyph glyph-name="udieresis" unicode="&#xfc;" horiz-adv-x="473" 
d="M268 447q0 -18 -13 -30.5t-31 -12.5t-32 12.5t-14 30.5t14 30.5t32 12.5t31 -12.5t13 -30.5zM155 447q0 -18 -13 -30.5t-31 -12.5t-31.5 12.5t-13.5 30.5t13.5 30.5t31.5 12.5t31 -12.5t13 -30.5zM495 155q0 -2 -1 -4.5t-2 -4.5q-9 -19 -24.5 -46.5t-35.5 -52.5
t-43 -42.5t-47 -17.5q-49 0 -66 46q-1 2 -1 8t-1 8q-2 -2 -3 -9t-3 -9q-17 -20 -40 -32t-50 -12q-28 0 -54.5 9t-47.5 25.5t-33.5 41t-12.5 54.5v40v21q-1 -2 -1.5 -8t-1.5 -8q-5 -8 -11.5 -18t-14.5 -10t-14.5 6t-6.5 14q0 5 5 18t11.5 28.5t12.5 30.5t8 22q2 6 3.5 15
t4 18t5.5 17t7 12q6 6 15 6t14 -7t5 -15v-182q0 -22 9.5 -39t24.5 -28.5t34 -17.5t39 -6q23 0 39.5 12t27.5 30.5t16.5 40.5t5.5 41v149q0 8 6.5 14t14.5 6t14 -6t6 -14v-202q0 -9 0.5 -21.5t3.5 -23.5t10 -18.5t20 -7.5q14 0 28.5 12t28 29t24 34.5t16.5 28.5q5 8 8.5 17
t8.5 17q7 10 18 10q8 0 14.5 -5.5t6.5 -13.5z" />
    <glyph glyph-name="AE" unicode="&#xc6;" horiz-adv-x="848" 
d="M844 164q0 -37 -17.5 -69.5t-45 -56.5t-62.5 -38t-71 -14q-58 0 -106.5 22.5t-84 61t-57 89.5t-25.5 107q-1 12 -1 24v25q0 16 1 31.5t3 31.5q-15 2 -30 5l-30 6v-117q0 -50 -5 -101t-23.5 -92t-55.5 -66.5t-102 -25.5q-32 0 -60 12t-48.5 32.5t-32 48.5t-11.5 60
q0 24 9 45.5t25 37t37 25t45 9.5q16 0 31.5 -5.5t27.5 -15.5t19 -24t7 -31q0 -9 -6.5 -14.5t-14.5 -5.5t-14 5.5t-6 14.5q0 17 -14.5 26.5t-29.5 9.5q-32 0 -53.5 -22.5t-21.5 -54.5q0 -24 8.5 -44.5t23 -35.5t35 -24t44.5 -9q32 0 55 7t38.5 21.5t25.5 37t16 52.5
q8 39 10 79.5t2 80.5q0 23 -1 45t-1 45h-13q-11 0 -21.5 -3.5t-19.5 -8t-16 -8.5t-11 -4q-8 0 -14.5 6t-6.5 14t7 15q19 17 45 25t51 5v79q0 19 -1 36.5t-1 36.5q0 27 3 61.5t13.5 64.5t32 51t57.5 21q21 0 37 -10.5t27 -26.5t16.5 -35.5t5.5 -37.5q0 -60 -13 -117t-25 -115
q33 44 79 69q-10 22 -14.5 45.5t-4.5 47.5q0 40 22 73.5t55 58t71 38t69 13.5q39 0 69 -23t30 -68q0 -28 -14 -51t-35.5 -39.5t-48 -26t-51.5 -9.5q-8 0 -14 5.5t-6 14.5t6 14.5t14 5.5q16 0 34.5 6.5t35 18t27.5 27.5t11 34q0 26 -18.5 38t-39.5 12q-27 0 -57.5 -12
t-57 -32t-44 -45.5t-17.5 -52.5q0 -41 16 -76q26 9 52 13t53 4q15 0 33 -3.5t33.5 -11.5t26 -21t10.5 -32q0 -18 -11 -31t-27.5 -20.5t-34.5 -11t-33 -3.5q-37 0 -67.5 17.5t-51.5 46.5q-57 -32 -85.5 -87t-28.5 -119q0 -48 18.5 -92t50 -78t74 -54t90.5 -20q27 0 54.5 10.5
t49.5 29.5t36 44t14 53q0 19 -13 35.5t-31 16.5q-25 0 -34 -6t-11.5 -13t-3.5 -13t-11 -6q-11 0 -18 9t-7 19q0 15 9.5 25t23 15.5t28 7.5t24.5 2q18 0 33.5 -7.5t27 -20.5t18 -29.5t6.5 -34.5zM714 479q0 9 -7.5 14.5t-17.5 8.5t-20.5 4t-16.5 1q-21 0 -42.5 -3t-41.5 -10
q15 -19 36 -30t45 -11q6 0 17 1t21.5 4t18.5 8t8 13zM427 676q0 9 -2.5 21t-8 23t-14 18.5t-20.5 7.5q-24 0 -37 -18.5t-19 -44t-7 -52t-1 -43.5q0 -40 0.5 -79.5t0.5 -79.5q17 -3 32.5 -6t32.5 -5q6 32 13 64l14 64t11.5 64.5t4.5 65.5z" />
    <glyph glyph-name="Oslash" unicode="&#xd8;" horiz-adv-x="468" 
d="M437 258q0 -44 -12.5 -92t-38 -87.5t-63.5 -65.5t-89 -26q-33 0 -63 12.5t-54 35.5q-2 -6 -4.5 -14t-6 -15.5t-9 -13t-13.5 -5.5t-14 6t-6 14q0 3 3 12t7 19t8 19.5t6 13.5q-28 41 -42 89.5t-14 97.5v254q0 44 12.5 92t37.5 87.5t63 65.5t89 26q33 0 63 -12.5t54 -35.5
q3 9 10.5 24t19.5 15q8 0 15 -5t7 -14q0 -3 -3 -11t-6.5 -17t-7 -17t-5.5 -12q27 -41 41.5 -89.5t14.5 -96.5v-254v0zM334 692q-19 23 -44.5 37t-55.5 14q-42 0 -72 -23t-50 -57.5t-29.5 -75t-9.5 -75.5v-254q0 -74 33 -139l228 573v0zM396 512q0 72 -34 138l-228 -573
q19 -23 45 -36.5t55 -13.5q41 0 71.5 23t50.5 58t30 75.5t10 74.5v254z" />
    <glyph glyph-name="multiply" unicode="&#xd7;" horiz-adv-x="749" 
d="M532 221q0 -8 -6.5 -14t-14.5 -6t-14 6l-123 116l-122 -116q-6 -6 -14 -6t-14 6t-6 14t5 13l122 116l-122 117q-5 5 -5 13t6 14t14 6t14 -6l122 -116l123 116q6 6 14 6t14.5 -6t6.5 -14q0 -6 -7 -13l-121 -117l121 -116q7 -7 7 -13z" />
    <glyph glyph-name="Agrave" unicode="&#xc0;" horiz-adv-x="733" 
d="M433 809q0 -8 -6 -14.5t-14 -6.5t-30.5 16t-46 37t-41.5 41.5t-18 28.5t7 14t15 6q9 0 15 -7q12 -13 22.5 -26.5t24.5 -24.5q15 -13 31 -24.5t32 -23.5q9 -7 9 -16zM701 165q0 -36 -13 -68t-35.5 -56.5t-54 -39t-67.5 -14.5q-55 0 -86.5 30t-47 73.5t-19.5 94t-4 90.5
q0 29 2 58.5t4 58.5q-25 6 -49.5 14t-50.5 13q0 -39 0.5 -86t-3 -95t-14 -93.5t-33 -80.5t-59.5 -56t-94 -21q-15 0 -32 4t-31.5 12t-24 20.5t-9.5 30.5q0 24 18.5 41t42.5 17q20 0 20 -20q0 -11 -6 -15t-13.5 -6t-14 -5t-6.5 -12q0 -8 6.5 -13.5t15.5 -8.5t18.5 -4t15.5 -1
q58 0 90.5 29t48.5 72.5t19.5 94t3.5 93.5v108h-10q-12 0 -23 -4t-19.5 -8.5t-15 -8.5t-10.5 -4q-8 0 -14.5 6.5t-6.5 14.5t7 15q19 17 43 24t49 5q0 38 2 75t2 75q0 24 5 54.5t17.5 57t33 45t50.5 18.5q32 0 49 -19.5t25 -47.5t9.5 -58.5t1.5 -53.5q0 -47 -3.5 -93
t-7.5 -92q7 -1 14 -1.5t14 -0.5q13 0 23.5 6t18.5 12.5t15 12.5t14 6q8 0 14 -6.5t6 -14.5t-6 -14q-17 -17 -38.5 -29.5t-46.5 -12.5q-8 0 -16 0.5t-16 1.5q-2 -29 -3 -58.5t-1 -58.5q0 -30 2 -71.5t13 -79t34.5 -64t66.5 -26.5q28 0 51.5 11.5t41 30.5t27 44t9.5 52
q0 19 -12.5 35t-32.5 16q-14 0 -19 -7t-7 -15t-5.5 -15t-15.5 -7q-8 0 -14.5 5.5t-6.5 14.5q0 28 20.5 46.5t47.5 18.5q19 0 34.5 -7.5t27 -20.5t18 -29.5t6.5 -34.5zM393 618q0 11 -0.5 33t-4.5 43.5t-13 37.5t-26 16q-20 0 -32.5 -15.5t-20 -37t-10 -44t-2.5 -37.5
q0 -38 -2 -77t-2 -78q26 -5 51.5 -12.5t51.5 -13.5q4 47 7 92.5t3 92.5z" />
    <glyph glyph-name="Atilde" unicode="&#xc3;" horiz-adv-x="733" 
d="M485 877q0 -7 -10.5 -18.5t-24.5 -22t-27.5 -18.5t-20.5 -8q-23 0 -39 12t-27 26.5t-20 26.5t-19 12q-6 0 -14 -8.5t-16.5 -18.5t-17.5 -18.5t-16 -8.5q-8 0 -15 6.5t-7 14.5t10.5 20.5t24.5 24t28.5 20t22.5 8.5q21 0 34.5 -11.5t24 -25.5t20.5 -26t24 -13q5 3 14 10.5
t19.5 16t19.5 14.5t12 6q8 0 14 -6.5t6 -14.5zM701 165q0 -36 -13 -68t-35.5 -56.5t-54 -39t-67.5 -14.5q-55 0 -86.5 29.5t-47.5 73.5t-19.5 94t-3.5 91q0 29 2 58.5t4 58.5q-25 6 -49.5 14t-50.5 13q0 -39 0.5 -86t-3 -95t-14 -93.5t-33 -80.5t-59.5 -56t-94 -21
q-15 0 -32 4t-31.5 12t-24 20.5t-9.5 30.5q0 25 18.5 41.5t42.5 16.5q20 0 20 -20q0 -11 -6 -15t-13.5 -6t-14 -5t-6.5 -12q0 -8 6.5 -13.5t15.5 -8.5t18.5 -4t15.5 -1q58 0 90.5 29t48.5 72.5t19.5 94t3.5 93.5v108h-10q-13 0 -24 -4t-19 -8.5t-14 -8.5t-11 -4
q-8 0 -14.5 6.5t-6.5 14.5q0 5 2.5 8.5t5.5 6.5q19 17 42 24t49 5q0 38 2 75t2 75q0 24 5 54.5t17.5 57t33 45t50.5 18.5q32 0 49 -19.5t25 -47.5t9.5 -58.5t1.5 -53.5q0 -47 -3.5 -93t-7.5 -92q7 -1 14 -1.5t14 -0.5q13 0 23.5 6t18.5 12.5t15 12.5t14 6q8 0 14 -6.5
t6 -14.5t-6 -14q-17 -17 -38.5 -29.5t-46.5 -12.5q-8 0 -16 0.5t-16 1.5q-2 -29 -3 -58.5t-1 -58.5q0 -30 2 -71.5t13 -79t34.5 -64t66.5 -26.5q28 0 51.5 11.5t41 30.5t27 44t9.5 52q0 19 -12.5 35t-32.5 16q-14 0 -19 -7t-7 -15t-5.5 -15t-15.5 -7q-8 0 -14.5 5.5
t-6.5 14.5q0 28 20.5 46.5t47.5 18.5q19 0 34.5 -7.5t27 -20.5t18 -29.5t6.5 -34.5zM393 618q0 11 -0.5 33t-4.5 43.5t-13 37.5t-26 16q-20 0 -32.5 -15.5t-20 -37t-10 -44t-2.5 -37.5q0 -38 -2 -77t-2 -78q26 -5 51.5 -12.5t51.5 -13.5q4 47 7 92.5t3 92.5z" />
    <glyph glyph-name="Otilde" unicode="&#xd5;" horiz-adv-x="659" 
d="M448 880q0 -7 -10.5 -18.5t-24 -22t-27 -18.5t-20.5 -8q-23 0 -39 12t-27.5 26t-20.5 26t-19 12q-6 0 -14 -8.5t-16.5 -18.5t-17.5 -18.5t-16 -8.5q-8 0 -14.5 6.5t-6.5 14.5t10.5 20.5t24.5 24t28 20t22 8.5q21 0 34.5 -11.5t24 -25.5t21 -26t24.5 -13q5 3 14 10.5
t19 16t19 14.5t12 6q8 0 14 -6t6 -14zM625 390q0 -70 -20.5 -142t-60.5 -130t-100 -94.5t-140 -36.5q-82 0 -143 34t-101 90t-60 127t-20 144q0 56 9.5 109t31.5 100.5t57 87.5t85 69q5 3 11 3q8 0 13.5 -7t5.5 -15q0 -6 -2.5 -9.5t-7.5 -6.5q-14 -10 -28 -19.5t-27 -20.5
q-30 -27 -50 -61.5t-33 -72.5t-18.5 -78.5t-5.5 -78.5q0 -64 17 -128t51.5 -114t88 -81.5t126.5 -31.5q71 0 123 34t87 86.5t52 117t17 125.5q0 33 -6.5 72t-20 77.5t-33.5 74.5t-46.5 64t-60 44.5t-73.5 16.5q-37 0 -66.5 -14t-49 -37.5t-30 -55t-10.5 -66.5
q0 -17 11.5 -32t29.5 -15q12 0 19.5 8t12 19.5t6.5 24t2 21.5t6.5 14.5t14.5 5.5t14 -5.5t6 -14.5q0 -18 -5 -37.5t-14.5 -36.5t-25 -28t-36.5 -11q-18 0 -33 7.5t-26 19.5t-17 27.5t-6 32.5q0 44 13.5 82.5t39 68t62 46.5t82.5 17q69 0 122 -38.5t88.5 -97t53.5 -127
t18 -127.5z" />
    <glyph glyph-name="divide" unicode="&#xf7;" horiz-adv-x="474" 
d="M252 327q0 -18 -12.5 -31.5t-31.5 -13.5q-18 0 -31.5 13.5t-13.5 31.5q0 17 14 30t31 13t30.5 -13t13.5 -30zM373 181q0 -13 -8.5 -21.5t-21.5 -8.5h-271q-13 0 -21.5 8.5t-8.5 21.5t8.5 21.5t21.5 8.5h271q13 0 21.5 -8.5t8.5 -21.5zM253 34q0 -17 -13.5 -30.5
t-30.5 -13.5t-30.5 13.5t-13.5 30.5q0 18 13 31t31 13t31 -13t13 -31z" />
    <glyph glyph-name="perthousand" unicode="&#x2030;" horiz-adv-x="872" 
d="M829 110q0 -24 -8 -46.5t-23 -39.5t-36 -27.5t-46 -10.5t-46 10.5t-36 27.5t-23.5 39.5t-8.5 46.5q0 23 9.5 43.5t25 36t36.5 25t43 9.5q23 0 43.5 -9t36 -24.5t24.5 -36.5t9 -44zM253 676q0 -24 -8.5 -46.5t-23.5 -39.5t-36 -27.5t-46 -10.5t-46 10.5t-36 27.5
t-23.5 39.5t-8.5 46.5q0 23 9.5 43t25 36t36.5 25t43 9q23 0 44 -9t36.5 -24.5t24.5 -36t9 -43.5zM468 767q0 -3 -11 -32t-28.5 -74.5t-41 -103t-48 -119t-49.5 -122t-45.5 -111t-35.5 -87t-20 -50.5q-7 -18 -13 -36.5t-16 -35.5q-7 -13 -19 -13q-8 0 -14 6t-6 14q0 3 11 32
t28.5 74.5t40.5 103t48 119t49.5 122t45 111t35.5 87t20 50.5q7 18 13 36.5t16 35.5q7 13 19 13q8 0 14.5 -6t6.5 -14zM563 110q0 -24 -8.5 -46.5t-23.5 -39.5t-36 -27.5t-46 -10.5t-46 10.5t-36 27.5t-23.5 39.5t-8.5 46.5q0 23 9.5 43.5t25 36t36.5 25t43 9.5q23 0 44 -9
t36.5 -24.5t24.5 -36.5t9 -44zM788 110q0 29 -21 51t-51 22q-29 0 -51 -22t-22 -51q0 -15 5 -30t15 -27t23.5 -19.5t29.5 -7.5q17 0 30 7.5t22.5 19.5t14.5 27t5 30zM212 676q0 29 -22 51t-51 22t-51 -22t-22 -51q0 -15 5 -30t15 -27t23.5 -19t29.5 -7q17 0 30 7t23 19
t15 27t5 30zM522 110q0 29 -22 51t-51 22t-51 -22t-22 -51q0 -15 5 -30t15 -27t23.5 -19.5t29.5 -7.5q17 0 30 7.5t23 19.5t15 27t5 30z" />
    <glyph glyph-name="Idieresis" unicode="&#xcf;" horiz-adv-x="380" 
d="M346 845q0 -18 -13 -31.5t-31 -13.5t-31.5 13.5t-13.5 31.5t13.5 31t31.5 13t31 -13t13 -31zM234 845q0 -18 -13 -31.5t-31 -13.5t-32 13.5t-14 31.5t14 31t32 13t31 -13t13 -31zM473 738q0 -14 -7.5 -24.5t-19.5 -17t-25.5 -9.5t-25.5 -3q-15 0 -30.5 2.5t-29.5 7.5
q-11 -32 -15.5 -69.5t-4.5 -70.5q0 -76 1 -152t1 -152q0 -48 -8.5 -95t-30.5 -84.5t-58.5 -60.5t-93.5 -23q-15 0 -32 4t-31.5 12t-24 20.5t-9.5 30.5q0 25 18.5 41.5t42.5 16.5q20 0 20 -20q0 -11 -6 -15t-13.5 -6t-13.5 -5t-6 -12q0 -8 6.5 -13.5t15 -8.5t18 -4t15.5 -1
q47 0 76 20.5t45.5 53t22.5 72t6 77.5q0 76 -1 152t-1 152q0 38 4.5 77.5t17.5 74.5q-11 5 -27 12.5t-33 14.5t-33 12.5t-27 5.5q-24 0 -51 -6.5t-50 -20t-38.5 -34.5t-15.5 -49q0 -14 5 -28.5t14 -26t21.5 -18.5t28.5 -7q23 0 42.5 14t19.5 39q0 9 6.5 14.5t14.5 5.5
t14 -5.5t6 -14.5q0 -21 -8.5 -38t-23 -29.5t-33 -19t-38.5 -6.5q-24 0 -44 10t-35 26.5t-23 38.5t-8 45q0 37 18.5 65.5t47 47.5t63 28.5t67.5 9.5q15 0 33 -5.5t36 -13t35.5 -16t32.5 -14.5q14 22 35 35t47 13q12 0 25.5 -3t25 -9.5t19.5 -16.5t8 -24zM431 738q0 5 -4.5 7
t-10.5 3.5t-12 1.5h-9q-25 0 -40 -20q22 -5 40 -5q3 0 9 0.5t12 1.5t10.5 4t4.5 7z" />
    <glyph glyph-name="Igrave" unicode="&#xcc;" horiz-adv-x="380" 
d="M309 809q0 -8 -6 -14.5t-14 -6.5t-30 16.5t-45.5 37.5t-42 41t-18.5 28t7 14t15 6q9 0 15 -7q12 -13 23 -26t25 -25q15 -13 31.5 -24t31.5 -24q8 -6 8 -16zM473 739q0 -14 -7.5 -24.5t-19.5 -17t-25.5 -9.5t-25.5 -3q-31 0 -60 9q-11 -32 -15.5 -69.5t-4.5 -70.5
q0 -76 1 -152t1 -152q0 -48 -8.5 -95t-30 -84.5t-58.5 -60.5t-94 -23q-15 0 -32 4t-31.5 12t-24 20.5t-9.5 30.5q0 25 18.5 41.5t42.5 16.5q20 0 20 -20q0 -11 -6 -15t-13.5 -6t-13.5 -5t-6 -12q0 -8 6.5 -13.5t15 -8.5t18 -4t15.5 -1q47 0 76 20.5t45.5 53t22.5 72t6 77.5
q0 76 -1 152t-1 152q0 38 4.5 78t17.5 75q-11 5 -27 12.5t-33 14.5t-33 12.5t-27 5.5q-24 0 -51 -7t-50 -20.5t-38.5 -34.5t-15.5 -49q0 -14 5 -28t14 -25.5t21.5 -18.5t28.5 -7q23 0 42.5 14t19.5 39q0 9 6 14.5t15 5.5q20 0 20 -20q0 -21 -8.5 -38t-23 -29.5t-33 -19
t-38.5 -6.5q-24 0 -44.5 10t-35 26.5t-22.5 38t-8 44.5q0 37 18.5 65.5t47 47.5t63 28.5t67.5 9.5q15 0 33 -5t36 -12.5t35.5 -16t32.5 -14.5q14 22 35 34.5t47 12.5q12 0 25.5 -3t25 -9t19.5 -16t8 -24zM431 739q0 5 -4.5 7t-10.5 3.5t-12 1.5h-9q-24 0 -40 -21
q22 -5 40 -5q3 0 9 0.5t12 2t10.5 4.5t4.5 7z" />
    <glyph glyph-name="icircumflex" unicode="&#xee;" horiz-adv-x="249" 
d="M161 416q0 -8 -6.5 -14t-14.5 -6q-7 0 -21 14t-28 31t-25.5 31.5t-14.5 15.5q-3 -6 -16 -21t-28 -31t-28.5 -28t-18.5 -12q-8 0 -14 6t-6 14q0 10 11.5 21t18.5 17q24 22 43 49q6 8 16.5 21t21.5 13q5 0 13 -6q13 -11 22.5 -25.5t20.5 -27.5q11 -14 24 -25.5t24 -25.5
q6 -6 6 -11zM270 158q0 -3 -2 -9q-9 -24 -25 -52.5t-37 -53t-47 -40.5t-55 -16q-32 0 -47.5 21t-21.5 50.5t-5.5 60.5t0.5 52q-3 -8 -11.5 -21t-18.5 -13q-8 0 -14 6t-6 14q0 4 5 17.5t11 29.5t12 31t8 22q2 5 4 14.5t4.5 19t5.5 18t6 11.5q7 7 14 7q9 0 15 -7t6 -15
l-1 -206q0 -9 0.5 -21t4 -23.5t10.5 -19.5t19 -8q18 0 34.5 10t30 25t24.5 32.5t18 32.5q5 10 9 20.5t11 19.5q7 10 17 10q8 0 15 -5.5t7 -13.5z" />
    <glyph glyph-name="Ocircumflex" unicode="&#xd4;" horiz-adv-x="659" 
d="M403 815q0 -8 -6 -14t-14 -6q-7 0 -21 14.5t-28 31.5t-25.5 32t-14.5 16q-3 -6 -16 -21.5t-28 -31.5t-28.5 -28.5t-18.5 -12.5q-8 0 -14.5 6t-6.5 14q0 10 11.5 21.5t18.5 17.5q12 11 22.5 23.5t20.5 26.5q6 8 17 21t22 13q5 0 13 -6q13 -12 22 -26.5t20 -27.5
q11 -14 24.5 -25.5t24.5 -25.5q5 -5 5 -12zM625 390q0 -70 -20.5 -142t-60.5 -130t-100 -94.5t-140 -36.5q-82 0 -143 34t-101 90t-60 127t-20 144q0 56 9.5 109t31.5 100.5t57 87.5t85 69q5 3 11 3q8 0 13.5 -7t5.5 -15q0 -6 -2.5 -9.5t-7.5 -6.5q-14 -10 -28 -19.5
t-27 -20.5q-30 -27 -50 -61.5t-33 -72.5t-18.5 -78.5t-5.5 -78.5q0 -64 17 -128t51.5 -114t88 -81.5t126.5 -31.5q71 0 123 34t87 86.5t52 117t17 125.5q0 33 -6.5 72t-20 77.5t-33.5 74.5t-46.5 64t-60 44.5t-73.5 16.5q-37 0 -66.5 -14t-49 -37.5t-30 -55t-10.5 -66.5
q0 -17 11.5 -32t29.5 -15q12 0 19.5 8t12 19.5t6.5 24t2 21.5t6.5 14.5t14.5 5.5t14 -5.5t6 -14.5q0 -18 -5 -37.5t-14.5 -36.5t-25 -28t-36.5 -11q-18 0 -33 7.5t-26 19.5t-17 27.5t-6 32.5q0 44 13.5 82.5t39 68t62 46.5t82.5 17q69 0 122 -38.5t88.5 -97t53.5 -127
t18 -127.5z" />
    <glyph glyph-name="Ograve" unicode="&#xd2;" horiz-adv-x="659" 
d="M395 809q0 -8 -6 -14.5t-14 -6.5t-30.5 16t-46 37t-41.5 41.5t-18 28.5t6.5 14t14.5 6q9 0 15 -7q12 -13 23 -26t25 -25q15 -13 31 -24.5t32 -23.5q9 -7 9 -16zM625 390q0 -70 -20.5 -142t-60.5 -130t-100 -94.5t-140 -36.5q-82 0 -143 34t-101 90t-60 127t-20 144
q0 56 9.5 109t31.5 100.5t57 87.5t85 69q5 3 11 3q8 0 13.5 -7t5.5 -15q0 -6 -2.5 -9.5t-7.5 -6.5q-14 -10 -28 -19.5t-27 -20.5q-30 -27 -50 -61.5t-33 -72.5t-18.5 -78.5t-5.5 -78.5q0 -64 17 -128t51.5 -114t88 -81.5t126.5 -31.5q71 0 123 34t87 86.5t52 117t17 125.5
q0 33 -6.5 72t-20 77.5t-33.5 74.5t-46.5 64t-60 44.5t-73.5 16.5q-37 0 -66.5 -14t-49 -37.5t-30 -55t-10.5 -66.5q0 -17 11.5 -32t29.5 -15q12 0 19.5 8t12 19.5t6.5 24t2 21.5t6.5 14.5t14.5 5.5t14 -5.5t6 -14.5q0 -18 -5 -37.5t-14.5 -36.5t-25 -28t-36.5 -11
q-18 0 -33 7.5t-26 19.5t-17 27.5t-6 32.5q0 44 13.5 82.5t39 68t62 46.5t82.5 17q69 0 122 -38.5t88.5 -97t53.5 -127t18 -127.5z" />
    <glyph glyph-name="Uacute" unicode="&#xda;" horiz-adv-x="929" 
d="M471 911q0 -5 -8.5 -16.5t-21.5 -25t-29 -28t-31 -26.5t-27 -19.5t-18 -7.5q-8 0 -14.5 6.5t-6.5 14.5q0 9 9 16q23 18 45 34.5t42 37.5q6 7 11.5 14t11.5 13q7 7 17 7q8 0 14 -6t6 -14zM897 164q0 -36 -13 -68t-35.5 -56t-53.5 -38.5t-67 -14.5q-52 0 -93.5 29.5
t-61.5 77.5q-25 -50 -68 -78.5t-100 -28.5q-45 0 -81 20t-61.5 52t-39 72.5t-13.5 81.5v413q0 17 -4 37.5t-12.5 39.5t-23 31.5t-35.5 12.5q-28 0 -49 -16.5t-35.5 -41t-22 -52.5t-7.5 -51q0 -16 3 -38.5t11.5 -43.5t22 -35.5t34.5 -14.5q17 0 28 10t18 24.5t9.5 31
t2.5 30.5q0 9 6 14.5t14 5.5t14.5 -5.5t6.5 -14.5q0 -23 -5.5 -47t-17.5 -44t-31 -32.5t-45 -12.5q-31 0 -52.5 17.5t-35 43t-19 56t-5.5 55.5q0 33 10.5 68.5t30 65t48.5 48.5t66 19q31 0 53 -15.5t36 -39t20.5 -52t6.5 -54.5v-413q0 -33 10.5 -66t30.5 -59.5t48.5 -43.5
t64.5 -17t64.5 15t48.5 39.5t30.5 56t10.5 64.5v123v444q0 9 6.5 14.5t14.5 5.5t14 -5.5t6 -14.5v-444v-161q0 -26 9.5 -51t27 -44t41 -30.5t50.5 -11.5q28 0 51.5 11.5t40.5 30t26.5 43.5t9.5 52q0 19 -12.5 35.5t-32.5 16.5q-14 0 -19 -7t-7 -15t-5.5 -15t-15.5 -7
q-8 0 -14.5 5.5t-6.5 14.5q0 28 20.5 46t47.5 18q19 0 34.5 -7.5t27 -20.5t18 -29.5t6.5 -34.5z" />
    <glyph glyph-name="Ucircumflex" unicode="&#xdb;" horiz-adv-x="929" 
d="M494 815q0 -8 -6 -14t-14 -6q-7 0 -21 14.5t-28 31.5t-25.5 32t-14.5 16q-3 -6 -16 -21.5t-28 -31.5t-28.5 -28.5t-18.5 -12.5q-8 0 -14.5 6t-6.5 14q0 10 11.5 21.5t18.5 17.5q12 11 22.5 23.5t20.5 26.5q6 8 17 21t22 13q5 0 13 -6q13 -12 22 -26.5t20 -27.5
q11 -14 24.5 -25.5t24.5 -25.5q5 -5 5 -12zM897 164q0 -36 -13 -68t-35.5 -56t-53.5 -38.5t-67 -14.5q-52 0 -93.5 29.5t-61.5 77.5q-25 -50 -68 -78.5t-100 -28.5q-45 0 -81 20t-61.5 52t-39 72.5t-13.5 81.5v413q0 17 -4 37.5t-12.5 39.5t-23 31.5t-35.5 12.5
q-28 0 -49 -16.5t-35.5 -41t-22 -52.5t-7.5 -51q0 -16 3 -38.5t11.5 -43.5t22 -35.5t34.5 -14.5q17 0 28 10t18 24.5t9.5 31t2.5 30.5q0 9 6 14.5t14 5.5t14.5 -5.5t6.5 -14.5q0 -23 -5.5 -47t-17.5 -44t-31 -32.5t-45 -12.5q-31 0 -52.5 17.5t-35 43t-19 56t-5.5 55.5
q0 33 10.5 68.5t30 65t48.5 48.5t66 19q31 0 53 -15.5t36 -39t20.5 -52t6.5 -54.5v-413q0 -33 10.5 -66t30.5 -59.5t48.5 -43.5t64.5 -17t64.5 15t48.5 39.5t30.5 56t10.5 64.5v123v444q0 9 6.5 14.5t14.5 5.5t14 -5.5t6 -14.5v-444v-161q0 -26 9.5 -51t27 -44t41 -30.5
t50.5 -11.5q28 0 51.5 11.5t40.5 30t26.5 43.5t9.5 52q0 19 -12.5 35.5t-32.5 16.5q-14 0 -19 -7t-7 -15t-5.5 -15t-15.5 -7q-8 0 -14.5 5.5t-6.5 14.5q0 28 20.5 46t47.5 18q19 0 34.5 -7.5t27 -20.5t18 -29.5t6.5 -34.5z" />
    <glyph glyph-name="ugrave" unicode="&#xf9;" horiz-adv-x="473" 
d="M244 400q0 -8 -6 -14t-14 -6q-9 0 -31 15.5t-45.5 36t-41.5 40.5t-18 29q0 8 7 14t15 6q9 0 15 -7q12 -13 22.5 -26.5t24.5 -24.5q15 -13 31.5 -24t31.5 -23q9 -7 9 -16zM495 155q0 -2 -1 -4.5t-2 -4.5q-9 -19 -24.5 -46.5t-35.5 -52.5t-43 -42.5t-47 -17.5q-49 0 -66 46
q-1 2 -1 8t-1 8q-2 -2 -3 -9t-3 -9q-17 -20 -40 -32t-50 -12q-28 0 -54.5 9t-47.5 25.5t-33.5 41t-12.5 54.5v40v21q-1 -2 -1.5 -8t-1.5 -8q-5 -8 -11.5 -18t-14.5 -10t-14.5 6t-6.5 14q0 5 5 18t11.5 28.5t12.5 30.5t8 22q2 6 3.5 15t4 18t5.5 17t7 12q6 6 15 6t14 -7
t5 -15v-182q0 -22 9.5 -39t24.5 -28.5t34 -17.5t39 -6q23 0 39.5 12t27.5 30.5t16.5 40.5t5.5 41v149q0 8 6.5 14t14.5 6t14 -6t6 -14v-202q0 -9 0.5 -21.5t3.5 -23.5t10 -18.5t20 -7.5q14 0 28.5 12t28 29t24 34.5t16.5 28.5q5 8 8.5 17t8.5 17q7 10 18 10q8 0 14.5 -5.5
t6.5 -13.5z" />
    <glyph glyph-name="ucircumflex" unicode="&#xfb;" horiz-adv-x="473" 
d="M275 416q0 -8 -6 -14t-14 -6q-7 0 -21 14t-28 31t-25.5 31.5t-14.5 15.5q-3 -6 -16 -21t-28 -31t-28.5 -28t-18.5 -12q-8 0 -14.5 6t-6.5 14q0 10 11.5 21t18.5 17q24 22 43 49q6 8 17 21t22 13q5 0 13 -6q13 -11 22 -25.5t20 -27.5q11 -14 24.5 -25.5t24.5 -25.5
q5 -5 5 -11zM495 155q0 -2 -1 -4.5t-2 -4.5q-9 -19 -24.5 -46.5t-35.5 -52.5t-43 -42.5t-47 -17.5q-49 0 -66 46q-1 2 -1 8t-1 8q-2 -2 -3 -9t-3 -9q-17 -20 -40 -32t-50 -12q-28 0 -54.5 9t-47.5 25.5t-33.5 41t-12.5 54.5v40v21q-1 -2 -1.5 -8t-1.5 -8q-5 -8 -11.5 -18
t-14.5 -10t-14.5 6t-6.5 14q0 5 5 18t11.5 28.5t12.5 30.5t8 22q2 6 3.5 15t4 18t5.5 17t7 12q6 6 15 6t14 -7t5 -15v-182q0 -22 9.5 -39t24.5 -28.5t34 -17.5t39 -6q23 0 39.5 12t27.5 30.5t16.5 40.5t5.5 41v149q0 8 6.5 14t14.5 6t14 -6t6 -14v-202q0 -9 0.5 -21.5
t3.5 -23.5t10 -18.5t20 -7.5q14 0 28.5 12t28 29t24 34.5t16.5 28.5q5 8 8.5 17t8.5 17q7 10 18 10q8 0 14.5 -5.5t6.5 -13.5z" />
    <glyph glyph-name="uacute" unicode="&#xfa;" horiz-adv-x="473" 
d="M240 504q0 -8 -18 -28t-41 -40.5t-45 -36.5t-31 -16q-8 0 -14.5 6t-6.5 14q0 9 9 16q23 18 45 34t42 37q6 7 11.5 13t11.5 13q6 8 16 8q8 0 14.5 -6t6.5 -14zM495 155q0 -2 -1 -4.5t-2 -4.5q-9 -19 -24.5 -46.5t-35.5 -52.5t-43 -42.5t-47 -17.5q-49 0 -66 46q-1 2 -1 8
t-1 8q-2 -2 -3 -9t-3 -9q-17 -20 -40 -32t-50 -12q-28 0 -54.5 9t-47.5 25.5t-33.5 41t-12.5 54.5v40v21q-1 -2 -1.5 -8t-1.5 -8q-5 -8 -11.5 -18t-14.5 -10t-14.5 6t-6.5 14q0 5 5 18t11.5 28.5t12.5 30.5t8 22q2 6 3.5 15t4 18t5.5 17t7 12q6 6 15 6t14 -7t5 -15v-182
q0 -22 9.5 -39t24.5 -28.5t34 -17.5t39 -6q23 0 39.5 12t27.5 30.5t16.5 40.5t5.5 41v149q0 8 6.5 14t14.5 6t14 -6t6 -14v-202q0 -9 0.5 -21.5t3.5 -23.5t10 -18.5t20 -7.5q14 0 28.5 12t28 29t24 34.5t16.5 28.5q5 8 8.5 17t8.5 17q7 10 18 10q8 0 14.5 -5.5t6.5 -13.5z
" />
    <glyph glyph-name="Z" unicode="Z" horiz-adv-x="645" 
d="M653 140q0 -3 -2 -10q-12 -31 -32 -57.5t-45.5 -46.5t-54.5 -31t-59 -11q-75 0 -144.5 23t-140.5 47q-17 -25 -44.5 -47.5t-56.5 -22.5q-13 0 -29.5 3.5t-30.5 12t-24 21.5t-10 32q0 20 9.5 33t23.5 21t30 11.5t30 3.5q22 0 43 -4.5t42 -10.5q26 43 44.5 91t41.5 93
q17 35 34 71l34 72q-17 6 -32 6q-20 0 -36.5 -9.5t-23.5 -9.5q-8 0 -14 6t-6 15q0 10 10 18t23 14.5t26.5 9.5t20.5 3q13 0 25.5 -3t24.5 -9q20 46 39 90.5t38 91.5q14 33 27 67t28 67q-50 11 -99 23t-99 25q-16 3 -31 7.5t-32 4.5q-24 0 -51 -8t-50 -23t-38 -39t-15 -56
q0 -16 5 -32t14 -29t21.5 -21t27.5 -8q23 0 43 16t20 45q0 10 6 16t14 6t14.5 -6t6.5 -16q0 -24 -9 -43.5t-23.5 -33.5t-33 -21.5t-38.5 -7.5q-24 0 -44 11.5t-34.5 30t-22.5 43t-8 50.5q0 42 18.5 74.5t47 54t63 32.5t66.5 11q46 0 90 -14.5t89 -25.5q26 -7 51 -13t51 -12
q16 27 38.5 45t52.5 18q12 0 25.5 -3t25.5 -10.5t20 -19t8 -27.5t-8 -27t-19.5 -18.5t-25.5 -11t-26 -3.5q-34 0 -69 7q-17 -35 -30.5 -71.5t-28.5 -72.5q-19 -46 -38 -91.5t-39 -89.5q15 -8 31.5 -13.5t33.5 -5.5q11 0 20 3t20 3q8 0 14 -6.5t6 -15.5q0 -8 -7.5 -14.5
t-17 -9.5t-19.5 -5t-16 -2q-22 0 -42.5 8.5t-40.5 17.5q-17 -37 -34.5 -74.5t-35.5 -74.5q-22 -43 -40.5 -87.5t-41.5 -87.5q66 -23 128.5 -43t133.5 -20q40 0 75.5 24t58.5 60l10 18l10 18q4 6 7.5 9.5t10.5 3.5q8 0 14.5 -7t6.5 -16zM610 835q0 6 -4.5 9t-11 4t-12.5 1.5
t-9 0.5q-14 0 -25 -7.5t-20 -18.5q23 -3 45 -3q3 0 9 0.5t12.5 1.5t11 4.5t4.5 7.5zM132 67q-27 8 -59 8q-5 0 -13.5 -0.5t-17 -2.5t-15 -6.5t-6.5 -12.5t6.5 -13.5t15.5 -7t18 -2t14 -0.5q17 0 31.5 11.5t25.5 25.5z" />
    <glyph glyph-name="Aacute" unicode="&#xc1;" horiz-adv-x="733" 
d="M421 911q0 -5 -8.5 -16.5t-21.5 -25t-29 -28t-31 -26.5t-27 -19.5t-18 -7.5q-8 0 -14.5 6.5t-6.5 14.5q0 9 9 16q23 18 45 34.5t42 37.5q7 8 17.5 21t21.5 13q8 0 14.5 -6t6.5 -14zM701 165q0 -36 -13 -68t-35.5 -56.5t-54 -39t-67.5 -14.5q-55 0 -86.5 29.5t-47.5 73.5
t-19.5 94t-3.5 91q0 29 2 58.5t4 58.5q-25 6 -49.5 14t-50.5 13q0 -39 0.5 -86t-3 -95t-14 -93.5t-33 -80.5t-59.5 -56t-94 -21q-15 0 -32 4t-31.5 12t-24 20.5t-9.5 30.5q0 25 18.5 41.5t42.5 16.5q20 0 20 -20q0 -11 -6 -15t-13.5 -6t-14 -5t-6.5 -12q0 -8 6.5 -13.5
t15.5 -8.5t18.5 -4t15.5 -1q58 0 90.5 29t48.5 72.5t19.5 94t3.5 93.5v108h-10q-13 0 -24 -4t-19 -8.5t-14 -8.5t-11 -4q-8 0 -14.5 6.5t-6.5 14.5q0 5 2.5 8.5t5.5 6.5q19 17 42 24t49 5q0 38 2 75t2 75q0 24 5 54.5t17.5 57t33 45t50.5 18.5q32 0 49 -19.5t25 -47.5
t9.5 -58.5t1.5 -53.5q0 -47 -3.5 -93t-7.5 -92q7 -1 14 -1.5t14 -0.5q13 0 23.5 6t18.5 12.5t15 12.5t14 6q8 0 14 -6.5t6 -14.5t-6 -14q-17 -17 -38.5 -29.5t-46.5 -12.5q-8 0 -16 0.5t-16 1.5q-2 -29 -3 -58.5t-1 -58.5q0 -30 2 -71.5t13 -79t34.5 -64t66.5 -26.5
q28 0 51.5 11.5t41 30.5t27 44t9.5 52q0 19 -12.5 35t-32.5 16q-14 0 -19 -7t-7 -15t-5.5 -15t-15.5 -7q-8 0 -14.5 5.5t-6.5 14.5q0 28 20.5 46.5t47.5 18.5q19 0 34.5 -7.5t27 -20.5t18 -29.5t6.5 -34.5zM393 618q0 11 -0.5 33t-4.5 43.5t-13 37.5t-26 16
q-20 0 -32.5 -15.5t-20 -37t-10 -44t-2.5 -37.5q0 -38 -2 -77t-2 -78q26 -5 51.5 -12.5t51.5 -13.5q4 47 7 92.5t3 92.5z" />
    <glyph glyph-name="Edieresis" unicode="&#xcb;" horiz-adv-x="521" 
d="M372 845q0 -18 -13 -31.5t-31 -13.5t-31.5 13.5t-13.5 31.5t13.5 31t31.5 13t31 -13t13 -31zM260 845q0 -18 -13 -31.5t-31 -13.5t-32 13.5t-14 31.5t14 31t32 13t31 -13t13 -31zM494 164q0 -37 -17 -69.5t-44.5 -56.5t-62 -37.5t-70.5 -13.5q-59 0 -107 25.5t-82 67.5
t-52.5 95t-18.5 108q0 69 34.5 126.5t97.5 88.5q-7 10 -12.5 20t-9.5 21q-24 2 -54 9.5t-55.5 21.5t-43 35.5t-17.5 51.5t21 54.5t51.5 41.5t64 26.5t58.5 9.5q8 0 14 -5.5t6 -14.5t-6 -14.5t-14 -5.5q-16 0 -42 -7t-51 -19.5t-43 -29t-18 -36.5t13.5 -33.5t32 -22.5
t39.5 -13.5t36 -6.5q-1 5 -1 10v11q0 38 20.5 72t52.5 59.5t70.5 40.5t73.5 15q43 0 69.5 -23t26.5 -68q0 -43 -28 -72.5t-68.5 -48t-85.5 -27.5t-78 -11q6 -13 15 -24q21 7 43 11t44 4q10 0 23 -2.5t24.5 -8t19.5 -14.5t8 -21q0 -14 -7 -24.5t-18.5 -17.5t-24.5 -10.5
t-25 -3.5q-26 0 -50.5 10.5t-44.5 27.5q-55 -25 -87.5 -74t-32.5 -109q0 -46 15.5 -92t44 -82.5t69 -59t90.5 -22.5q27 0 54.5 10.5t49 29.5t35.5 44t14 53q0 19 -12.5 35.5t-32.5 16.5q-22 0 -30 -6t-11 -13t-5 -13t-13 -6t-18 9t-7 19q0 12 9.5 21.5t23 16t27.5 9.5t24 3
q18 0 34 -7.5t27.5 -20.5t18 -29.5t6.5 -34.5zM413 698q0 27 -14.5 39t-40.5 12q-24 0 -47.5 -7.5t-45 -21t-39 -31t-29.5 -38.5q-6 -11 -10.5 -23t-4.5 -26v-12q0 -5 1 -11q24 1 63 7.5t76 20.5t64 36t27 55zM326 482q0 2 -4 3.5t-9 2.5t-10 1h-6q-12 0 -24 -2l-24 -4
q8 -8 22 -11t25 -3q5 0 17.5 2.5t12.5 10.5z" />
    <glyph glyph-name="Egrave" unicode="&#xc8;" horiz-adv-x="521" 
d="M415 809q0 -8 -6 -14.5t-14 -6.5t-30 16.5t-45.5 37.5t-42 41t-18.5 28t7 14t15 6q9 0 15 -7q12 -13 23 -26t25 -25q15 -13 31.5 -24t31.5 -24q8 -6 8 -16zM494 164q0 -37 -17 -69.5t-44.5 -56.5t-62 -37.5t-70.5 -13.5q-59 0 -107 25.5t-82 67.5t-52.5 95t-18.5 108
q0 69 34.5 126.5t97.5 88.5q-7 10 -12.5 20t-9.5 21q-24 2 -54 9.5t-55.5 21.5t-43 35.5t-17.5 51.5t21 54.5t51.5 41.5t64 26.5t58.5 9.5q8 0 14 -5.5t6 -14.5t-6 -14.5t-14 -5.5q-16 0 -42 -7t-51 -19.5t-43 -29t-18 -36.5t13.5 -33.5t32 -22.5t39.5 -13.5t36 -6.5
q-1 5 -1 10v11q0 38 20.5 72t52.5 59.5t70.5 40.5t73.5 15q43 0 69.5 -23t26.5 -68q0 -43 -28 -72.5t-68.5 -48t-85.5 -27.5t-78 -11q6 -13 15 -24q21 7 43 11t44 4q10 0 23 -2.5t24.5 -8t19.5 -14.5t8 -21q0 -14 -7 -24.5t-18.5 -17.5t-24.5 -10.5t-25 -3.5
q-26 0 -50.5 10.5t-44.5 27.5q-55 -25 -87.5 -74t-32.5 -109q0 -46 15.5 -92t44 -82.5t69 -59t90.5 -22.5q27 0 54.5 10.5t49 29.5t35.5 44t14 53q0 19 -12.5 35.5t-32.5 16.5q-22 0 -30 -6t-11 -13t-5 -13t-13 -6t-18 9t-7 19q0 12 9.5 21.5t23 16t27.5 9.5t24 3
q18 0 34 -7.5t27.5 -20.5t18 -29.5t6.5 -34.5zM413 698q0 27 -14.5 39t-40.5 12q-24 0 -47.5 -7.5t-45 -21t-39 -31t-29.5 -38.5q-6 -11 -10.5 -23t-4.5 -26v-12q0 -5 1 -11q24 1 63 7.5t76 20.5t64 36t27 55zM326 482q0 2 -4 3.5t-9 2.5t-10 1h-6q-12 0 -24 -2l-24 -4
q8 -8 22 -11t25 -3q5 0 17.5 2.5t12.5 10.5z" />
    <glyph glyph-name="Iacute" unicode="&#xcd;" horiz-adv-x="380" 
d="M370 911q0 -5 -8.5 -16.5t-21.5 -25t-29 -28t-31 -26.5t-27 -19.5t-18 -7.5q-8 0 -14.5 6.5t-6.5 14.5q0 9 9 16q23 18 45 34.5t42 37.5q7 8 17.5 21t21.5 13q8 0 14.5 -6t6.5 -14zM473 739q0 -14 -7.5 -24.5t-19.5 -17t-25.5 -9.5t-25.5 -3q-31 0 -60 9
q-11 -32 -15.5 -69.5t-4.5 -70.5q0 -76 1 -152t1 -152q0 -48 -8.5 -95t-30 -84.5t-58.5 -60.5t-94 -23q-15 0 -32 4t-31.5 12t-24 20.5t-9.5 30.5q0 25 18.5 41.5t42.5 16.5q20 0 20 -20q0 -11 -6 -15t-13.5 -6t-13.5 -5t-6 -12q0 -8 6.5 -13.5t15 -8.5t18 -4t15.5 -1
q47 0 76 20.5t45.5 53t22.5 72t6 77.5q0 76 -1 152t-1 152q0 38 4.5 78t17.5 75q-11 5 -27 12.5t-33 14.5t-33 12.5t-27 5.5q-24 0 -51 -7t-50 -20.5t-38.5 -34.5t-15.5 -49q0 -14 5 -28t14 -25.5t21.5 -18.5t28.5 -7q23 0 42.5 14t19.5 39q0 9 6 14.5t15 5.5q20 0 20 -20
q0 -21 -8.5 -38t-23 -29.5t-33 -19t-38.5 -6.5q-24 0 -44.5 10t-35 26.5t-22.5 38t-8 44.5q0 37 18.5 65.5t47 47.5t63 28.5t67.5 9.5q15 0 33 -5t36 -12.5t35.5 -16t32.5 -14.5q14 22 35 34.5t47 12.5q12 0 25.5 -3t25 -9t19.5 -16t8 -24zM431 739q0 5 -4.5 7t-10.5 3.5
t-12 1.5h-9q-24 0 -40 -21q22 -5 40 -5q3 0 9 0.5t12 2t10.5 4.5t4.5 7z" />
    <glyph glyph-name="Icircumflex" unicode="&#xce;" horiz-adv-x="380" 
d="M376 815q0 -8 -6 -14t-14 -6q-7 0 -21 14.5t-28 31.5t-25.5 32t-14.5 16q-3 -6 -16 -21.5t-28 -31.5t-28.5 -28.5t-18.5 -12.5q-8 0 -14.5 6t-6.5 14q0 10 11.5 21.5t18.5 17.5q12 11 22.5 23.5t20.5 26.5q6 8 17 21t22 13q5 0 13 -6q13 -12 22 -26.5t20 -27.5
q11 -14 24.5 -25.5t24.5 -25.5q5 -5 5 -12zM473 739q0 -14 -7.5 -24.5t-19.5 -17t-25.5 -9.5t-25.5 -3q-31 0 -60 9q-11 -32 -15.5 -69t-4.5 -70q0 -76 1 -152.5t1 -152.5q0 -48 -8.5 -95t-30 -84.5t-58.5 -60.5t-94 -23q-15 0 -32 4t-31.5 12t-24 20.5t-9.5 30.5
q0 25 18.5 41.5t42.5 16.5q20 0 20 -20q0 -11 -6 -15t-13.5 -6t-13.5 -5t-6 -12q0 -8 6.5 -13.5t15 -8.5t18 -4t15.5 -1q47 0 76 20.5t45.5 53t22.5 72t6 77.5q0 76 -1 152.5t-1 152.5q0 38 4.5 77.5t17.5 74.5q-11 5 -27 12.5t-33 14.5t-33 12.5t-27 5.5q-24 0 -51 -7
t-50 -20.5t-38.5 -34.5t-15.5 -49q0 -14 5 -28t14 -25.5t21.5 -18.5t28.5 -7q23 0 42.5 14t19.5 39q0 9 6 14.5t15 5.5q20 0 20 -20q0 -21 -8.5 -38t-23 -29.5t-33 -19t-38.5 -6.5q-24 0 -44.5 10t-35 26.5t-22.5 38t-8 44.5q0 37 18.5 65.5t47 47.5t63 28.5t67.5 9.5
q15 0 33 -5t36 -12.5t35.5 -16t32.5 -14.5q14 22 35 34.5t47 12.5q12 0 25.5 -3t25 -9t19.5 -16t8 -24zM431 739q0 5 -4.5 7t-10.5 3.5t-12 1.5h-9q-24 0 -40 -21q22 -5 40 -5q3 0 9 0.5t12 2t10.5 4.5t4.5 7z" />
    <glyph glyph-name="Oacute" unicode="&#xd3;" horiz-adv-x="659" 
d="M394 911q0 -5 -8.5 -16.5t-21.5 -25t-29 -28t-31 -26.5t-27 -19.5t-18 -7.5q-8 0 -14.5 6.5t-6.5 14.5q0 9 9 16q23 18 45 34.5t42 37.5q7 8 17.5 21t21.5 13q8 0 14.5 -6t6.5 -14zM625 390q0 -70 -20.5 -142t-60.5 -130t-100 -94.5t-140 -36.5q-82 0 -143 34t-101 90
t-60 127t-20 144q0 56 9.5 109t31.5 100.5t57 87.5t85 69q5 3 11 3q8 0 13.5 -7t5.5 -15q0 -6 -2.5 -9.5t-7.5 -6.5q-14 -10 -28 -19.5t-27 -20.5q-30 -27 -50 -61.5t-33 -72.5t-18.5 -78.5t-5.5 -78.5q0 -64 17 -128t51.5 -114t88 -81.5t126.5 -31.5q71 0 123 34t87 86.5
t52 117t17 125.5q0 33 -6.5 72t-20 77.5t-33.5 74.5t-46.5 64t-60 44.5t-73.5 16.5q-37 0 -66.5 -14t-49 -37.5t-30 -55t-10.5 -66.5q0 -17 11.5 -32t29.5 -15q12 0 19.5 8t12 19.5t6.5 24t2 21.5t6.5 14.5t14.5 5.5t14 -5.5t6 -14.5q0 -18 -5 -37.5t-14.5 -36.5t-25 -28
t-36.5 -11q-18 0 -33 7.5t-26 19.5t-17 27.5t-6 32.5q0 44 13.5 82.5t39 68t62 46.5t82.5 17q69 0 122 -38.5t88.5 -97t53.5 -127t18 -127.5z" />
    <glyph glyph-name="Ugrave" unicode="&#xd9;" horiz-adv-x="929" 
d="M461 809q0 -8 -6 -14.5t-14 -6.5t-30.5 16t-46 37t-41.5 41.5t-18 28.5t7 14t15 6q9 0 15 -7q12 -13 22.5 -26.5t24.5 -24.5q15 -13 31 -24.5t32 -23.5q9 -7 9 -16zM897 164q0 -36 -13 -68t-35.5 -56t-53.5 -38.5t-67 -14.5q-52 0 -93.5 29.5t-61.5 77.5
q-25 -50 -68 -78.5t-100 -28.5q-45 0 -81 20t-61.5 52t-39 72.5t-13.5 81.5v413q0 17 -4 37.5t-12.5 39.5t-23 31.5t-35.5 12.5q-28 0 -49 -16.5t-35.5 -41t-22 -52.5t-7.5 -51q0 -16 3 -38.5t11.5 -43.5t22 -35.5t34.5 -14.5q17 0 28 10t18 24.5t9.5 31t2.5 30.5
q0 9 6 14.5t14 5.5t14.5 -5.5t6.5 -14.5q0 -23 -5.5 -47t-17.5 -44t-31 -32.5t-45 -12.5q-31 0 -52.5 17.5t-35 43t-19 56t-5.5 55.5q0 33 10.5 68.5t30 65t48.5 48.5t66 19q31 0 53 -15.5t36 -39t20.5 -52t6.5 -54.5v-413q0 -33 10.5 -66t30.5 -59.5t48.5 -43.5t64.5 -17
t64.5 15t48.5 39.5t30.5 56t10.5 64.5v123v444q0 9 6.5 14.5t14.5 5.5t14 -5.5t6 -14.5v-444v-161q0 -26 9.5 -51t27 -44t41 -30.5t50.5 -11.5q28 0 51.5 11.5t40.5 30t26.5 43.5t9.5 52q0 19 -12.5 35.5t-32.5 16.5q-14 0 -19 -7t-7 -15t-5.5 -15t-15.5 -7q-8 0 -14.5 5.5
t-6.5 14.5q0 28 20.5 46t47.5 18q19 0 34.5 -7.5t27 -20.5t18 -29.5t6.5 -34.5z" />
    <glyph glyph-name="ecircumflex" unicode="&#xea;" horiz-adv-x="360" 
d="M259 416q0 -8 -6 -14t-14 -6q-7 0 -21 14t-28 31t-25.5 31.5t-14.5 15.5q-3 -6 -16 -21t-28 -31t-28.5 -28t-18.5 -12q-8 0 -14.5 6t-6.5 14q0 10 11.5 21t18.5 17q24 22 43 49q6 8 17 21t22 13q5 0 13 -6q13 -11 22 -25.5t20 -27.5q11 -14 24.5 -25.5t24.5 -25.5
q5 -5 5 -11zM382 158q0 -4 -1 -6q-31 -76 -91.5 -120.5t-144.5 -44.5q-34 0 -64.5 14t-52.5 37t-35 54t-13 65q0 36 13 67t35.5 54t53 36.5t66.5 13.5q20 0 43 -6.5t42.5 -19.5t32.5 -31t13 -42q0 -28 -12.5 -49t-32 -35.5t-44.5 -22t-50 -7.5q-33 0 -60.5 6.5t-57.5 20.5
q3 -23 13 -44t26.5 -36.5t38 -25t45.5 -9.5q55 0 99.5 23.5t73.5 71.5q3 5 7.5 14t10 18t12 16t13.5 7q8 0 14.5 -5.5t6.5 -13.5zM238 229q0 14 -10 25t-24 18.5t-29.5 11.5t-26.5 4q-46 0 -80 -28.5t-44 -73.5q30 -16 56 -24t60 -8q17 0 34 4.5t31.5 14t23.5 23.5t9 33z
" />
    <glyph glyph-name="eacute" unicode="&#xe9;" horiz-adv-x="360" 
d="M238 504q0 -8 -18 -28t-41 -40.5t-45 -36.5t-31 -16q-8 0 -14.5 6t-6.5 14q0 9 9 16q15 12 31.5 23t31.5 24q14 11 25 24t23 26q6 8 16 8q8 0 14 -6t6 -14zM382 158q0 -4 -1 -6q-31 -76 -91.5 -120.5t-144.5 -44.5q-34 0 -64.5 14t-52.5 37t-35 54t-13 65q0 36 13 67
t35.5 54t53 36t66.5 13q20 0 43 -6.5t42.5 -19t32.5 -30.5t13 -42q0 -28 -12.5 -49.5t-32 -36t-44.5 -22t-50 -7.5q-33 0 -60.5 7t-57.5 21q3 -23 13 -44t26.5 -36.5t38 -25t45.5 -9.5q55 0 99.5 23.5t73.5 71.5q3 5 7.5 14t10 18t12 16t13.5 7q8 0 14.5 -5.5t6.5 -13.5z
M238 229q0 14 -10 25t-24 18.5t-29.5 11.5t-26.5 4q-46 0 -80 -28.5t-44 -73.5q30 -16 56 -24t60 -8q17 0 34 4.5t31.5 14t23.5 23.5t9 33z" />
    <glyph glyph-name="egrave" unicode="&#xe8;" horiz-adv-x="360" 
d="M244 400q0 -8 -6 -14t-14 -6q-9 0 -31 15.5t-45.5 36t-41.5 40.5t-18 29q0 8 7 14t15 6q9 0 15 -7q12 -13 22.5 -26.5t24.5 -24.5q15 -13 31.5 -24t31.5 -23q9 -7 9 -16zM382 158q0 -4 -1 -6q-31 -76 -91.5 -120.5t-144.5 -44.5q-34 0 -64.5 14t-52.5 37t-35 54t-13 65
q0 36 13 67t35.5 54t53 36t66.5 13q20 0 43 -6.5t42.5 -19t32.5 -30.5t13 -42q0 -28 -12.5 -49.5t-32 -36t-44.5 -22t-50 -7.5q-33 0 -60.5 7t-57.5 21q3 -23 13.5 -44t27 -36.5t37.5 -25t45 -9.5q55 0 99.5 23.5t73.5 71.5q3 5 7.5 14t10 18t12 16t13.5 7q8 0 14.5 -5.5
t6.5 -13.5zM238 229q0 14 -10 25t-24 18.5t-29.5 11.5t-26.5 4q-46 0 -80 -28.5t-44 -73.5q30 -16 56 -24t60 -8q17 0 34 4.5t31.5 14t23.5 23.5t9 33z" />
    <glyph glyph-name="numbersign" unicode="#" horiz-adv-x="474" 
d="M449 280q0 -8 -6.5 -14.5t-14.5 -6.5h-86v-84q0 -8 -6.5 -14t-14.5 -6t-14 6t-6 14v84h-116v-84q0 -8 -6.5 -14t-14.5 -6t-14 6t-6 14v84h-88q-8 0 -14 6.5t-6 14.5t6 14t14 6h88v110h-88q-8 0 -14 6t-6 14t6 14t14 6h88v83q0 8 6 14t14 6t14.5 -6t6.5 -14v-83h116v83
q0 8 6 14t14 6t14.5 -6t6.5 -14v-83h86q8 0 14.5 -6t6.5 -14t-6.5 -14t-14.5 -6h-86v-110h86q8 0 14.5 -6t6.5 -14zM301 410h-116v-110h116v110z" />
    <glyph glyph-name="exclam" unicode="!" horiz-adv-x="269" 
d="M145 165q0 -9 -7 -14.5t-15 -5.5t-14 6t-6 14v588q0 8 6 14t14 6t15 -5.5t7 -14.5v-588zM171 39q0 -19 -14 -32t-32 -13t-31.5 13t-13.5 32t13.5 31.5t31.5 12.5t32 -12.5t14 -31.5z" />
    <glyph glyph-name="quotedbl" unicode="&#x22;" horiz-adv-x="245" 
d="M159 552q0 -8 -6.5 -13.5t-14.5 -5.5t-14 5.5t-6 13.5v126q0 8 6 13.5t14 5.5t14.5 -5.5t6.5 -13.5v-126zM85 552q0 -8 -6.5 -13.5t-14.5 -5.5t-14 5.5t-6 13.5v126q0 8 6 13.5t14 5.5t14.5 -5.5t6.5 -13.5v-126z" />
    <glyph glyph-name="Q" unicode="Q" horiz-adv-x="659" 
d="M625 449q0 -82 -20.5 -164t-61 -149t-101 -109t-139.5 -42q-83 0 -143.5 39t-100.5 103.5t-59.5 146t-19.5 166.5q0 65 9.5 126t31 115.5t56.5 100.5t85 80q4 3 11 3q8 0 14 -8t6 -17q0 -12 -11 -19l-28 -22t-27 -24q-30 -31 -50 -70.5t-32.5 -83.5t-18 -90.5t-5.5 -90.5
q0 -75 16.5 -148t51 -130.5t87.5 -94t127 -36.5q70 0 123 39t87.5 99.5t52 135t17.5 144.5q0 38 -6.5 83t-20 89.5t-34 86t-47 73.5t-60 51t-73.5 19q-38 0 -66.5 -16t-48.5 -43t-30 -63.5t-10 -76.5q0 -20 11 -37t29 -17q12 0 19.5 9t12.5 22.5t7 28t2 24.5t6 16.5t14 6.5
t14.5 -6.5t6.5 -16.5q0 -21 -5 -43.5t-15 -42t-25.5 -32t-36.5 -12.5q-18 0 -32.5 8.5t-25.5 22.5t-17 31.5t-6 37.5q0 50 13.5 94.5t39 78.5t61.5 54t82 20q69 0 122 -44.5t89 -112t54 -146.5t18 -147zM638 876q0 -2 -0.5 -3t-0.5 -2l-31 -1283q-3 -18 -19 -18
q-8 0 -14.5 7t-6.5 16v5l31 1284q5 18 20 18q9 0 15 -7.5t6 -16.5z" />
    <glyph glyph-name="twosuperior" unicode="&#xb2;" horiz-adv-x="133" 
d="M154 149q0 -1 -2 -5q-8 -19 -24.5 -46t-37 -51.5t-44 -42t-46.5 -17.5q-8 0 -14 5.5t-6 13.5t6 13.5t14 5.5q14 0 28.5 11.5t27.5 28t24 33.5t17 28q3 5 6 12t7.5 13.5t10 11.5t11.5 5q8 0 15 -5.5t7 -13.5z" />
    <glyph glyph-name="ccedilla" unicode="&#xe7;" horiz-adv-x="342" 
d="M362 152q0 -2 -1 -4.5t-2 -4.5q-13 -27 -29 -53t-36.5 -47t-45.5 -36.5t-57 -21.5q0 -25 -3 -49q14 -1 29.5 -7t28.5 -16.5t21.5 -24.5t8.5 -29q0 -16 -8.5 -27.5t-21 -19.5t-27.5 -12t-29 -4q-28 0 -53 9t-39 36q-1 2 -1 7q0 8 6.5 14t14.5 6q6 0 11 -5t11.5 -11t18 -11
t31.5 -5q5 0 12.5 1t15 4t12.5 7.5t5 10.5t-5.5 13t-13.5 12t-16.5 8.5t-14.5 3.5q-7 0 -14 -4t-15 -4q-15 0 -15 16q0 6 1 9q3 17 5 34.5t3 34.5q-34 1 -63 15t-50 37t-33 53t-12 64t12.5 65t34.5 54.5t52 37.5t65 14q32 0 64 -12.5t53 -35.5q6 -8 6 -13q0 -8 -7 -14.5
t-15 -6.5q-3 0 -13 6.5t-24 14.5t-30.5 14.5t-33.5 6.5q-27 0 -49.5 -11t-39 -29t-25.5 -41.5t-9 -49.5t9.5 -49.5t26 -41t39 -28t48.5 -10.5q50 0 84 27.5t58 68.5q6 11 11.5 22t13.5 21q4 5 7.5 7.5t9.5 2.5q8 0 15 -5.5t7 -13.5z" />
    <glyph glyph-name="idieresis" unicode="&#xef;" horiz-adv-x="265" 
d="M270 158q0 -1 -2 -9q-9 -24 -25 -52.5t-37 -53t-47 -40.5t-55 -16q-32 0 -47.5 21t-21.5 50.5t-5.5 60.5t0.5 52q-3 -8 -11.5 -21t-18.5 -13q-8 0 -14 6t-6 14q0 4 5 17.5t11 29.5t12 31t8 22q2 5 4.5 14.5t4.5 19t5 18t6 11.5q7 7 14 7q9 0 15 -7t6 -15l-1 -206
q0 -9 0.5 -21t4 -23.5t10.5 -19.5t19 -8q18 0 34.5 10t30 25t24.5 32.5t18 32.5q5 10 9 20.5t11 19.5q7 10 17 10q8 0 15 -5.5t7 -13.5zM138 443q0 -18 -13 -30.5t-31 -12.5t-31.5 12.5t-13.5 30.5t13.5 30.5t31.5 12.5t31 -12.5t13 -30.5zM26 443q0 -18 -13 -30.5
t-31 -12.5t-32 12.5t-14 30.5t14 30.5t32 12.5t31 -12.5t13 -30.5z" />
    <glyph glyph-name="ae" unicode="&#xe6;" horiz-adv-x="500" 
 />
  </font>
</defs>
</svg>
